{
.appVersion = "895";
.formatVersion = 3;
customParameters = (
{
name = glyphOrder;
value = (
nirugu,
_A.isol,
_A.init,
_A.medi,
_A.fina,
_Aa.fina,
_Ah.medi,
_Ah.fina,
_At.fina,
_Ai.medi,
_Ai.fina,
_I.isol,
_I.init,
_I.medi,
_I.fina,
_Iy.fina,
_Ic.init,
_O.medi,
_O.fina,
_Oh.medi,
_Oh.fina,
_U.fina,
_Uh.fina,
_Ue.fina,
_N.init,
_N.medi,
_N.fina,
_B.init,
_B.medi,
_B.fina,
_Pb.init,
_Pb.medi,
_H.init,
_H.medi,
_Hh.init,
_Hh.medi,
_Hc.init,
_Hc.medi,
_Hx.medi,
_Hx.fina,
_G.init,
_G.medi,
_G.fina,
_G4.fina,
_Gh.init,
_Gh.medi,
_Gc.init,
_Gc.medi,
_Gx.init,
_Gx.medi,
_Gx.fina,
_M.init,
_M.medi,
_M.fina,
_L.init,
_L.medi,
_L.fina,
_S.init,
_S.medi,
_S.fina,
_Sp.init,
_Sp.medi,
_Sp.fina,
_T.init,
_Tb.init,
_Th.init,
_Tt.init,
_D.medi,
_Db.medi,
_Dd.medi,
_Dd.fina,
_Dh.medi,
_Dt.medi,
_Ch.init,
_Ch.medi,
_Cc.init,
_Cc.medi,
_J.medi,
_Jc.medi,
_Y.init,
_Y.medi,
_R.init,
_R.medi,
_R2.fina,
_W.init,
_W.medi,
_V.init,
_V.medi,
_K2.init,
_K2.medi,
_Kh.init,
_Kh.medi,
_Kc.init,
_Kc.medi,
_Cs.init,
_Cs.medi,
_Rr.init,
_Rr.medi,
_Zs.init,
_Zs.medi,
_Zs.fina,
_GA.init,
_GA.medi,
_GAa.isol,
_GAa.fina,
_GhA.init,
_GhA.medi,
_GhAa.isol,
_GhAa.fina,
_GcA.init,
_GcA.medi,
_GcAa.isol,
_GcAa.fina,
_GI.init,
_GI.medi,
_GI.isol,
_GI.fina,
_GhI.init,
_GhI.medi,
_GhI.isol,
_GhI.fina,
_GcI.init,
_GcI.medi,
_GcI.isol,
_GcI.fina,
_GO.init,
_GO.medi,
_GO.isol,
_GO.fina,
_GOI.init,
_GOI.medi,
_GUe.isol,
_GUe.fina,
_GhOI.init,
_GhOI.medi,
_GhUe.isol,
_GhUe.fina,
_GcOI.init,
_GcOI.medi,
_GcUe.isol,
_GcUe.fina,
_GhO.init,
_GhO.medi,
_GhO.isol,
_GhO.fina,
_GcO.init,
_GcO.medi,
_GcO.isol,
_GcO.fina,
_BA.init,
_BA.medi,
_BAa.isol,
_BAa.fina,
_BAh.init,
_BAh.medi,
_BAt.isol,
_BAt.fina,
_BI.init,
_BI.medi,
_BI.isol,
_BI.fina,
_BO.init,
_BO.medi,
_BO.isol,
_BO.fina,
_BOh.init,
_BOh.medi,
_BOh.isol,
_BOh.fina,
_BOI.init,
_BOI.medi,
_BUe.isol,
_BUe.fina,
_PbA.init,
_PbA.medi,
_PbAa.isol,
_PbAa.fina,
_PbAh.init,
_PbAh.medi,
_PbAt.isol,
_PbAt.fina,
_PbI.init,
_PbI.medi,
_PbI.isol,
_PbI.fina,
_PbO.init,

glyphs = (
{
glyphname = nirugu;
layers = (
{
layerId = "E14AE757-7134-4DB9-897C-AD248BACE90D";
shapes = (
{
closed = 1;
nodes = (
(188,364,l),
(188,444,l),
(0,444,l),
(0,364,l)
);
}
);
width = 168;
}
);
unicode = 6154;
},
{
export = 0;
glyphname = _A.isol;
layers = (
{
layerId = "E14AE757-7134-4DB9-897C-AD248BACE90D";
shapes = (
{
closed = 1;
nodes = (
(600,-264,l),
(586,-239,o),
(579,-214,o),
(579,-187,c),
(579,-158,o),
(584,-133,o),
(595,-110,c),
(605,-88,o),
(622,-62,o),
(646,-31,c),
(691,26,o),
(724,75,o),
(746,118,c),
(768,161,o),
(779,203,o),
(779,245,c),
(778,378,o),
(701,444,o),
(548,444,c),
(444,444,l),
(360,444,o),
(307,416,o),
(285,361,c),
(281,361,l),
(278,445,l),
(277,536,o),
(258,597,o),
(223,628,c),
(204,645,o),
(176,653,o),
(139,653,c),
(100,653,o),
(57,643,o),
(10,623,c),
(10,550,l),
(51,567,o),
(87,575,o),
(118,575,c),
(147,575,o),
(167,564,o),
(179,541,c),
(191,518,o),
(198,483,o),
(200,437,c),
(226,74,l),
(292,74,l),
(302,219,l),
(305,293,o),
(324,337,o),
(361,351,c),
(381,360,o),
(409,364,o),
(445,364,c),
(547,364,l),
(650,365,o),
(701,325,o),
(701,245,c),
(701,214,o),
(693,182,o),
(676,150,c),
(659,117,o),
(631,77,o),
(594,28,c),
(563,-12,o),
(539,-49,o),
(523,-83,c),
(507,-118,o),
(499,-152,o),
(499,-187,c),
(499,-218,o),
(505,-243,o),
(518,-264,c)
);
}
);
width = 824;
}
);
},
{
export = 0;
glyphname = _A.init;
layers = (
{
layerId = "E14AE757-7134-4DB9-897C-AD248BACE90D";
shapes = (
{
closed = 1;
nodes = (
(226,74,l),
(292,74,l),
(302,219,l),
(305,292,o),
(325,336,o),
(362,351,c),
(381,360,o),
(409,364,o),
(445,364,c),
(522,364,l),
(522,444,l),
(444,444,l),
(360,444,o),
(307,416,o),
(285,361,c),
(281,361,l),
(278,445,l),
(277,536,o),
(258,597,o),
(223,628,c),
(204,645,o),
(176,653,o),
(139,653,c),
(100,653,o),
(57,643,o),
(10,623,c),
(10,550,l),
(51,567,o),
(87,575,o),
(118,575,c),
(147,575,o),
(168,564,o),
(180,542,c),
(191,519,o),
(198,484,o),
(200,437,c)
);
}
);
width = 492;
}
);
},
{
export = 0;
glyphname = _A.medi;
layers = (
{
layerId = "E14AE757-7134-4DB9-897C-AD248BACE90D";
shapes = (
{
closed = 1;
nodes = (
(85,96,l),
(104,364,l),
(314,364,l),
(314,444,l),
(0,444,l),
(0,364,l),
(19,96,l)
);
}
);
width = 284;
}
);
},
{
export = 0;
glyphname = _A.fina;
layers = (
{
layerId = "E14AE757-7134-4DB9-897C-AD248BACE90D";
shapes = (
{
closed = 1;
nodes = (
(228,156,l),
(228,297,o),
(244,428,o),
(277,547,c),
(308,664,o),
(355,761,o),
(417,836,c),
(325,836,l),
(273,768,o),
(231,674,o),
(199,555,c),
(167,435,o),
(151,302,o),
(151,156,c),
(94,189,o),
(60,245,o),
(49,323,c),
(44,360,o),
(41,400,o),
(41,444,c),
(-33,444,l),
(-33,364,l),
(-33,257,o),
(8,170,o),
(89,103,c),
(128,73,o),
(175,56,o),
(228,53,c)
);
}
);
width = 427;
}
);
},
{
export = 0;
glyphname = _Aa.fina;
layers = (
{
layerId = "E14AE757-7134-4DB9-897C-AD248BACE90D";
shapes = (
{
closed = 1;
nodes = (
(215,-264,l),
(201,-237,o),
(194,-212,o),
(194,-187,c),
(194,-158,o),
(199,-133,o),
(210,-110,c),
(220,-88,o),
(237,-62,o),
(261,-31,c),
(304,22,o),
(337,71,o),
(360,116,c),
(383,161,o),
(394,204,o),
(394,245,c),
(392,378,o),
(315,444,o),
(163,444,c),
(0,444,l),
(0,364,l),
(162,364,l),
(265,365,o),
(316,325,o),
(316,244,c),
(316,212,o),
(308,180,o),
(291,148,c),
(274,115,o),
(247,75,o),
(209,28,c),
(178,-13,o),
(154,-50,o),
(138,-83,c),
(122,-116,o),
(114,-151,o),
(114,-187,c),
(114,-217,o),
(120,-243,o),
(133,-264,c)
);
}
);
width = 439;
}
);
},
{
export = 0;
glyphname = _Ah.medi;
layers = (
{
anchors = (
{
name = baluda;
pos = (0,0);
},
{
name = dagalga;
pos = (0,0);
}
);
layerId = "E14AE757-7134-4DB9-897C-AD248BACE90D";
shapes = (
{
closed = 1;
nodes = (
(85,96,l),
(104,364,l),
(314,364,l),
(314,444,l),
(0,444,l),
(0,364,l),
(19,96,l)
);
},
{
closed = 1;
nodes = (
(21,527,l),
(54,562,o),
(100,600,o),
(160,643,c),
(99,712,l),
(60,673,o),
(20,625,o),
(-22,566,c)
);
}
);
width = 284;
}
);
},
{
export = 0;
glyphname = _Ah.fina;
layers = (
{
anchors = (
{
name = baluda;
pos = (0,0);
},
{
name = dagalga;
pos = (0,0);
}
);
layerId = "E14AE757-7134-4DB9-897C-AD248BACE90D";
shapes = (
{
closed = 1;
nodes = (
(228,156,l),
(228,299,o),
(245,429,o),
(277,547,c),
(309,666,o),
(357,762,o),
(417,836,c),
(325,836,l),
(273,768,o),
(231,674,o),
(199,555,c),
(167,435,o),
(151,302,o),
(151,156,c),
(58,210,o),
(41,312,o),
(41,444,c),
(-33,444,l),
(-33,364,l),
(-33,206,o),
(67,63,o),
(228,53,c)
);
},
{
closed = 1;
nodes = (
(11,567,l),
(44,602,o),
(90,640,o),
(150,683,c),
(89,752,l),
(50,713,o),
(10,665,o),
(-32,606,c)
);
}
);
width = 427;
}
);
},
{
export = 0;
glyphname = _At.fina;
layers = (
{
anchors = (
{
name = baluda;
pos = (0,0);
},
{
name = dagalga;
pos = (0,0);
}
);
layerId = "E14AE757-7134-4DB9-897C-AD248BACE90D";
shapes = (
{
closed = 1;
nodes = (
(61,527,l),
(94,562,o),
(140,600,o),
(200,643,c),
(139,712,l),
(100,673,o),
(60,625,o),
(18,566,c)
);
},
{
closed = 1;
nodes = (
(128,-264,l),
(114,-238,o),
(107,-213,o),
(107,-187,c),
(107,-127,o),
(123,-97,o),
(174,-31,c),
(210,16,o),
(243,62,o),
(267,107,c),
(292,154,o),
(307,199,o),
(307,245,c),
(307,373,o),
(229,444,o),
(76,444,c),
(0,444,l),
(0,364,l),
(75,364,l),
(181,364,o),
(229,325,o),
(229,245,c),
(229,203,o),
(217,167,o),
(188,121,c),
(172,96,o),
(150,64,o),
(122,28,c),
(64,-47,o),
(27,-111,o),
(27,-187,c),
(27,-216,o),
(33,-242,o),
(46,-264,c)
);
}
);
width = 352;
}
);
},
{
export = 0;
glyphname = _Ai.medi;
layers = (
{
anchors = (
{
name = baluda;
pos = (0,0);
},
{
name = dagalga;
pos = (0,0);
}
);
layerId = "E14AE757-7134-4DB9-897C-AD248BACE90D";
shapes = (
{
closed = 1;
nodes = (
(85,96,l),
(104,364,l),
(314,364,l),
(314,444,l),
(82,444,l),
(168,667,l),
(101,667,l),
(68,576,l),
(63,563,o),
(60,550,o),
(57,537,c),
(53,537,l),
(50,550,o),
(46,563,o),
(41,576,c),
(8,667,l),
(-59,667,l),
(26,444,l),
(0,444,l),
(0,364,l),
(19,96,l)
);
}
);
width = 284;
}
);
},
{
export = 0;
glyphname = _Ai.fina;
layers = (
{
anchors = (
{
name = baluda;
pos = (0,0);
},
{
name = dagalga;
pos = (0,0);
}
);
layerId = "E14AE757-7134-4DB9-897C-AD248BACE90D";
shapes = (
{
closed = 1;
nodes = (
(288,156,l),
(288,398,o),
(339,666,o),
(477,836,c),
(385,836,l),
(263,676,o),
(211,400,o),
(211,156,c),
(119,210,o),
(101,308,o),
(101,444,c),
(82,444,l),
(168,667,l),
(101,667,l),
(68,576,l),
(63,563,o),
(60,550,o),
(57,537,c),
(53,537,l),
(50,550,o),
(46,563,o),
(41,576,c),
(8,667,l),
(-59,667,l),
(26,444,l),
(0,444,l),
(0,364,l),
(27,364,l),
(27,206,o),
(128,63,o),
(288,53,c)
);
}
);
width = 487;
}
);
},
{
export = 0;
glyphname = _I.isol;
layers = (
{
layerId = "E14AE757-7134-4DB9-897C-AD248BACE90D";
shapes = (
{
closed = 1;
nodes = (
(245,85,l),
(204,142,o),
(173,196,o),
(154,246,c),
(134,296,o),
(124,350,o),
(124,407,c),
(124,486,o),
(137,545,o),
(163,585,c),
(189,624,o),
(226,644,o),
(273,644,c),
(361,644,o),
(411,555,o),
(423,376,c),
(503,386,l),
(497,485,o),
(477,565,o),
(443,625,c),
(403,693,o),
(346,727,o),
(273,727,c),
(224,727,o),
(182,713,o),
(148,686,c),
(114,659,o),
(88,620,o),
(71,570,c),
(54,521,o),
(45,467,o),
(45,407,c),
(45,292,o),
(88,171,o),
(174,42,c)
);
}
);
width = 548;
}
);
},
{
export = 0;
glyphname = _I.init;
layers = (
{
layerId = "E14AE757-7134-4DB9-897C-AD248BACE90D";
shapes = (
{
closed = 1;
nodes = (
(306,-31,l),
(233,98,o),
(178,229,o),
(139,364,c),
(451,364,l),
(451,444,l),
(45,444,l),
(72,287,o),
(134,117,o),
(233,-67,c)
);
}
);
width = 421;
}
);
},
{
export = 0;
glyphname = _I.medi;
layers = (
{
layerId = "E14AE757-7134-4DB9-897C-AD248BACE90D";
shapes = (
{
closed = 1;
nodes = (
(246,-31,l),
(173,98,o),
(118,229,o),
(79,364,c),
(391,364,l),
(391,444,l),
(0,444,l),
(0,364,l),
(39,220,o),
(96,76,o),
(173,-67,c)
);
}
);
width = 361;
}
);
},
{
export = 0;
glyphname = _I.fina;
layers = (
{
layerId = "E14AE757-7134-4DB9-897C-AD248BACE90D";
shapes = (
{
closed = 1;
nodes = (
(198,85,l),
(157,142,o),
(126,196,o),
(107,246,c),
(87,296,o),
(77,350,o),
(77,407,c),
(77,486,o),
(90,545,o),
(116,585,c),
(142,624,o),
(179,644,o),
(226,644,c),
(314,644,o),
(364,555,o),
(376,376,c),
(456,386,l),
(450,485,o),
(430,565,o),
(396,625,c),
(356,693,o),
(299,727,o),
(226,727,c),
(177,727,o),
(135,713,o),
(101,686,c),
(67,659,o),
(41,620,o),
(24,570,c),
(7,521,o),
(-2,467,o),
(-2,407,c),
(-2,292,o),
(41,171,o),
(127,42,c)
);
}
);
width = 501;
}
);
},
{
export = 0;
glyphname = _Iy.fina;
layers = (
{
anchors = (
{
name = baluda;
pos = (0,0);
},
{
name = dagalga;
pos = (0,0);
}
);
layerId = "E14AE757-7134-4DB9-897C-AD248BACE90D";
shapes = (
{
closed = 1;
nodes = (
(180,162,l),
(197,199,o),
(205,238,o),
(205,279,c),
(205,389,o),
(146,444,o),
(30,444,c),
(0,444,l),
(0,364,l),
(30,364,l),
(101,364,o),
(128,333,o),
(128,279,c),
(128,235,o),
(121,196,o),
(106,162,c)
);
}
);
width = 250;
}
);
},
{
export = 0;
glyphname = _Ic.init;
layers = (
{
anchors = (
{
name = baluda;
pos = (0,0);
},
{
name = dagalga;
pos = (0,0);
}
);
layerId = "E14AE757-7134-4DB9-897C-AD248BACE90D";
shapes = (
{
closed = 1;
nodes = (
(306,-31,l),
(233,100,o),
(177,231,o),
(139,364,c),
(451,364,l),
(451,444,l),
(45,444,l),
(73,275,o),
(139,110,o),
(233,-67,c)
);
},
{
closed = 1;
nodes = (
(264,519,o),
(316,573,o),
(316,638,c),
(316,705,o),
(262,757,o),
(197,757,c),
(130,757,o),
(78,703,o),
(78,638,c),
(78,571,o),
(132,519,o),
(197,519,c)
);
},
{
closed = 1;
nodes = (
(161,569,o),
(129,595,o),
(129,638,c),
(129,678,o),
(158,706,o),
(197,706,c),
(237,706,o),
(266,676,o),
(266,638,c),
(266,599,o),
(236,569,o),
(197,569,c)
);
}
);
width = 421;
}
);
},
{
export = 0;
glyphname = _O.medi;
layers = (
{
layerId = "E14AE757-7134-4DB9-897C-AD248BACE90D";
shapes = (
{
closed = 1;
nodes = (
(118,124,o),
(79,166,o),
(79,251,c),
(79,294,o),
(86,332,o),
(99,364,c),
(296,364,l),
(309,332,o),
(316,294,o),
(316,251,c),
(316,209,o),
(306,177,o),
(285,156,c),
(264,134,o),
(235,123,o),
(197,123,c)
);
},
{
closed = 1;
nodes = (
(260,40,o),
(308,59,o),
(343,97,c),
(378,134,o),
(395,185,o),
(395,249,c),
(395,294,o),
(388,333,o),
(373,364,c),
(603,364,l),
(603,444,l),
(0,444,l),
(0,364,l),
(20,364,l),
(7,333,o),
(0,294,o),
(0,249,c),
(3,110,o),
(69,40,o),
(197,40,c)
);
}
);
width = 573;
}
);
},
{
export = 0;
glyphname = _O.fina;
layers = (
{
layerId = "E14AE757-7134-4DB9-897C-AD248BACE90D";
shapes = (
{
closed = 1;
nodes = (
(118,124,o),
(79,166,o),
(79,251,c),
(79,294,o),
(86,332,o),
(99,364,c),
(294,364,l),
(309,331,o),
(316,293,o),
(316,251,c),
(316,209,o),
(306,177,o),
(285,156,c),
(264,134,o),
(235,123,o),
(197,123,c)
);
},
{
closed = 1;
nodes = (
(260,40,o),
(308,59,o),
(343,97,c),
(378,134,o),
(395,185,o),
(395,249,c),
(395,282,o),
(391,316,o),
(383,351,c),
(375,385,o),
(363,416,o),
(348,444,c),
(0,444,l),
(0,364,l),
(20,364,l),
(7,333,o),
(0,294,o),
(0,249,c),
(3,110,o),
(69,40,o),
(197,40,c)
);
}
);
width = 440;
}
);
},
{
export = 0;
glyphname = _Oh.medi;
layers = (
{
anchors = (
{
name = baluda;
pos = (0,0);
},
{
name = dagalga;
pos = (0,0);
}
);
layerId = "E14AE757-7134-4DB9-897C-AD248BACE90D";
shapes = (
{
closed = 1;
nodes = (
(324,40,o),
(395,123,o),
(395,249,c),
(395,293,o),
(388,331,o),
(373,364,c),
(603,364,l),
(603,444,l),
(0,444,l),
(0,364,l),
(20,364,l),
(7,333,o),
(0,294,o),
(0,249,c),
(0,117,o),
(68,40,o),
(197,40,c)
);
},
{
closed = 1;
nodes = (
(118,123,o),
(79,166,o),
(79,251,c),
(79,295,o),
(86,333,o),
(99,364,c),
(296,364,l),
(309,333,o),
(316,295,o),
(316,251,c),
(316,166,o),
(271,123,o),
(197,123,c)
);
},
{
closed = 1;
nodes = (
(162,527,l),
(195,562,o),
(241,600,o),
(301,643,c),
(240,712,l),
(201,673,o),
(161,625,o),
(119,566,c)
);
}
);
width = 573;
}
);
},
{
export = 0;
glyphname = _Oh.fina;
layers = (
{
anchors = (
{
name = baluda;
pos = (0,0);
},
{
name = dagalga;
pos = (0,0);
}
);
layerId = "E14AE757-7134-4DB9-897C-AD248BACE90D";
shapes = (
{
closed = 1;
nodes = (
(324,40,o),
(395,123,o),
(395,249,c),
(395,314,o),
(378,388,o),
(348,444,c),
(0,444,l),
(0,364,l),
(20,364,l),
(7,333,o),
(0,294,o),
(0,249,c),
(0,116,o),
(69,40,o),
(197,40,c)
);
},
{
closed = 1;
nodes = (
(118,123,o),
(79,166,o),
(79,251,c),
(79,295,o),
(86,333,o),
(99,364,c),
(294,364,l),
(309,330,o),
(316,292,o),
(316,251,c),
(316,166,o),
(271,123,o),
(197,123,c)
);
},
{
closed = 1;
nodes = (
(162,527,l),
(195,562,o),
(241,600,o),
(301,643,c),
(240,712,l),
(201,673,o),
(161,625,o),
(119,566,c)
);
}
);
width = 440;
}
);
},
{
export = 0;
glyphname = _U.fina;
layers = (
{
layerId = "E14AE757-7134-4DB9-897C-AD248BACE90D";
shapes = (
{
closed = 1;
nodes = (
(127,123,o),
(81,203,o),
(78,364,c),
(316,364,l),
(323,344,o),
(326,314,o),
(326,275,c),
(326,230,o),
(317,194,o),
(299,166,c),
(280,137,o),
(253,123,o),
(218,123,c)
);
},
{
closed = 1;
nodes = (
(294,40,o),
(347,78,o),
(382,153,c),
(397,188,o),
(405,229,o),
(405,275,c),
(405,296,o),
(403,325,o),
(398,362,c),
(393,398,o),
(388,425,o),
(382,444,c),
(78,444,l),
(81,546,o),
(113,620,o),
(174,666,c),
(205,688,o),
(243,699,o),
(289,699,c),
(334,699,o),
(372,687,o),
(403,662,c),
(434,637,o),
(459,602,o),
(477,557,c),
(494,513,o),
(505,464,o),
(509,409,c),
(589,419,l),
(582,520,o),
(552,605,o),
(501,675,c),
(447,746,o),
(376,782,o),
(289,782,c),
(226,782,o),
(172,766,o),
(129,735,c),
(86,704,o),
(53,659,o),
(31,601,c),
(10,544,o),
(-1,480,o),
(-1,408,c),
(-2,163,o),
(73,40,o),
(225,40,c)
);
}
);
width = 634;
}
);
},
{
export = 0;
glyphname = _Uh.fina;
layers = (
{
anchors = (
{
name = baluda;
pos = (0,0);
},
{
name = dagalga;
pos = (0,0);
}
);
layerId = "E14AE757-7134-4DB9-897C-AD248BACE90D";
shapes = (
{
closed = 1;
nodes = (
(331,40,o),
(405,137,o),
(405,275,c),
(405,316,o),
(395,403,o),
(382,444,c),
(78,444,l),
(82,592,o),
(151,699,o),
(289,699,c),
(427,699,o),
(496,573,o),
(509,409,c),
(589,419,l),
(575,616,o),
(469,782,o),
(289,782,c),
(95,782,o),
(-1,624,o),
(-1,408,c),
(-1,164,o),
(71,40,o),
(225,40,c)
);
},
{
closed = 1;
nodes = (
(127,123,o),
(81,203,o),
(78,364,c),
(316,364,l),
(323,343,o),
(326,313,o),
(326,275,c),
(326,190,o),
(291,123,o),
(218,123,c)
);
},
{
closed = 1;
nodes = (
(66,807,l),
(99,842,o),
(145,880,o),
(205,923,c),
(144,992,l),
(105,953,o),
(65,905,o),
(23,846,c)
);
}
);
width = 634;
}
);
},
{
export = 0;
glyphname = _Ue.fina;
layers = (
{
layerId = "E14AE757-7134-4DB9-897C-AD248BACE90D";
shapes = (
{
closed = 1;
nodes = (
(118,124,o),
(79,166,o),
(79,251,c),
(79,294,o),
(86,332,o),
(99,364,c),
(296,364,l),
(309,332,o),
(316,294,o),
(316,251,c),
(316,209,o),
(306,177,o),
(285,156,c),
(264,134,o),
(235,123,o),
(197,123,c)
);
},
{
closed = 1;
nodes = (
(260,40,o),
(308,59,o),
(343,97,c),
(378,134,o),
(395,185,o),
(395,249,c),
(395,294,o),
(388,333,o),
(373,364,c),
(523,364,l),
(558,364,o),
(583,357,o),
(598,343,c),
(613,328,o),
(621,307,o),
(621,279,c),
(621,235,o),
(614,196,o),
(599,162,c),
(673,162,l),
(690,197,o),
(698,236,o),
(698,279,c),
(699,389,o),
(640,444,o),
(523,444,c),
(0,444,l),
(0,364,l),
(20,364,l),
(7,333,o),
(0,294,o),
(0,249,c),
(3,110,o),
(69,40,o),
(197,40,c)
);
}
);
width = 743;
}
);
},
{
export = 0;
glyphname = _N.init;
layers = (
{
anchors = (
{
name = baluda;
pos = (0,0);
},
{
name = dagalga;
pos = (0,0);
}
);
layerId = "E14AE757-7134-4DB9-897C-AD248BACE90D";
shapes = (
{
closed = 1;
nodes = (
(226,74,l),
(292,74,l),
(302,219,l),
(310,329,o),
(337,364,o),
(445,364,c),
(522,364,l),
(522,444,l),
(444,444,l),
(360,444,o),
(307,416,o),
(285,361,c),
(281,361,l),
(278,445,l),
(273,575,o),
(248,653,o),
(139,653,c),
(100,653,o),
(57,643,o),
(10,623,c),
(10,550,l),
(52,567,o),
(88,575,o),
(118,575,c),
(180,575,o),
(194,522,o),
(200,437,c)
);
},
{
closed = 1;
nodes = (
(262,-163,l),
(295,-128,o),
(341,-90,o),
(401,-47,c),
(340,22,l),
(301,-17,o),
(261,-65,o),
(219,-124,c)
);
}
);
width = 492;
}
);
},
{
export = 0;
glyphname = _N.medi;
layers = (
{
layerId = "E14AE757-7134-4DB9-897C-AD248BACE90D";
shapes = (
{
closed = 1;
nodes = (
(45,-163,l),
(80,-127,o),
(126,-88,o),
(184,-47,c),
(123,22,l),
(84,-17,o),
(43,-66,o),
(2,-124,c)
);
},
{
closed = 1;
nodes = (
(85,96,l),
(104,364,l),
(314,364,l),
(314,444,l),
(0,444,l),
(0,364,l),
(19,96,l)
);
}
);
width = 284;
}
);
},
{
export = 0;
glyphname = _N.fina;
layers = (
{
layerId = "E14AE757-7134-4DB9-897C-AD248BACE90D";
shapes = (
{
closed = 1;
nodes = (
(182,-185,l),
(217,-149,o),
(263,-110,o),
(321,-69,c),
(260,0,l),
(221,-39,o),
(180,-88,o),
(139,-146,c)
);
},
{
closed = 1;
nodes = (
(228,156,l),
(228,297,o),
(244,428,o),
(277,547,c),
(308,664,o),
(355,761,o),
(417,836,c),
(325,836,l),
(273,768,o),
(231,674,o),
(199,555,c),
(167,435,o),
(151,302,o),
(151,156,c),
(94,189,o),
(60,245,o),
(49,323,c),
(44,360,o),
(41,400,o),
(41,444,c),
(-33,444,l),
(-33,364,l),
(-33,257,o),
(8,170,o),
(89,103,c),
(128,73,o),
(175,56,o),
(228,53,c)
);
}
);
width = 427;
}
);
},
{
export = 0;
glyphname = _B.init;
layers = (
{
layerId = "E14AE757-7134-4DB9-897C-AD248BACE90D";
shapes = (
{
closed = 1;
nodes = (
(173,123,o),
(127,203,o),
(124,364,c),
(362,364,l),
(369,346,o),
(372,316,o),
(372,275,c),
(372,230,o),
(363,194,o),
(345,166,c),
(326,137,o),
(299,123,o),
(264,123,c)
);
},
{
closed = 1;
nodes = (
(342,40,o),
(394,78,o),
(428,154,c),
(443,190,o),
(451,230,o),
(451,275,c),
(451,295,o),
(449,324,o),
(444,361,c),
(439,398,o),
(434,425,o),
(428,444,c),
(124,444,l),
(126,545,o),
(158,619,o),
(220,666,c),
(252,688,o),
(290,699,o),
(335,699,c),
(402,699,o),
(455,670,o),
(494,611,c),
(533,552,o),
(554,470,o),
(557,364,c),
(631,364,l),
(631,476,o),
(606,574,o),
(557,657,c),
(503,740,o),
(429,782,o),
(335,782,c),
(272,782,o),
(218,766,o),
(175,735,c),
(132,704,o),
(99,659,o),
(77,601,c),
(56,544,o),
(45,480,o),
(45,408,c),
(44,163,o),
(120,40,o),
(273,40,c)
);
}
);
width = 557;
}
);
},
{
export = 0;
glyphname = _B.medi;
layers = (
{
layerId = "E14AE757-7134-4DB9-897C-AD248BACE90D";
shapes = (
{
closed = 1;
nodes = (
(127,123,o),
(81,203,o),
(78,364,c),
(316,364,l),
(323,346,o),
(326,316,o),
(326,275,c),
(326,230,o),
(317,194,o),
(299,166,c),
(280,137,o),
(253,123,o),
(218,123,c)
);
},
{
closed = 1;
nodes = (
(296,40,o),
(348,78,o),
(382,154,c),
(397,190,o),
(405,230,o),
(405,275,c),
(405,295,o),
(403,324,o),
(398,361,c),
(393,398,o),
(388,425,o),
(382,444,c),
(78,444,l),
(80,545,o),
(112,619,o),
(174,666,c),
(206,688,o),
(244,699,o),
(289,699,c),
(356,699,o),
(409,670,o),
(448,611,c),
(487,552,o),
(508,470,o),
(511,364,c),
(585,364,l),
(585,476,o),
(560,574,o),
(511,657,c),
(457,740,o),
(383,782,o),
(289,782,c),
(226,782,o),
(172,766,o),
(129,735,c),
(86,704,o),
(53,659,o),
(31,601,c),
(10,544,o),
(-1,480,o),
(-1,408,c),
(-2,163,o),
(74,40,o),
(227,40,c)
);
}
);
width = 511;
}
);
},
{
export = 0;
glyphname = _B.fina;
layers = (
{
layerId = "E14AE757-7134-4DB9-897C-AD248BACE90D";
shapes = (
{
closed = 1;
nodes = (
(127,123,o),
(81,203,o),
(78,364,c),
(316,364,l),
(323,344,o),
(326,314,o),
(326,275,c),
(326,230,o),
(317,194,o),
(299,166,c),
(280,137,o),
(253,123,o),
(218,123,c)
);
},
{
closed = 1;
nodes = (
(479,-264,l),
(465,-237,o),
(458,-212,o),
(458,-187,c),
(458,-143,o),
(469,-104,o),
(492,-71,c),
(503,-52,o),
(518,-31,o),
(536,-7,c),
(610,90,o),
(659,176,o),
(682,252,c),
(695,295,o),
(702,340,o),
(702,388,c),
(702,551,o),
(647,667,o),
(537,735,c),
(484,766,o),
(419,782,o),
(344,782,c),
(197,782,o),
(96,724,o),
(39,608,c),
(12,552,o),
(-1,485,o),
(-1,408,c),
(-2,163,o),
(73,40,o),
(225,40,c),
(293,40,o),
(345,78,o),
(382,153,c),
(397,188,o),
(405,229,o),
(405,275,c),
(405,296,o),
(403,325,o),
(398,362,c),
(393,398,o),
(388,425,o),
(382,444,c),
(78,444,l),
(81,525,o),
(105,588,o),
(152,633,c),
(199,677,o),
(263,699,o),
(344,699,c),
(433,699,o),
(501,672,o),
(550,617,c),
(599,562,o),
(623,486,o),
(623,388,c),
(623,304,o),
(603,230,o),
(562,165,c),
(541,130,o),
(515,91,o),
(484,50,c),
(447,3,o),
(421,-38,o),
(404,-73,c),
(387,-109,o),
(378,-147,o),
(378,-187,c),
(378,-214,o),
(384,-239,o),
(397,-264,c)
);
}
);
width = 747;
}
);
},
{
export = 0;
glyphname = _Pb.init;
layers = (
{
anchors = (
{
name = baluda;
pos = (0,0);
},
{
name = dagalga;
pos = (0,0);
}
);
layerId = "E14AE757-7134-4DB9-897C-AD248BACE90D";
shapes = (
{
closed = 1;
nodes = (
(374,40,o),
(451,135,o),
(451,275,c),
(451,312,o),
(440,410,o),
(428,444,c),
(124,444,l),
(129,585,o),
(167,650,o),
(241,650,c),
(292,650,o),
(325,627,o),
(356,571,c),
(388,627,o),
(417,650,o),
(466,650,c),
(552,650,o),
(593,562,o),
(593,364,c),
(667,364,l),
(667,608,o),
(596,733,o),
(466,733,c),
(417,733,o),
(387,715,o),
(356,680,c),
(326,715,o),
(288,733,o),
(241,733,c),
(111,733,o),
(45,617,o),
(45,408,c),
(45,162,o),
(118,40,o),
(272,40,c)
);
},
{
closed = 1;
nodes = (
(173,123,o),
(126,203,o),
(124,364,c),
(362,364,l),
(369,345,o),
(372,315,o),
(372,275,c),
(372,190,o),
(337,123,o),
(264,123,c)
);
}
);
width = 593;
}
);
},
{
export = 0;
glyphname = _Pb.medi;
layers = (
{
anchors = (
{
name = baluda;
pos = (0,0);
},
{
name = dagalga;
pos = (0,0);
}
);
layerId = "E14AE757-7134-4DB9-897C-AD248BACE90D";
shapes = (
{
closed = 1;
nodes = (
(328,40,o),
(405,135,o),
(405,275,c),
(405,312,o),
(394,410,o),
(382,444,c),
(78,444,l),
(83,585,o),
(121,650,o),
(195,650,c),
(246,650,o),
(279,627,o),
(310,571,c),
(342,627,o),
(371,650,o),
(420,650,c),
(506,650,o),
(547,562,o),
(547,364,c),
(621,364,l),
(621,608,o),
(550,733,o),
(420,733,c),
(371,733,o),
(341,715,o),
(310,680,c),
(280,715,o),
(242,733,o),
(195,733,c),
(65,733,o),
(-1,617,o),
(-1,408,c),
(-1,162,o),
(72,40,o),
(226,40,c)
);
},
{
closed = 1;
nodes = (
(127,123,o),
(80,203,o),
(78,364,c),
(316,364,l),
(323,345,o),
(326,315,o),
(326,275,c),
(326,190,o),
(291,123,o),
(218,123,c)
);
}
);
width = 547;
}
);
},
{
export = 0;
glyphname = _H.init;
layers = (
{
layerId = "E14AE757-7134-4DB9-897C-AD248BACE90D";
shapes = (
{
closed = 1;
nodes = (
(299,96,l),
(289,268,o),
(258,377,o),
(206,423,c),
(210,496,o),
(226,552,o),
(253,589,c),
(280,626,o),
(316,644,o),
(362,644,c),
(413,644,o),
(450,623,o),
(475,580,c),
(500,537,o),
(512,470,o),
(512,378,c),
(512,285,o),
(506,191,o),
(495,96,c),
(573,96,l),
(587,192,o),
(594,281,o),
(594,364,c),
(818,364,l),
(818,444,l),
(591,444,l),
(574,633,o),
(497,727,o),
(362,727,c),
(271,727,o),
(206,682,o),
(165,593,c),
(146,551,o),
(134,504,o),
(129,451,c),
(96,450,o),
(68,444,o),
(45,433,c),
(45,353,l),
(62,362,o),
(84,366,o),
(112,366,c),
(149,366,o),
(175,342,o),
(189,294,c),
(204,246,o),
(214,180,o),
(221,96,c)
);
}
);
width = 788;
}
);
},
{
export = 0;
glyphname = _H.medi;
layers = (
{
layerId = "E14AE757-7134-4DB9-897C-AD248BACE90D";
shapes = (
{
closed = 1;
nodes = (
(85,96,l),
(104,364,l),
(284,364,l),
(303,96,l),
(369,96,l),
(388,364,l),
(598,364,l),
(598,444,l),
(0,444,l),
(0,364,l),
(19,96,l)
);
}
);
width = 568;
}
);
},
{
export = 0;
glyphname = _Hh.init;
layers = (
{
anchors = (
{
name = baluda;
pos = (0,0);
},
{
name = dagalga;
pos = (0,0);
}
);
layerId = "E14AE757-7134-4DB9-897C-AD248BACE90D";
shapes = (
{
closed = 1;
nodes = (
(299,96,l),
(289,268,o),
(258,377,o),
(206,423,c),
(214,574,o),
(272,644,o),
(362,644,c),
(462,644,o),
(512,563,o),
(512,378,c),
(512,279,o),
(506,185,o),
(495,96,c),
(573,96,l),
(587,192,o),
(594,281,o),
(594,364,c),
(818,364,l),
(818,444,l),
(591,444,l),
(573,633,o),
(497,727,o),
(362,727,c),
(222,727,o),
(142,609,o),
(129,451,c),
(96,450,o),
(68,444,o),
(45,433,c),
(45,353,l),
(62,362,o),
(84,366,o),
(112,366,c),
(192,366,o),
(210,233,o),
(221,96,c)
);
},
{
closed = 1;
nodes = (
(669,547,l),
(702,582,o),
(748,620,o),
(808,663,c),
(747,732,l),
(708,693,o),
(668,645,o),
(626,586,c)
);
}
);
width = 788;
}
);
},
{
export = 0;
glyphname = _Hh.medi;
layers = (
{
anchors = (
{
name = baluda;
pos = (0,0);
},
{
name = dagalga;
pos = (0,0);
}
);
layerId = "E14AE757-7134-4DB9-897C-AD248BACE90D";
shapes = (
{
closed = 1;
nodes = (
(305,527,l),
(338,562,o),
(384,600,o),
(444,643,c),
(383,712,l),
(344,673,o),
(304,625,o),
(262,566,c)
);
},
{
closed = 1;
nodes = (
(85,96,l),
(104,364,l),
(284,364,l),
(303,96,l),
(369,96,l),
(388,364,l),
(598,364,l),
(598,444,l),
(0,444,l),
(0,364,l),
(19,96,l)
);
}
);
width = 568;
}
);
},
{
export = 0;
glyphname = _Hc.init;
layers = (
{
anchors = (
{
name = baluda;
pos = (0,0);
},
{
name = dagalga;
pos = (0,0);
}
);
layerId = "E14AE757-7134-4DB9-897C-AD248BACE90D";
shapes = (
{
closed = 1;
nodes = (
(299,96,l),
(289,268,o),
(258,377,o),
(206,423,c),
(214,574,o),
(272,644,o),
(362,644,c),
(462,644,o),
(512,563,o),
(512,378,c),
(512,279,o),
(506,185,o),
(495,96,c),
(573,96,l),
(587,192,o),
(594,281,o),
(594,364,c),
(917,364,l),
(917,444,l),
(591,444,l),
(573,633,o),
(497,727,o),
(362,727,c),
(222,727,o),
(142,609,o),
(129,451,c),
(96,450,o),
(68,444,o),
(45,433,c),
(45,353,l),
(62,362,o),
(84,366,o),
(112,366,c),
(192,366,o),
(210,233,o),
(221,96,c)
);
},
{
closed = 1;
nodes = (
(786,519,o),
(838,573,o),
(838,638,c),
(838,705,o),
(784,757,o),
(719,757,c),
(652,757,o),
(600,703,o),
(600,638,c),
(600,572,o),
(654,519,o),
(719,519,c)
);
},
{
closed = 1;
nodes = (
(683,569,o),
(651,595,o),
(651,638,c),
(651,678,o),
(680,706,o),
(719,706,c),
(759,706,o),
(788,676,o),
(788,638,c),
(788,599,o),
(758,569,o),
(719,569,c)
);
}
);
width = 887;
}
);
},
{
export = 0;
glyphname = _Hc.medi;
layers = (
{
anchors = (
{
name = baluda;
pos = (0,0);
},
{
name = dagalga;
pos = (0,0);
}
);
layerId = "E14AE757-7134-4DB9-897C-AD248BACE90D";
shapes = (
{
closed = 1;
nodes = (
(361,519,o),
(413,573,o),
(413,638,c),
(413,705,o),
(359,757,o),
(294,757,c),
(227,757,o),
(175,703,o),
(175,638,c),
(175,571,o),
(229,519,o),
(294,519,c)
);
},
{
closed = 1;
nodes = (
(258,569,o),
(226,595,o),
(226,638,c),
(226,678,o),
(255,706,o),
(294,706,c),
(334,706,o),
(363,676,o),
(363,638,c),
(363,599,o),
(333,569,o),
(294,569,c)
);
},
{
closed = 1;
nodes = (
(85,96,l),
(104,364,l),
(284,364,l),
(303,96,l),
(369,96,l),
(388,364,l),
(598,364,l),
(598,444,l),
(0,444,l),
(0,364,l),
(19,96,l)
);
}
);
width = 568;
}
);
},
{
export = 0;
glyphname = _Hx.medi;
layers = (
{
layerId = "E14AE757-7134-4DB9-897C-AD248BACE90D";
shapes = (
{
closed = 1;
nodes = (
(328,-163,l),
(363,-127,o),
(409,-88,o),
(467,-47,c),
(406,22,l),
(367,-17,o),
(326,-66,o),
(285,-124,c)
);
},
{
closed = 1;
nodes = (
(85,96,l),
(104,364,l),
(284,364,l),
(303,96,l),
(369,96,l),
(388,364,l),
(598,364,l),
(598,444,l),
(0,444,l),
(0,364,l),
(19,96,l)
);
},
{
closed = 1;
nodes = (
(45,-163,l),
(80,-127,o),
(126,-88,o),
(184,-47,c),
(123,22,l),
(84,-17,o),
(43,-66,o),
(2,-124,c)
);
}
);
width = 568;
}
);
},
{
export = 0;
glyphname = _Hx.fina;
layers = (
{
layerId = "E14AE757-7134-4DB9-897C-AD248BACE90D";
shapes = (
{
closed = 1;
nodes = (
(462,-196,l),
(497,-160,o),
(543,-121,o),
(601,-80,c),
(540,-11,l),
(501,-50,o),
(460,-99,o),
(419,-157,c)
);
},
{
closed = 1;
nodes = (
(506,186,l),
(506,277,o),
(515,362,o),
(533,441,c),
(550,520,o),
(579,595,o),
(618,666,c),
(525,666,l),
(460,537,o),
(427,377,o),
(427,188,c),
(386,211,o),
(359,242,o),
(344,283,c),
(329,323,o),
(321,377,o),
(321,444,c),
(0,444,l),
(0,364,l),
(19,96,l),
(85,96,l),
(104,364,l),
(251,364,l),
(251,314,o),
(262,267,o),
(285,223,c),
(307,179,o),
(338,143,o),
(377,115,c),
(416,88,o),
(459,74,o),
(506,74,c)
);
},
{
closed = 1;
nodes = (
(243,-141,l),
(278,-105,o),
(324,-66,o),
(382,-25,c),
(321,44,l),
(282,5,o),
(241,-44,o),
(200,-102,c)
);
}
);
width = 663;
}
);
},
{
export = 0;
glyphname = _G.init;
layers = (
{
anchors = (
{
name = baluda;
pos = (0,0);
},
{
name = dagalga;
pos = (0,0);
}
);
layerId = "E14AE757-7134-4DB9-897C-AD248BACE90D";
shapes = (
{
closed = 1;
nodes = (
(215,112,l),
(158,206,o),
(124,294,o),
(124,400,c),
(124,489,o),
(167,543,o),
(247,543,c),
(319,543,o),
(369,485,o),
(377,364,c),
(451,364,l),
(444,509,o),
(384,626,o),
(247,626,c),
(124,626,o),
(45,537,o),
(45,400,c),
(45,296,o),
(77,186,o),
(141,70,c)
);
}
);
width = 377;
}
);
},
{
export = 0;
glyphname = _G.medi;
layers = (
{
anchors = (
{
name = baluda;
pos = (-47,0);
},
{
name = dagalga;
pos = (-47,0);
}
);
layerId = "E14AE757-7134-4DB9-897C-AD248BACE90D";
shapes = (
{
closed = 1;
nodes = (
(168,112,l),
(111,206,o),
(77,294,o),
(77,400,c),
(77,489,o),
(120,543,o),
(200,543,c),
(272,543,o),
(322,485,o),
(330,364,c),
(404,364,l),
(397,509,o),
(337,626,o),
(200,626,c),
(77,626,o),
(-2,537,o),
(-2,400,c),
(-2,296,o),
(30,186,o),
(94,70,c)
);
}
);
width = 330;
}
);
},
{
export = 0;
glyphname = _G.fina;
layers = (
{
anchors = (
{
name = baluda;
pos = (0,0);
},
{
name = dagalga;
pos = (0,0);
}
);
layerId = "E14AE757-7134-4DB9-897C-AD248BACE90D";
shapes = (
{
closed = 1;
nodes = (
(444,-264,l),
(430,-238,o),
(423,-213,o),
(423,-187,c),
(423,-126,o),
(443,-93,o),
(490,-31,c),
(542,37,o),
(577,91,o),
(595,131,c),
(613,171,o),
(623,209,o),
(623,245,c),
(623,373,o),
(545,444,o),
(392,444,c),
(0,444,l),
(0,364,l),
(37,224,o),
(94,80,o),
(173,-67,c),
(246,-31,l),
(173,100,o),
(117,231,o),
(79,364,c),
(391,364,l),
(498,364,o),
(545,325,o),
(545,245,c),
(545,197,o),
(531,166,o),
(503,120,c),
(488,95,o),
(466,64,o),
(438,28,c),
(382,-44,o),
(343,-108,o),
(343,-187,c),
(343,-216,o),
(349,-242,o),
(362,-264,c)
);
}
);
width = 668;
}
);
},
{
export = 0;
glyphname = _G4.fina;
layers = (
{
anchors = (
{
name = baluda;
pos = (0,0);
},
{
name = dagalga;
pos = (0,0);
}
);
layerId = "E14AE757-7134-4DB9-897C-AD248BACE90D";
shapes = (
{
closed = 1;
nodes = (
(361,-264,l),
(347,-242,o),
(340,-219,o),
(340,-197,c),
(340,-132,o),
(361,-95,o),
(413,-27,c),
(497,83,o),
(543,167,o),
(561,248,c),
(570,288,o),
(575,334,o),
(575,388,c),
(575,588,o),
(475,727,o),
(284,727,c),
(104,727,o),
(-2,601,o),
(-2,407,c),
(-2,306,o),
(30,205,o),
(94,104,c),
(163,147,l),
(109,229,o),
(77,309,o),
(77,407,c),
(77,554,o),
(147,644,o),
(284,644,c),
(422,644,o),
(497,542,o),
(497,388,c),
(497,320,o),
(486,258,o),
(465,204,c),
(444,150,o),
(407,90,o),
(355,23,c),
(292,-58,o),
(260,-112,o),
(260,-197,c),
(260,-223,o),
(266,-246,o),
(279,-264,c)
);
}
);
width = 620;
}
);
},
{
export = 0;
glyphname = _Gh.init;
layers = (
{
anchors = (
{
name = baluda;
pos = (0,0);
},
{
name = dagalga;
pos = (0,0);
}
);
layerId = "E14AE757-7134-4DB9-897C-AD248BACE90D";
shapes = (
{
closed = 1;
nodes = (
(245,85,l),
(161,202,o),
(124,297,o),
(124,407,c),
(124,563,o),
(178,644,o),
(273,644,c),
(378,644,o),
(414,569,o),
(428,364,c),
(502,364,l),
(492,606,o),
(425,727,o),
(273,727,c),
(139,727,o),
(45,612,o),
(45,407,c),
(45,292,o),
(88,171,o),
(174,42,c)
);
},
{
closed = 1;
nodes = (
(285,795,o),
(331,834,o),
(391,877,c),
(330,946,l),
(292,908,o),
(252,859,o),
(209,800,c),
(252,761,l)
);
}
);
width = 428;
}
);
},
{
export = 0;
glyphname = _Gh.medi;
layers = (
{
anchors = (
{
name = baluda;
pos = (0,0);
},
{
name = dagalga;
pos = (0,0);
}
);
layerId = "E14AE757-7134-4DB9-897C-AD248BACE90D";
shapes = (
{
closed = 1;
nodes = (
(198,85,l),
(114,202,o),
(77,297,o),
(77,407,c),
(77,563,o),
(131,644,o),
(226,644,c),
(331,644,o),
(367,569,o),
(381,364,c),
(455,364,l),
(445,606,o),
(378,727,o),
(226,727,c),
(92,727,o),
(-2,612,o),
(-2,407,c),
(-2,292,o),
(41,171,o),
(127,42,c)
);
},
{
closed = 1;
nodes = (
(238,795,o),
(284,834,o),
(344,877,c),
(283,946,l),
(245,908,o),
(205,859,o),
(162,800,c),
(205,761,l)
);
}
);
width = 381;
}
);
},
{
export = 0;
glyphname = _Gc.init;
layers = (
{
anchors = (
{
name = baluda;
pos = (0,0);
},
{
name = dagalga;
pos = (0,0);
}
);
layerId = "E14AE757-7134-4DB9-897C-AD248BACE90D";
shapes = (
{
closed = 1;
nodes = (
(237,834,o),
(209,864,o),
(209,903,c),
(209,945,o),
(239,971,o),
(277,971,c),
(317,971,o),
(346,942,o),
(346,903,c),
(346,865,o),
(316,834,o),
(277,834,c)
);
},
{
closed = 1;
nodes = (
(245,85,l),
(161,202,o),
(124,297,o),
(124,407,c),
(124,563,o),
(178,644,o),
(273,644,c),
(378,644,o),
(414,569,o),
(428,364,c),
(502,364,l),
(492,606,o),
(425,727,o),
(273,727,c),
(139,727,o),
(45,612,o),
(45,407,c),
(45,292,o),
(88,171,o),
(174,42,c)
);
},
{
closed = 1;
nodes = (
(347,784,o),
(396,841,o),
(396,903,c),
(396,969,o),
(343,1022,o),
(277,1022,c),
(211,1022,o),
(158,969,o),
(158,903,c),
(158,841,o),
(207,784,o),
(277,784,c)
);
}
);
width = 428;
}
);
},
{
export = 0;
glyphname = _Gc.medi;
layers = (
{
anchors = (
{
name = baluda;
pos = (0,0);
},
{
name = dagalga;
pos = (0,0);
}
);
layerId = "E14AE757-7134-4DB9-897C-AD248BACE90D";
shapes = (
{
closed = 1;
nodes = (
(190,834,o),
(162,864,o),
(162,903,c),
(162,945,o),
(192,971,o),
(230,971,c),
(270,971,o),
(299,942,o),
(299,903,c),
(299,865,o),
(269,834,o),
(230,834,c)
);
},
{
closed = 1;
nodes = (
(198,85,l),
(114,202,o),
(77,297,o),
(77,407,c),
(77,563,o),
(131,644,o),
(226,644,c),
(331,644,o),
(367,569,o),
(381,364,c),
(455,364,l),
(445,606,o),
(378,727,o),
(226,727,c),
(92,727,o),
(-2,612,o),
(-2,407,c),
(-2,292,o),
(41,171,o),
(127,42,c)
);
},
{
closed = 1;
nodes = (
(300,784,o),
(349,841,o),
(349,903,c),
(349,969,o),
(296,1022,o),
(230,1022,c),
(164,1022,o),
(111,969,o),
(111,903,c),
(111,841,o),
(160,784,o),
(230,784,c)
);
}
);
width = 381;
}
);
},
{
export = 0;
glyphname = _Gx.init;
layers = (
{
anchors = (
{
name = baluda;
pos = (0,0);
},
{
name = dagalga;
pos = (0,0);
}
);
layerId = "E14AE757-7134-4DB9-897C-AD248BACE90D";
shapes = (
{
closed = 1;
nodes = (
(196,-11,l),
(157,-50,o),
(117,-98,o),
(75,-157,c),
(118,-196,l),
(151,-162,o),
(197,-123,o),
(257,-80,c)
);
},
{
closed = 1;
nodes = (
(411,-11,l),
(373,-50,o),
(333,-98,o),
(290,-157,c),
(333,-196,l),
(366,-162,o),
(412,-123,o),
(472,-80,c)
);
},
{
closed = 1;
nodes = (
(215,112,l),
(158,206,o),
(124,294,o),
(124,400,c),
(124,489,o),
(167,543,o),
(247,543,c),
(319,543,o),
(369,485,o),
(377,364,c),
(451,364,l),
(444,509,o),
(384,626,o),
(247,626,c),
(124,626,o),
(45,537,o),
(45,400,c),
(45,296,o),
(77,186,o),
(141,70,c)
);
}
);
width = 378;
}
);
},
{
export = 0;
glyphname = _Gx.medi;
layers = (
{
anchors = (
{
name = baluda;
pos = (-47,0);
},
{
name = dagalga;
pos = (-47,0);
}
);
layerId = "E14AE757-7134-4DB9-897C-AD248BACE90D";
shapes = (
{
closed = 1;
nodes = (
(149,-11,l),
(110,-50,o),
(70,-98,o),
(28,-157,c),
(71,-196,l),
(104,-162,o),
(150,-123,o),
(210,-80,c)
);
},
{
closed = 1;
nodes = (
(364,-11,l),
(326,-50,o),
(286,-98,o),
(243,-157,c),
(286,-196,l),
(319,-162,o),
(365,-123,o),
(425,-80,c)
);
},
{
closed = 1;
nodes = (
(168,112,l),
(111,206,o),
(77,294,o),
(77,400,c),
(77,489,o),
(120,543,o),
(200,543,c),
(272,543,o),
(322,485,o),
(330,364,c),
(404,364,l),
(397,509,o),
(337,626,o),
(200,626,c),
(77,626,o),
(-2,537,o),
(-2,400,c),
(-2,296,o),
(30,186,o),
(94,70,c)
);
}
);
width = 331;
}
);
},
{
export = 0;
glyphname = _Gx.fina;
layers = (
{
anchors = (
{
name = baluda;
pos = (0,0);
},
{
name = dagalga;
pos = (0,0);
}
);
layerId = "E14AE757-7134-4DB9-897C-AD248BACE90D";
shapes = (
{
closed = 1;
nodes = (
(341,-264,l),
(329,-249,o),
(320,-226,o),
(320,-207,c),
(320,-141,o),
(347,-95,o),
(403,-27,c),
(448,28,o),
(481,79,o),
(506,123,c),
(556,211,o),
(575,278,o),
(575,378,c),
(575,583,o),
(475,727,o),
(284,727,c),
(104,727,o),
(-2,601,o),
(-2,407,c),
(-2,336,o),
(13,265,o),
(44,192,c),
(119,225,l),
(93,286,o),
(77,341,o),
(77,407,c),
(77,554,o),
(147,644,o),
(284,644,c),
(423,644,o),
(497,533,o),
(497,378,c),
(497,290,o),
(481,232,o),
(438,154,c),
(418,118,o),
(388,77,o),
(350,30,c),
(282,-55,o),
(240,-118,o),
(240,-207,c),
(240,-228,o),
(247,-247,o),
(259,-264,c)
);
},
{
closed = 1;
nodes = (
(51,-3,l),
(86,34,o),
(132,73,o),
(190,113,c),
(129,182,l),
(89,142,o),
(48,93,o),
(8,36,c)
);
},
{
closed = 1;
nodes = (
(262,69,l),
(296,105,o),
(342,144,o),
(401,185,c),
(340,254,l),
(300,214,o),
(260,165,o),
(219,108,c)
);
}
);
width = 620;
}
);
},
{
export = 0;
glyphname = _M.init;
layers = (
{
layerId = "E14AE757-7134-4DB9-897C-AD248BACE90D";
shapes = (
{
closed = 1;
nodes = (
(226,74,l),
(292,74,l),
(302,219,l),
(305,291,o),
(325,335,o),
(361,350,c),
(380,359,o),
(408,364,o),
(445,364,c),
(522,364,l),
(522,444,l),
(444,444,l),
(360,444,o),
(307,416,o),
(285,361,c),
(281,361,l),
(281,504,o),
(264,614,o),
(229,693,c),
(265,693,l),
(320,693,o),
(360,696,o),
(383,701,c),
(406,706,o),
(427,716,o),
(444,731,c),
(444,808,l),
(430,798,o),
(409,789,o),
(380,782,c),
(355,776,o),
(317,773,o),
(265,773,c),
(144,773,l),
(144,716,l),
(163,699,o),
(178,675,o),
(189,646,c),
(174,651,o),
(157,653,o),
(139,653,c),
(100,653,o),
(57,643,o),
(10,623,c),
(10,550,l),
(51,567,o),
(87,575,o),
(118,575,c),
(147,575,o),
(168,564,o),
(180,542,c),
(191,519,o),
(198,484,o),
(200,437,c)
);
}
);
width = 492;
}
);
},
{
export = 0;
glyphname = _M.medi;
layers = (
{
layerId = "E14AE757-7134-4DB9-897C-AD248BACE90D";
shapes = (
{
closed = 1;
nodes = (
(85,96,l),
(104,364,l),
(314,364,l),
(314,444,l),
(84,444,l),
(81,518,o),
(71,583,o),
(54,639,c),
(90,639,l),
(137,639,o),
(174,641,o),
(201,646,c),
(228,651,o),
(250,661,o),
(269,677,c),
(269,754,l),
(234,731,o),
(174,719,o),
(90,719,c),
(-31,719,l),
(-31,653,l),
(-1,585,o),
(14,515,o),
(14,444,c),
(0,444,l),
(0,364,l),
(19,96,l)
);
}
);
width = 284;
}
);
},
{
export = 0;
glyphname = _M.fina;
layers = (
{
layerId = "E14AE757-7134-4DB9-897C-AD248BACE90D";
shapes = (
{
closed = 1;
nodes = (
(270,186,l),
(270,326,o),
(295,447,o),
(345,549,c),
(371,604,o),
(404,660,o),
(445,718,c),
(346,718,l),
(243,577,o),
(191,399,o),
(191,183,c),
(130,216,o),
(94,263,o),
(83,325,c),
(76,358,o),
(71,400,o),
(70,449,c),
(69,513,o),
(62,565,o),
(49,606,c),
(89,606,o),
(122,609,o),
(148,614,c),
(174,619,o),
(196,629,o),
(213,644,c),
(213,722,l),
(184,698,o),
(128,686,o),
(45,686,c),
(-27,686,l),
(-27,620,l),
(-9,564,o),
(0,507,o),
(0,449,c),
(0,364,l),
(0,313,o),
(12,266,o),
(36,223,c),
(59,179,o),
(92,143,o),
(133,116,c),
(174,89,o),
(219,75,o),
(270,74,c)
);
}
);
width = 455;
}
);
},
{
export = 0;
glyphname = _L.init;
layers = (
{
layerId = "E14AE757-7134-4DB9-897C-AD248BACE90D";
shapes = (
{
closed = 1;
nodes = (
(226,74,l),
(292,74,l),
(302,219,l),
(305,293,o),
(324,337,o),
(361,351,c),
(381,360,o),
(409,364,o),
(445,364,c),
(522,364,l),
(522,444,l),
(444,444,l),
(360,444,o),
(307,416,o),
(285,361,c),
(281,361,l),
(278,445,l),
(276,500,o),
(270,543,o),
(259,573,c),
(265,634,o),
(292,699,o),
(339,766,c),
(339,832,l),
(219,832,l),
(177,832,o),
(142,834,o),
(114,839,c),
(85,843,o),
(60,853,o),
(39,868,c),
(39,790,l),
(57,775,o),
(80,765,o),
(108,760,c),
(135,755,o),
(172,752,o),
(219,752,c),
(247,752,l),
(228,723,o),
(212,686,o),
(200,642,c),
(181,649,o),
(161,653,o),
(139,653,c),
(100,653,o),
(57,643,o),
(10,623,c),
(10,550,l),
(51,567,o),
(87,575,o),
(118,575,c),
(147,575,o),
(168,564,o),
(179,541,c),
(190,518,o),
(197,484,o),
(200,437,c)
);
}
);
width = 492;
}
);
},
{
export = 0;
glyphname = _L.medi;
layers = (
{
layerId = "E14AE757-7134-4DB9-897C-AD248BACE90D";
shapes = (
{
closed = 1;
nodes = (
(85,96,l),
(104,364,l),
(314,364,l),
(314,444,l),
(86,444,l),
(88,512,o),
(109,582,o),
(148,653,c),
(148,719,l),
(28,719,l),
(-15,719,o),
(-50,721,o),
(-77,726,c),
(-104,730,o),
(-129,740,o),
(-152,755,c),
(-152,677,l),
(-134,662,o),
(-111,652,o),
(-84,647,c),
(-57,642,o),
(-19,639,o),
(28,639,c),
(62,639,l),
(35,581,o),
(19,516,o),
(16,444,c),
(0,444,l),
(0,364,l),
(19,96,l)
);
}
);
width = 284;
}
);
},
{
export = 0;
glyphname = _L.fina;
layers = (
{
layerId = "E14AE757-7134-4DB9-897C-AD248BACE90D";
shapes = (
{
closed = 1;
nodes = (
(244,157,l),
(244,250,o),
(251,337,o),
(266,418,c),
(281,499,o),
(305,578,o),
(338,653,c),
(338,714,l),
(162,714,l),
(113,714,o),
(78,716,o),
(55,721,c),
(28,727,o),
(4,737,o),
(-18,750,c),
(-18,672,l),
(0,657,o),
(21,647,o),
(46,642,c),
(71,637,o),
(110,634,o),
(162,634,c),
(240,634,l),
(190,503,o),
(165,345,o),
(165,159,c),
(104,194,o),
(68,249,o),
(57,324,c),
(51,361,o),
(48,401,o),
(48,444,c),
(-33,444,l),
(-33,364,l),
(-33,309,o),
(-21,257,o),
(3,210,c),
(27,162,o),
(60,123,o),
(103,93,c),
(145,63,o),
(192,47,o),
(244,45,c)
);
}
);
width = 383;
}
);
},
{
export = 0;
glyphname = _S.init;
layers = (
{
layerId = "E14AE757-7134-4DB9-897C-AD248BACE90D";
shapes = (
{
closed = 1;
nodes = (
(519,73,l),
(497,182,o),
(475,279,o),
(454,364,c),
(711,364,l),
(711,444,l),
(433,444,l),
(406,545,o),
(378,642,o),
(349,734,c),
(255,734,l),
(234,609,o),
(216,526,o),
(199,486,c),
(183,447,o),
(160,427,o),
(130,427,c),
(103,427,o),
(75,433,o),
(45,446,c),
(45,371,l),
(74,354,o),
(104,346,o),
(135,346,c),
(174,346,o),
(203,357,o),
(224,379,c),
(245,400,o),
(261,434,o),
(273,480,c),
(286,527,o),
(296,574,o),
(302,620,c),
(306,620,l),
(327,564,o),
(349,486,o),
(374,387,c),
(401,280,o),
(424,176,o),
(443,73,c)
);
}
);
width = 681;
}
);
},
{
export = 0;
glyphname = _S.medi;
layers = (
{
layerId = "E14AE757-7134-4DB9-897C-AD248BACE90D";
shapes = (
{
closed = 1;
nodes = (
(105,73,l),
(97,106,o),
(93,148,o),
(93,199,c),
(93,352,o),
(128,492,o),
(197,617,c),
(201,617,l),
(216,421,o),
(260,240,o),
(334,73,c),
(419,73,l),
(371,172,o),
(336,269,o),
(313,364,c),
(611,364,l),
(611,444,l),
(296,444,l),
(279,535,o),
(271,632,o),
(271,734,c),
(190,734,l),
(127,647,o),
(80,551,o),
(50,444,c),
(0,444,l),
(0,364,l),
(0,303,o),
(5,238,o),
(14,167,c),
(18,133,o),
(23,102,o),
(28,73,c)
);
}
);
width = 581;
}
);
},
{
export = 0;
glyphname = _S.fina;
layers = (
{
layerId = "E14AE757-7134-4DB9-897C-AD248BACE90D";
shapes = (
{
closed = 1;
nodes = (
(105,73,l),
(92,124,o),
(86,191,o),
(86,276,c),
(86,393,o),
(113,506,o),
(166,613,c),
(170,613,l),
(179,519,o),
(197,431,o),
(222,350,c),
(247,269,o),
(283,187,o),
(328,106,c),
(408,106,l),
(447,307,o),
(524,485,o),
(640,642,c),
(543,642,l),
(456,517,o),
(395,378,o),
(358,223,c),
(354,223,l),
(313,309,o),
(283,393,o),
(265,475,c),
(247,559,o),
(238,645,o),
(238,734,c),
(157,734,l),
(96,643,o),
(54,546,o),
(32,444,c),
(0,444,l),
(0,364,l),
(0,277,o),
(9,180,o),
(27,73,c)
);
}
);
width = 685;
}
);
},
{
export = 0;
glyphname = _Sp.init;
layers = (
{
anchors = (
{
name = baluda;
pos = (0,0);
},
{
name = dagalga;
pos = (0,0);
}
);
layerId = "E14AE757-7134-4DB9-897C-AD248BACE90D";
shapes = (
{
closed = 1;
nodes = (
(519,73,l),
(497,178,o),
(477,273,o),
(454,364,c),
(711,364,l),
(711,444,l),
(433,444,l),
(406,545,o),
(378,642,o),
(349,734,c),
(255,734,l),
(234,608,o),
(215,525,o),
(199,486,c),
(183,446,o),
(160,427,o),
(130,427,c),
(104,427,o),
(76,433,o),
(45,446,c),
(45,371,l),
(74,354,o),
(104,346,o),
(135,346,c),
(216,346,o),
(250,394,o),
(273,480,c),
(287,532,o),
(297,579,o),
(302,620,c),
(306,620,l),
(354,488,o),
(408,251,o),
(443,73,c)
);
},
{
closed = 1;
nodes = (
(349,124,l),
(287,184,o),
(197,250,o),
(122,286,c),
(86,228,l),
(158,193,o),
(247,128,o),
(305,70,c)
);
}
);
width = 681;
}
);
},
{
export = 0;
glyphname = _Sp.medi;
layers = (
{
anchors = (
{
name = baluda;
pos = (0,0);
},
{
name = dagalga;
pos = (0,0);
}
);
layerId = "E14AE757-7134-4DB9-897C-AD248BACE90D";
shapes = (
{
closed = 1;
nodes = (
(105,73,l),
(97,106,o),
(93,148,o),
(93,199,c),
(93,350,o),
(123,481,o),
(197,617,c),
(201,617,l),
(217,419,o),
(256,247,o),
(334,73,c),
(419,73,l),
(373,168,o),
(337,265,o),
(313,364,c),
(611,364,l),
(611,444,l),
(296,444,l),
(279,539,o),
(271,636,o),
(271,734,c),
(190,734,l),
(125,645,o),
(79,548,o),
(50,444,c),
(0,444,l),
(0,364,l),
(0,276,o),
(11,159,o),
(28,73,c)
);
},
{
closed = 1;
nodes = (
(359,-156,l),
(323,-121,o),
(285,-90,o),
(245,-62,c),
(205,-34,o),
(167,-11,o),
(132,6,c),
(96,-52,l),
(129,-68,o),
(167,-91,o),
(207,-120,c),
(247,-149,o),
(284,-179,o),
(315,-210,c)
);
}
);
width = 581;
}
);
},
{
export = 0;
glyphname = _Sp.fina;
layers = (
{
anchors = (
{
name = baluda;
pos = (0,0);
},
{
name = dagalga;
pos = (0,0);
}
);
layerId = "E14AE757-7134-4DB9-897C-AD248BACE90D";
shapes = (
{
closed = 1;
nodes = (
(359,-156,l),
(288,-87,o),
(200,-27,o),
(132,6,c),
(96,-52,l),
(163,-85,o),
(255,-150,o),
(315,-210,c)
);
},
{
closed = 1;
nodes = (
(92,124,o),
(86,191,o),
(86,276,c),
(86,403,o),
(115,506,o),
(166,613,c),
(170,613,l),
(187,431,o),
(236,272,o),
(328,106,c),
(408,106,l),
(450,310,o),
(519,476,o),
(640,642,c),
(543,642,l),
(460,523,o),
(396,384,o),
(358,223,c),
(354,223,l),
(270,397,o),
(238,557,o),
(238,734,c),
(157,734,l),
(94,640,o),
(53,543,o),
(32,444,c),
(0,444,l),
(0,310,o),
(2,207,o),
(27,73,c),
(105,73,l)
);
}
);
width = 685;
}
);
},
{
export = 0;
glyphname = _T.init;
layers = (
{
layerId = "E14AE757-7134-4DB9-897C-AD248BACE90D";
shapes = (
{
closed = 1;
nodes = (
(147,444,l),
(132,473,o),
(124,513,o),
(124,563,c),
(124,604,o),
(135,636,o),
(156,659,c),
(177,682,o),
(206,694,o),
(243,694,c),
(288,694,o),
(322,674,o),
(344,634,c),
(366,593,o),
(378,530,o),
(380,444,c)
);
},
{
closed = 1;
nodes = (
(471,96,l),
(490,364,l),
(700,364,l),
(700,444,l),
(460,444,l),
(453,601,o),
(421,700,o),
(362,743,c),
(332,766,o),
(292,777,o),
(243,777,c),
(164,777,o),
(107,742,o),
(70,673,c),
(53,641,o),
(45,604,o),
(45,563,c),
(45,496,o),
(60,430,o),
(91,364,c),
(386,364,l),
(405,96,l)
);
}
);
width = 670;
}
);
},
{
export = 0;
glyphname = _Tb.init;
layers = (
{
anchors = (
{
name = baluda;
pos = (0,0);
},
{
name = dagalga;
pos = (0,0);
}
);
layerId = "E14AE757-7134-4DB9-897C-AD248BACE90D";
shapes = (
{
closed = 1;
nodes = (
(286,444,l),
(253,503,o),
(210,549,o),
(158,581,c),
(205,628,o),
(255,645,o),
(318,645,c),
(412,645,o),
(461,582,o),
(467,444,c)
);
},
{
closed = 1;
nodes = (
(577,364,l),
(787,364,l),
(787,444,l),
(547,444,l),
(539,639,o),
(466,728,o),
(318,728,c),
(230,728,o),
(159,692,o),
(95,621,c),
(95,532,l),
(136,512,o),
(170,483,o),
(197,444,c),
(63,444,l),
(45,364,l),
(473,364,l),
(492,96,l),
(558,96,l)
);
}
);
width = 757;
}
);
},
{
export = 0;
glyphname = _Th.init;
layers = (
{
anchors = (
{
name = baluda;
pos = (0,0);
},
{
name = dagalga;
pos = (0,0);
}
);
layerId = "E14AE757-7134-4DB9-897C-AD248BACE90D";
shapes = (
{
closed = 1;
nodes = (
(471,96,l),
(490,364,l),
(700,364,l),
(700,444,l),
(460,444,l),
(448,680,o),
(388,777,o),
(243,777,c),
(122,777,o),
(45,686,o),
(45,563,c),
(45,497,o),
(61,421,o),
(91,364,c),
(386,364,l),
(405,96,l)
);
},
{
closed = 1;
nodes = (
(147,444,l),
(132,473,o),
(124,512,o),
(124,563,c),
(124,646,o),
(171,694,o),
(243,694,c),
(333,694,o),
(374,616,o),
(380,444,c)
);
},
{
closed = 1;
nodes = (
(551,547,l),
(584,582,o),
(630,620,o),
(690,663,c),
(629,732,l),
(590,693,o),
(550,645,o),
(508,586,c)
);
}
);
width = 670;
}
);
},
{
export = 0;
glyphname = _Tt.init;
layers = (
{
anchors = (
{
name = baluda;
pos = (0,0);
},
{
name = dagalga;
pos = (0,0);
}
);
layerId = "E14AE757-7134-4DB9-897C-AD248BACE90D";
shapes = (
{
closed = 1;
nodes = (
(286,444,l),
(253,503,o),
(210,549,o),
(158,581,c),
(205,628,o),
(255,645,o),
(318,645,c),
(412,645,o),
(461,582,o),
(467,444,c)
);
},
{
closed = 1;
nodes = (
(577,364,l),
(787,364,l),
(787,444,l),
(547,444,l),
(539,639,o),
(466,728,o),
(318,728,c),
(230,728,o),
(159,692,o),
(95,621,c),
(95,532,l),
(136,512,o),
(170,483,o),
(197,444,c),
(63,444,l),
(45,364,l),
(473,364,l),
(492,96,l),
(558,96,l)
);
},
{
closed = 1;
nodes = (
(671,581,o),
(717,620,o),
(777,663,c),
(716,732,l),
(677,694,o),
(637,645,o),
(595,586,c),
(638,547,l)
);
}
);
width = 757;
}
);
},
{
export = 0;
glyphname = _D.medi;
layers = (
{
layerId = "E14AE757-7134-4DB9-897C-AD248BACE90D";
shapes = (
{
closed = 1;
nodes = (
(262,-77,o),
(213,-26,o),
(172,76,c),
(200,127,o),
(239,153,o),
(290,153,c),
(330,153,o),
(361,142,o),
(382,120,c),
(403,97,o),
(413,66,o),
(413,27,c),
(413,-5,o),
(405,-30,o),
(388,-49,c),
(371,-68,o),
(348,-77,o),
(319,-77,c)
);
},
{
closed = 1;
nodes = (
(386,-157,o),
(436,-128,o),
(469,-70,c),
(484,-42,o),
(491,-10,o),
(491,27,c),
(491,90,o),
(473,140,o),
(437,177,c),
(401,214,o),
(352,232,o),
(290,232,c),
(230,232,o),
(181,206,o),
(142,154,c),
(117,225,o),
(96,295,o),
(79,364,c),
(643,364,l),
(643,444,l),
(0,444,l),
(0,364,l),
(23,267,o),
(51,175,o),
(84,88,c),
(125,-17,o),
(169,-88,o),
(218,-126,c),
(247,-147,o),
(280,-157,o),
(319,-157,c)
);
}
);
width = 613;
}
);
},
{
export = 0;
glyphname = _Db.medi;
layers = (
{
anchors = (
{
name = baluda;
pos = (0,0);
},
{
name = dagalga;
pos = (0,0);
}
);
layerId = "E14AE757-7134-4DB9-897C-AD248BACE90D";
shapes = (
{
closed = 1;
nodes = (
(340,-224,l),
(323,-199,o),
(303,-168,o),
(281,-130,c),
(291,-131,o),
(292,-131,o),
(297,-131,c),
(403,-131,o),
(471,-57,o),
(471,50,c),
(471,157,o),
(402,232,o),
(295,232,c),
(224,232,o),
(175,201,o),
(148,139,c),
(128,192,o),
(105,267,o),
(79,364,c),
(643,364,l),
(643,444,l),
(0,444,l),
(0,364,l),
(24,255,o),
(58,150,o),
(101,48,c),
(144,-54,o),
(201,-158,o),
(270,-266,c)
);
},
{
closed = 1;
nodes = (
(231,-57,o),
(196,-14,o),
(196,49,c),
(196,112,o),
(231,153,o),
(295,153,c),
(359,153,o),
(393,112,o),
(393,48,c),
(393,-20,o),
(354,-57,o),
(294,-57,c)
);
}
);
width = 613;
}
);
},
{
export = 0;
glyphname = _Dd.medi;
layers = (
{
layerId = "E14AE757-7134-4DB9-897C-AD248BACE90D";
shapes = (
{
closed = 1;
nodes = (
(118,124,o),
(79,166,o),
(79,251,c),
(79,294,o),
(86,332,o),
(99,364,c),
(296,364,l),
(309,332,o),
(316,294,o),
(316,251,c),
(316,209,o),
(306,177,o),
(285,156,c),
(264,134,o),
(235,123,o),
(197,123,c)
);
},
{
closed = 1;
nodes = (
(260,40,o),
(308,59,o),
(343,97,c),
(378,134,o),
(395,185,o),
(395,249,c),
(395,294,o),
(388,333,o),
(373,364,c),
(573,364,l),
(592,96,l),
(658,96,l),
(677,364,l),
(887,364,l),
(887,444,l),
(0,444,l),
(0,364,l),
(20,364,l),
(7,333,o),
(0,294,o),
(0,249,c),
(3,110,o),
(69,40,o),
(197,40,c)
);
}
);
width = 857;
}
);
},
{
export = 0;
glyphname = _Dd.fina;
layers = (
{
layerId = "E14AE757-7134-4DB9-897C-AD248BACE90D";
shapes = (
{
closed = 1;
nodes = (
(118,124,o),
(79,166,o),
(79,251,c),
(79,294,o),
(86,332,o),
(99,364,c),
(296,364,l),
(309,332,o),
(316,294,o),
(316,251,c),
(316,209,o),
(306,177,o),
(285,156,c),
(264,134,o),
(235,123,o),
(197,123,c)
);
},
{
closed = 1;
nodes = (
(260,40,o),
(308,59,o),
(343,97,c),
(378,134,o),
(395,185,o),
(395,249,c),
(395,294,o),
(388,333,o),
(373,364,c),
(540,364,l),
(540,311,o),
(551,262,o),
(572,217,c),
(593,171,o),
(623,133,o),
(662,103,c),
(701,73,o),
(748,56,o),
(801,53,c),
(801,156,l),
(801,325,o),
(827,486,o),
(880,639,c),
(908,714,o),
(945,779,o),
(990,836,c),
(898,836,l),
(839,759,o),
(795,657,o),
(765,528,c),
(738,410,o),
(724,286,o),
(724,156,c),
(665,191,o),
(631,246,o),
(622,321,c),
(617,358,o),
(614,399,o),
(614,444,c),
(0,444,l),
(0,364,l),
(20,364,l),
(7,333,o),
(0,294,o),
(0,249,c),
(3,110,o),
(69,40,o),
(197,40,c)
);
}
);
width = 1000;
}
);
},
{
export = 0;
glyphname = _Dh.medi;
layers = (
{
anchors = (
{
name = baluda;
pos = (0,0);
},
{
name = dagalga;
pos = (0,0);
}
);
layerId = "E14AE757-7134-4DB9-897C-AD248BACE90D";
shapes = (
{
closed = 1;
nodes = (
(419,-157,o),
(491,-83,o),
(491,27,c),
(491,152,o),
(414,232,o),
(290,232,c),
(228,232,o),
(174,201,o),
(142,154,c),
(117,225,o),
(96,295,o),
(79,364,c),
(643,364,l),
(643,444,l),
(0,444,l),
(0,364,l),
(23,266,o),
(50,174,o),
(84,88,c),
(141,-55,o),
(201,-157,o),
(319,-157,c)
);
},
{
closed = 1;
nodes = (
(263,-77,o),
(217,-33,o),
(172,76,c),
(195,123,o),
(239,153,o),
(290,153,c),
(373,153,o),
(413,103,o),
(413,27,c),
(413,-38,o),
(375,-77,o),
(319,-77,c)
);
},
{
closed = 1;
nodes = (
(248,547,l),
(281,582,o),
(327,620,o),
(387,663,c),
(326,732,l),
(287,693,o),
(247,645,o),
(205,586,c)
);
}
);
width = 613;
}
);
},
{
export = 0;
glyphname = _Dt.medi;
layers = (
{
anchors = (
{
name = baluda;
pos = (0,0);
},
{
name = dagalga;
pos = (0,0);
}
);
layerId = "E14AE757-7134-4DB9-897C-AD248BACE90D";
shapes = (
{
closed = 1;
nodes = (
(340,-224,l),
(323,-199,o),
(303,-168,o),
(281,-130,c),
(291,-131,o),
(292,-131,o),
(297,-131,c),
(403,-131,o),
(471,-57,o),
(471,50,c),
(471,157,o),
(402,232,o),
(295,232,c),
(224,232,o),
(175,201,o),
(148,139,c),
(128,192,o),
(105,267,o),
(79,364,c),
(643,364,l),
(643,444,l),
(0,444,l),
(0,364,l),
(24,255,o),
(58,150,o),
(101,48,c),
(144,-54,o),
(201,-158,o),
(270,-266,c)
);
},
{
closed = 1;
nodes = (
(231,-57,o),
(196,-14,o),
(196,49,c),
(196,112,o),
(231,153,o),
(295,153,c),
(359,153,o),
(393,112,o),
(393,48,c),
(393,-20,o),
(354,-57,o),
(294,-57,c)
);
},
{
closed = 1;
nodes = (
(248,547,l),
(281,582,o),
(327,620,o),
(387,663,c),
(326,732,l),
(287,693,o),
(247,645,o),
(205,586,c)
);
}
);
width = 613;
}
);
},
{
export = 0;
glyphname = _Ch.init;
layers = (
{
layerId = "E14AE757-7134-4DB9-897C-AD248BACE90D";
shapes = (
{
closed = 1;
nodes = (
(162,16,l),
(193,35,o),
(226,48,o),
(262,54,c),
(297,60,o),
(342,63,o),
(397,63,c),
(518,63,l),
(518,129,l),
(491,205,o),
(477,283,o),
(477,364,c),
(722,364,l),
(722,444,l),
(63,444,l),
(45,364,l),
(403,364,l),
(403,281,o),
(413,208,o),
(433,143,c),
(397,143,l),
(341,143,o),
(295,140,o),
(259,135,c),
(222,130,o),
(190,118,o),
(162,101,c)
);
}
);
width = 692;
}
);
},
{
export = 0;
glyphname = _Ch.medi;
layers = (
{
layerId = "E14AE757-7134-4DB9-897C-AD248BACE90D";
shapes = (
{
closed = 1;
nodes = (
(0,16,l),
(31,35,o),
(64,48,o),
(100,54,c),
(135,60,o),
(180,63,o),
(235,63,c),
(356,63,l),
(356,129,l),
(329,205,o),
(315,283,o),
(315,364,c),
(560,364,l),
(560,444,l),
(0,444,l),
(0,364,l),
(241,364,l),
(241,280,o),
(251,206,o),
(271,143,c),
(235,143,l),
(178,143,o),
(131,140,o),
(95,135,c),
(59,130,o),
(27,118,o),
(0,101,c)
);
}
);
width = 530;
}
);
},
{
export = 0;
glyphname = _Cc.init;
layers = (
{
anchors = (
{
name = baluda;
pos = (0,0);
},
{
name = dagalga;
pos = (0,0);
}
);
layerId = "E14AE757-7134-4DB9-897C-AD248BACE90D";
shapes = (
{
closed = 1;
nodes = (
(444,519,o),
(496,573,o),
(496,638,c),
(496,705,o),
(442,757,o),
(377,757,c),
(310,757,o),
(258,703,o),
(258,638,c),
(258,571,o),
(312,519,o),
(377,519,c)
);
},
{
closed = 1;
nodes = (
(341,569,o),
(309,595,o),
(309,638,c),
(309,678,o),
(338,706,o),
(377,706,c),
(417,706,o),
(446,676,o),
(446,638,c),
(446,599,o),
(416,569,o),
(377,569,c)
);
},
{
closed = 1;
nodes = (
(162,16,l),
(230,57,o),
(300,63,o),
(397,63,c),
(518,63,l),
(518,129,l),
(491,209,o),
(477,280,o),
(477,364,c),
(722,364,l),
(722,444,l),
(63,444,l),
(45,364,l),
(403,364,l),
(403,280,o),
(413,207,o),
(433,143,c),
(397,143,l),
(303,143,o),
(225,140,o),
(162,101,c)
);
}
);
width = 692;
}
);
},
{
export = 0;
glyphname = _Cc.medi;
layers = (
{
anchors = (
{
name = baluda;
pos = (0,0);
},
{
name = dagalga;
pos = (0,0);
}
);
layerId = "E14AE757-7134-4DB9-897C-AD248BACE90D";
shapes = (
{
closed = 1;
nodes = (
(0,16,l),
(68,57,o),
(138,63,o),
(235,63,c),
(356,63,l),
(356,129,l),
(329,209,o),
(315,280,o),
(315,364,c),
(560,364,l),
(560,444,l),
(0,444,l),
(0,364,l),
(241,364,l),
(241,279,o),
(251,206,o),
(271,143,c),
(235,143,l),
(141,143,o),
(63,141,o),
(0,101,c)
);
},
{
closed = 1;
nodes = (
(282,519,o),
(334,573,o),
(334,638,c),
(334,705,o),
(280,757,o),
(215,757,c),
(148,757,o),
(96,703,o),
(96,638,c),
(96,571,o),
(150,519,o),
(215,519,c)
);
},
{
closed = 1;
nodes = (
(179,569,o),
(147,595,o),
(147,638,c),
(147,678,o),
(176,706,o),
(215,706,c),
(255,706,o),
(284,676,o),
(284,638,c),
(284,599,o),
(254,569,o),
(215,569,c)
);
}
);
width = 530;
}
);
},
{
export = 0;
glyphname = _J.medi;
layers = (
{
anchors = (
{
name = baluda;
pos = (0,0);
},
{
name = dagalga;
pos = (0,0);
}
);
layerId = "E14AE757-7134-4DB9-897C-AD248BACE90D";
shapes = (
{
closed = 1;
nodes = (
(0,5,l),
(43,44,o),
(89,77,o),
(137,103,c),
(245,161,l),
(318,200,o),
(351,262,o),
(351,364,c),
(560,364,l),
(560,444,l),
(0,444,l),
(0,364,l),
(274,364,l),
(274,293,o),
(255,254,o),
(196,222,c),
(114,178,l),
(59,149,o),
(22,122,o),
(0,100,c)
);
}
);
width = 530;
}
);
},
{
export = 0;
glyphname = _Jc.medi;
layers = (
{
anchors = (
{
name = baluda;
pos = (0,0);
},
{
name = dagalga;
pos = (0,0);
}
);
layerId = "E14AE757-7134-4DB9-897C-AD248BACE90D";
shapes = (
{
closed = 1;
nodes = (
(0,5,l),
(43,44,o),
(89,77,o),
(137,103,c),
(245,161,l),
(318,200,o),
(351,262,o),
(351,364,c),
(560,364,l),
(560,444,l),
(0,444,l),
(0,364,l),
(274,364,l),
(274,293,o),
(255,254,o),
(196,222,c),
(114,178,l),
(59,149,o),
(22,122,o),
(0,100,c)
);
},
{
closed = 1;
nodes = (
(282,519,o),
(334,573,o),
(334,638,c),
(334,705,o),
(280,757,o),
(215,757,c),
(148,757,o),
(96,703,o),
(96,638,c),
(96,571,o),
(150,519,o),
(215,519,c)
);
},
{
closed = 1;
nodes = (
(179,569,o),
(147,595,o),
(147,638,c),
(147,678,o),
(176,706,o),
(215,706,c),
(255,706,o),
(284,676,o),
(284,638,c),
(284,599,o),
(254,569,o),
(215,569,c)
);
}
);
width = 530;
}
);
},
{
export = 0;
glyphname = _Y.init;
layers = (
{
layerId = "E14AE757-7134-4DB9-897C-AD248BACE90D";
shapes = (
{
closed = 1;
nodes = (
(125,-119,l),
(178,-79,o),
(234,-42,o),
(293,-7,c),
(226,124,o),
(174,247,o),
(138,364,c),
(451,364,l),
(451,444,l),
(45,444,l),
(60,355,o),
(87,260,o),
(127,161,c),
(146,113,o),
(165,68,o),
(186,25,c),
(151,-4,o),
(118,-36,o),
(87,-70,c)
);
}
);
width = 421;
}
);
},
{
export = 0;
glyphname = _Y.medi;
layers = (
{
layerId = "E14AE757-7134-4DB9-897C-AD248BACE90D";
shapes = (
{
closed = 1;
nodes = (
(65,-119,l),
(118,-79,o),
(174,-42,o),
(233,-7,c),
(166,124,o),
(114,247,o),
(78,364,c),
(391,364,l),
(391,444,l),
(0,444,l),
(0,364,l),
(29,252,o),
(71,139,o),
(126,25,c),
(91,-4,o),
(58,-36,o),
(27,-70,c)
);
}
);
width = 361;
}
);
},
{
export = 0;
glyphname = _R.init;
layers = (
{
layerId = "E14AE757-7134-4DB9-897C-AD248BACE90D";
shapes = (
{
closed = 1;
nodes = (
(196,6,o),
(214,-30,o),
(233,-67,c),
(306,-31,l),
(233,99,o),
(177,231,o),
(139,364,c),
(451,364,l),
(451,444,l),
(45,444,l),
(60,353,o),
(85,265,o),
(118,182,c),
(138,134,l),
(115,97,l),
(92,58,o),
(73,16,o),
(58,-28,c),
(112,-59,l),
(119,-47,o),
(135,-22,o),
(160,16,c),
(166,26,o),
(173,35,o),
(179,43,c)
);
}
);
width = 421;
}
);
},
{
export = 0;
glyphname = _R.medi;
layers = (
{
layerId = "E14AE757-7134-4DB9-897C-AD248BACE90D";
shapes = (
{
closed = 1;
nodes = (
(135,6,o),
(153,-30,o),
(173,-67,c),
(246,-31,l),
(173,99,o),
(117,231,o),
(79,364,c),
(391,364,l),
(391,444,l),
(0,444,l),
(0,364,l),
(20,288,o),
(46,211,o),
(78,134,c),
(55,97,l),
(32,58,o),
(13,16,o),
(-2,-28,c),
(52,-59,l),
(58,-47,o),
(74,-22,o),
(100,16,c),
(106,25,o),
(112,34,o),
(118,42,c)
);
}
);
width = 361;
}
);
},
{
export = 0;
glyphname = _R2.fina;
layers = (
{
anchors = (
{
name = baluda;
pos = (0,0);
},
{
name = dagalga;
pos = (0,0);
}
);
layerId = "E14AE757-7134-4DB9-897C-AD248BACE90D";
shapes = (
{
closed = 1;
nodes = (
(246,-31,l),
(173,99,o),
(117,231,o),
(79,364,c),
(442,364,l),
(477,364,o),
(502,357,o),
(517,342,c),
(532,327,o),
(540,306,o),
(540,279,c),
(540,235,o),
(533,196,o),
(518,162,c),
(592,162,l),
(609,199,o),
(617,238,o),
(617,279,c),
(617,282,l),
(617,390,o),
(558,444,o),
(442,444,c),
(0,444,l),
(0,364,l),
(20,288,o),
(46,211,o),
(78,134,c),
(55,97,l),
(32,58,o),
(13,16,o),
(-2,-28,c),
(52,-59,l),
(58,-47,o),
(74,-22,o),
(100,16,c),
(118,42,l),
(135,6,o),
(153,-30,o),
(173,-67,c)
);
}
);
width = 662;
}
);
},
{
export = 0;
glyphname = _W.init;
layers = (
{
layerId = "E14AE757-7134-4DB9-897C-AD248BACE90D";
shapes = (
{
closed = 1;
nodes = (
(410,-119,o),
(438,-108,o),
(454,-85,c),
(454,6,l),
(436,-22,o),
(408,-36,o),
(371,-36,c),
(350,-36,o),
(331,-28,o),
(314,-12,c),
(297,4,o),
(280,27,o),
(264,58,c),
(249,87,o),
(233,118,o),
(218,152,c),
(188,220,o),
(162,291,o),
(141,364,c),
(550,364,l),
(550,444,l),
(45,444,l),
(70,311,o),
(116,176,o),
(181,41,c),
(206,-12,o),
(233,-52,o),
(262,-79,c),
(291,-106,o),
(328,-119,o),
(371,-119,c)
);
}
);
width = 520;
}
);
},
{
export = 0;
glyphname = _W.medi;
layers = (
{
layerId = "E14AE757-7134-4DB9-897C-AD248BACE90D";
shapes = (
{
closed = 1;
nodes = (
(348,-119,o),
(376,-108,o),
(392,-85,c),
(392,6,l),
(374,-22,o),
(346,-36,o),
(309,-36,c),
(288,-36,o),
(269,-28,o),
(252,-12,c),
(235,4,o),
(218,27,o),
(202,58,c),
(187,87,o),
(171,118,o),
(156,152,c),
(126,220,o),
(100,291,o),
(79,364,c),
(488,364,l),
(488,444,l),
(0,444,l),
(0,364,l),
(19,295,o),
(42,226,o),
(68,157,c),
(115,35,o),
(162,-45,o),
(207,-84,c),
(234,-107,o),
(268,-119,o),
(309,-119,c)
);
}
);
width = 458;
}
);
},
{
export = 0;
glyphname = _V.init;
layers = (
{
anchors = (
{
name = baluda;
pos = (0,0);
},
{
name = dagalga;
pos = (0,0);
}
);
layerId = "E14AE757-7134-4DB9-897C-AD248BACE90D";
shapes = (
{
closed = 1;
nodes = (
(388,-59,o),
(419,-46,o),
(434,-25,c),
(434,66,l),
(416,38,o),
(388,24,o),
(351,24,c),
(300,24,o),
(264,82,o),
(242,194,c),
(231,250,o),
(225,307,o),
(225,364,c),
(550,364,l),
(550,444,l),
(225,444,l),
(225,530,l),
(225,673,o),
(197,767,o),
(77,767,c),
(46,767,o),
(24,762,o),
(10,751,c),
(10,666,l),
(24,678,o),
(43,684,o),
(69,684,c),
(136,684,o),
(147,623,o),
(147,530,c),
(147,409,l),
(147,321,o),
(154,238,o),
(169,162,c),
(194,33,o),
(241,-59,o),
(351,-59,c)
);
}
);
width = 520;
}
);
},
{
export = 0;
glyphname = _V.medi;
layers = (
{
anchors = (
{
name = baluda;
pos = (0,0);
},
{
name = dagalga;
pos = (0,0);
}
);
layerId = "E14AE757-7134-4DB9-897C-AD248BACE90D";
shapes = (
{
closed = 1;
nodes = (
(408,-59,o),
(439,-46,o),
(454,-25,c),
(454,66,l),
(436,38,o),
(408,24,o),
(371,24,c),
(320,24,o),
(285,79,o),
(262,192,c),
(250,250,o),
(245,307,o),
(245,364,c),
(570,364,l),
(570,444,l),
(245,444,l),
(245,530,l),
(245,673,o),
(217,767,o),
(97,767,c),
(66,767,o),
(44,762,o),
(30,751,c),
(30,666,l),
(44,678,o),
(63,684,o),
(89,684,c),
(156,684,o),
(167,623,o),
(167,530,c),
(167,444,l),
(0,444,l),
(0,364,l),
(167,364,l),
(169,284,o),
(179,209,o),
(194,141,c),
(220,24,o),
(268,-59,o),
(371,-59,c)
);
}
);
width = 540;
}
);
},
{
export = 0;
glyphname = _K2.init;
layers = (
{
layerId = "E14AE757-7134-4DB9-897C-AD248BACE90D";
shapes = (
{
closed = 1;
nodes = (
(306,90,l),
(185,221,o),
(124,330,o),
(124,419,c),
(124,511,o),
(145,576,o),
(187,614,c),
(209,634,o),
(238,644,o),
(274,644,c),
(313,644,o),
(343,633,o),
(365,610,c),
(386,587,o),
(402,554,o),
(411,510,c),
(420,468,o),
(426,419,o),
(429,364,c),
(503,364,l),
(499,487,o),
(478,579,o),
(441,638,c),
(404,697,o),
(348,727,o),
(274,727,c),
(225,727,o),
(183,714,o),
(149,688,c),
(114,662,o),
(88,625,o),
(71,577,c),
(54,531,o),
(45,478,o),
(45,419,c),
(45,96,l),
(111,96,l),
(119,215,l),
(146,158,o),
(187,98,o),
(244,35,c)
);
}
);
width = 429;
}
);
},
{
export = 0;
glyphname = _K2.medi;
layers = (
{
layerId = "E14AE757-7134-4DB9-897C-AD248BACE90D";
shapes = (
{
closed = 1;
nodes = (
(261,90,l),
(140,221,o),
(79,330,o),
(79,419,c),
(79,511,o),
(100,576,o),
(142,614,c),
(164,634,o),
(193,644,o),
(229,644,c),
(268,644,o),
(298,633,o),
(320,610,c),
(341,587,o),
(357,554,o),
(366,510,c),
(375,468,o),
(381,419,o),
(384,364,c),
(458,364,l),
(454,487,o),
(433,579,o),
(396,638,c),
(359,697,o),
(303,727,o),
(229,727,c),
(180,727,o),
(138,714,o),
(104,688,c),
(69,662,o),
(43,625,o),
(26,577,c),
(9,531,o),
(0,478,o),
(0,419,c),
(0,96,l),
(66,96,l),
(74,215,l),
(101,158,o),
(142,98,o),
(199,35,c)
);
}
);
width = 384;
}
);
},
{
export = 0;
glyphname = _Kh.init;
layers = (
{
anchors = (
{
name = baluda;
pos = (0,0);
},
{
name = dagalga;
pos = (0,0);
}
);
layerId = "E14AE757-7134-4DB9-897C-AD248BACE90D";
shapes = (
{
closed = 1;
nodes = (
(306,90,l),
(181,225,o),
(124,329,o),
(124,419,c),
(124,546,o),
(166,644,o),
(274,644,c),
(394,644,o),
(418,530,o),
(429,364,c),
(503,364,l),
(493,610,o),
(422,727,o),
(274,727,c),
(121,727,o),
(45,594,o),
(45,419,c),
(45,96,l),
(111,96,l),
(119,215,l),
(146,157,o),
(188,97,o),
(244,35,c)
);
},
{
closed = 1;
nodes = (
(249,787,l),
(282,822,o),
(328,860,o),
(388,903,c),
(327,972,l),
(288,933,o),
(248,885,o),
(206,826,c)
);
}
);
width = 429;
}
);
},
{
export = 0;
glyphname = _Kh.medi;
layers = (
{
anchors = (
{
name = baluda;
pos = (0,0);
},
{
name = dagalga;
pos = (0,0);
}
);
layerId = "E14AE757-7134-4DB9-897C-AD248BACE90D";
shapes = (
{
closed = 1;
nodes = (
(261,90,l),
(136,225,o),
(79,329,o),
(79,419,c),
(79,546,o),
(121,644,o),
(229,644,c),
(349,644,o),
(373,530,o),
(384,364,c),
(458,364,l),
(448,610,o),
(377,727,o),
(229,727,c),
(76,727,o),
(0,594,o),
(0,419,c),
(0,96,l),
(66,96,l),
(74,215,l),
(101,157,o),
(143,97,o),
(199,35,c)
);
},
{
closed = 1;
nodes = (
(204,787,l),
(237,822,o),
(283,860,o),
(343,903,c),
(282,972,l),
(243,933,o),
(203,885,o),
(161,826,c)
);
}
);
width = 384;
}
);
},
{
export = 0;
glyphname = _Kc.init;
layers = (
{
anchors = (
{
name = baluda;
pos = (0,0);
},
{
name = dagalga;
pos = (0,0);
}
);
layerId = "E14AE757-7134-4DB9-897C-AD248BACE90D";
shapes = (
{
closed = 1;
nodes = (
(306,90,l),
(181,225,o),
(124,329,o),
(124,419,c),
(124,546,o),
(166,644,o),
(274,644,c),
(394,644,o),
(418,530,o),
(429,364,c),
(503,364,l),
(493,610,o),
(422,727,o),
(274,727,c),
(121,727,o),
(45,594,o),
(45,419,c),
(45,96,l),
(111,96,l),
(119,215,l),
(146,157,o),
(188,97,o),
(244,35,c)
);
},
{
closed = 1;
nodes = (
(355,779,o),
(407,833,o),
(407,898,c),
(407,965,o),
(353,1017,o),
(288,1017,c),
(221,1017,o),
(169,963,o),
(169,898,c),
(169,831,o),
(223,779,o),
(288,779,c)
);
},
{
closed = 1;
nodes = (
(252,829,o),
(220,855,o),
(220,898,c),
(220,938,o),
(249,966,o),
(288,966,c),
(328,966,o),
(357,936,o),
(357,898,c),
(357,859,o),
(327,829,o),
(288,829,c)
);
}
);
width = 429;
}
);
},
{
export = 0;
glyphname = _Kc.medi;
layers = (
{
anchors = (
{
name = baluda;
pos = (0,0);
},
{
name = dagalga;
pos = (0,0);
}
);
layerId = "E14AE757-7134-4DB9-897C-AD248BACE90D";
shapes = (
{
closed = 1;
nodes = (
(261,90,l),
(136,225,o),
(79,329,o),
(79,419,c),
(79,546,o),
(121,644,o),
(229,644,c),
(349,644,o),
(373,530,o),
(384,364,c),
(458,364,l),
(448,610,o),
(377,727,o),
(229,727,c),
(76,727,o),
(0,594,o),
(0,419,c),
(0,96,l),
(66,96,l),
(74,215,l),
(101,157,o),
(143,97,o),
(199,35,c)
);
},
{
closed = 1;
nodes = (
(310,779,o),
(362,833,o),
(362,898,c),
(362,965,o),
(308,1017,o),
(243,1017,c),
(176,1017,o),
(124,963,o),
(124,898,c),
(124,831,o),
(178,779,o),
(243,779,c)
);
},
{
closed = 1;
nodes = (
(207,829,o),
(175,855,o),
(175,898,c),
(175,938,o),
(204,966,o),
(243,966,c),
(283,966,o),
(312,936,o),
(312,898,c),
(312,859,o),
(282,829,o),
(243,829,c)
);
}
);
width = 384;
}
);
},
{
export = 0;
glyphname = _Cs.init;
layers = (
{
anchors = (
{
name = baluda;
pos = (0,0);
},
{
name = dagalga;
pos = (0,0);
}
);
layerId = "E14AE757-7134-4DB9-897C-AD248BACE90D";
shapes = (
{
closed = 1;
nodes = (
(519,73,l),
(507,127,o),
(484,225,o),
(450,364,c),
(711,364,l),
(711,444,l),
(428,444,l),
(405,527,o),
(380,610,o),
(352,694,c),
(499,694,l),
(499,756,l),
(334,756,l),
(334,888,l),
(271,888,l),
(271,756,l),
(114,756,l),
(114,694,l),
(258,694,l),
(254,672,o),
(246,632,o),
(227,559,c),
(208,487,o),
(185,427,o),
(131,427,c),
(105,427,o),
(76,433,o),
(45,446,c),
(45,371,l),
(74,354,o),
(104,346,o),
(135,346,c),
(208,346,o),
(243,379,o),
(270,459,c),
(284,501,o),
(295,544,o),
(304,590,c),
(308,590,l),
(356,458,o),
(413,231,o),
(443,73,c)
);
}
);
width = 681;
}
);
},
{
export = 0;
glyphname = _Cs.medi;
layers = (
{
anchors = (
{
name = baluda;
pos = (0,0);
},
{
name = dagalga;
pos = (0,0);
}
);
layerId = "E14AE757-7134-4DB9-897C-AD248BACE90D";
shapes = (
{
closed = 1;
nodes = (
(105,73,l),
(97,106,o),
(93,148,o),
(93,199,c),
(93,348,o),
(120,472,o),
(192,607,c),
(196,607,l),
(215,408,o),
(251,250,o),
(334,73,c),
(419,73,l),
(370,171,o),
(333,268,o),
(308,364,c),
(611,364,l),
(611,444,l),
(290,444,l),
(274,522,o),
(265,605,o),
(263,694,c),
(413,694,l),
(413,756,l),
(248,756,l),
(248,888,l),
(185,888,l),
(185,756,l),
(28,756,l),
(28,694,l),
(162,694,l),
(110,612,o),
(73,529,o),
(50,444,c),
(0,444,l),
(0,364,l),
(0,276,o),
(11,159,o),
(28,73,c)
);
}
);
width = 581;
}
);
},
{
export = 0;
glyphname = _Rr.init;
layers = (
{
anchors = (
{
name = baluda;
pos = (0,0);
},
{
name = dagalga;
pos = (0,0);
}
);
layerId = "E14AE757-7134-4DB9-897C-AD248BACE90D";
shapes = (
{
closed = 1;
nodes = (
(118,96,l),
(118,364,l),
(328,364,l),
(328,444,l),
(118,444,l),
(118,712,l),
(45,712,l),
(45,96,l)
);
}
);
width = 288;
}
);
},
{
export = 0;
glyphname = _Rr.medi;
layers = (
{
anchors = (
{
name = baluda;
pos = (0,0);
},
{
name = dagalga;
pos = (0,0);
}
);
layerId = "E14AE757-7134-4DB9-897C-AD248BACE90D";
shapes = (
{
closed = 1;
nodes = (
(73,96,l),
(73,364,l),
(283,364,l),
(283,444,l),
(73,444,l),
(73,712,l),
(0,712,l),
(0,96,l)
);
}
);
width = 253;
}
);
},
{
export = 0;
glyphname = _Zs.init;
layers = (
{
anchors = (
{
name = baluda;
pos = (0,0);
},
{
name = dagalga;
pos = (0,0);
}
);
layerId = "E14AE757-7134-4DB9-897C-AD248BACE90D";
shapes = (
{
closed = 1;
nodes = (
(519,73,l),
(507,127,o),
(484,225,o),
(450,364,c),
(711,364,l),
(711,444,l),
(428,444,l),
(405,527,o),
(380,610,o),
(352,694,c),
(499,694,l),
(499,756,l),
(114,756,l),
(114,694,l),
(258,694,l),
(227,559,l),
(210,487,o),
(184,427,o),
(130,427,c),
(104,427,o),
(76,433,o),
(45,446,c),
(45,371,l),
(74,354,o),
(104,346,o),
(135,346,c),
(208,346,o),
(243,379,o),
(270,459,c),
(284,501,o),
(295,544,o),
(304,590,c),
(308,590,l),
(356,458,o),
(413,231,o),
(443,73,c)
);
}
);
width = 681;
}
);
},
{
export = 0;
glyphname = _Zs.medi;
layers = (
{
anchors = (
{
name = baluda;
pos = (0,0);
},
{
name = dagalga;
pos = (0,0);
}
);
layerId = "E14AE757-7134-4DB9-897C-AD248BACE90D";
shapes = (
{
closed = 1;
nodes = (
(105,73,l),
(97,106,o),
(93,148,o),
(93,199,c),
(93,348,o),
(120,472,o),
(192,607,c),
(196,607,l),
(215,408,o),
(251,250,o),
(334,73,c),
(419,73,l),
(370,171,o),
(333,268,o),
(308,364,c),
(611,364,l),
(611,444,l),
(290,444,l),
(274,522,o),
(265,605,o),
(263,694,c),
(423,694,l),
(423,756,l),
(38,756,l),
(38,694,l),
(162,694,l),
(110,612,o),
(73,529,o),
(50,444,c),
(0,444,l),
(0,364,l),
(0,276,o),
(11,159,o),
(28,73,c)
);
}
);
width = 581;
}
);
},
{
export = 0;
glyphname = _Zs.fina;
layers = (
{
anchors = (
{
name = baluda;
pos = (0,0);
},
{
name = dagalga;
pos = (0,0);
}
);
layerId = "E14AE757-7134-4DB9-897C-AD248BACE90D";
shapes = (
{
closed = 1;
nodes = (
(105,73,l),
(97,106,o),
(93,148,o),
(93,199,c),
(93,348,o),
(120,472,o),
(192,607,c),
(196,607,l),
(215,408,o),
(251,250,o),
(334,73,c),
(419,73,l),
(370,171,o),
(333,268,o),
(308,364,c),
(611,364,l),
(682,364,o),
(709,333,o),
(709,279,c),
(709,235,o),
(702,196,o),
(687,162,c),
(761,162,l),
(778,199,o),
(786,238,o),
(786,279,c),
(786,389,o),
(728,444,o),
(611,444,c),
(290,444,l),
(274,522,o),
(265,605,o),
(263,694,c),
(423,694,l),
(423,756,l),
(38,756,l),
(38,694,l),
(162,694,l),
(110,612,o),
(73,529,o),
(50,444,c),
(0,444,l),
(0,364,l),
(0,276,o),
(11,159,o),
(28,73,c)
);
}
);
width = 831;
}
);
},
{
export = 0;
glyphname = _GA.init;
layers = (
{
layerId = "E14AE757-7134-4DB9-897C-AD248BACE90D";
shapes = (
{
closed = 1;
nodes = (
(245,85,l),
(204,144,o),
(173,200,o),
(154,251,c),
(134,302,o),
(124,358,o),
(124,417,c),
(124,492,o),
(137,549,o),
(164,587,c),
(191,625,o),
(228,644,o),
(275,644,c),
(314,644,o),
(344,633,o),
(365,610,c),
(386,587,o),
(402,554,o),
(411,510,c),
(420,467,o),
(426,418,o),
(430,363,c),
(449,96,l),
(515,96,l),
(534,364,l),
(744,364,l),
(744,444,l),
(503,444,l),
(489,565,o),
(453,648,o),
(396,692,c),
(365,715,o),
(324,727,o),
(274,727,c),
(182,727,o),
(115,679,o),
(74,582,c),
(55,535,o),
(45,480,o),
(45,417,c),
(45,299,o),
(88,174,o),
(174,42,c)
);
}
);
width = 714;
}
);
},
{
export = 0;
glyphname = _GA.medi;
layers = (
{
layerId = "E14AE757-7134-4DB9-897C-AD248BACE90D";
shapes = (
{
closed = 1;
nodes = (
(197,85,l),
(156,144,o),
(125,200,o),
(106,251,c),
(86,302,o),
(76,358,o),
(76,417,c),
(76,492,o),
(89,549,o),
(116,587,c),
(143,625,o),
(180,644,o),
(227,644,c),
(266,644,o),
(296,633,o),
(317,610,c),
(338,587,o),
(354,554,o),
(363,510,c),
(372,467,o),
(378,418,o),
(382,363,c),
(401,96,l),
(467,96,l),
(486,364,l),
(696,364,l),
(696,444,l),
(455,444,l),
(441,565,o),
(405,648,o),
(348,692,c),
(317,715,o),
(276,727,o),
(226,727,c),
(134,727,o),
(67,679,o),
(26,582,c),
(7,535,o),
(-3,480,o),
(-3,417,c),
(-3,299,o),
(40,174,o),
(126,42,c)
);
}
);
width = 666;
}
);
},
{
export = 0;
glyphname = _GAa.isol;
layers = (
{
layerId = "E14AE757-7134-4DB9-897C-AD248BACE90D";
shapes = (
{
closed = 1;
nodes = (
(797,-264,l),
(783,-237,o),
(776,-212,o),
(776,-187,c),
(776,-158,o),
(781,-133,o),
(792,-110,c),
(802,-88,o),
(819,-62,o),
(843,-31,c),
(886,22,o),
(919,71,o),
(942,116,c),
(965,161,o),
(976,204,o),
(976,245,c),
(974,378,o),
(897,444,o),
(745,444,c),
(503,444,l),
(489,565,o),
(453,648,o),
(396,692,c),
(365,715,o),
(324,727,o),
(274,727,c),
(182,727,o),
(115,678,o),
(73,581,c),
(54,536,o),
(45,481,o),
(45,418,c),
(45,299,o),
(88,174,o),
(174,42,c),
(245,85,l),
(204,144,o),
(173,200,o),
(154,251,c),
(134,302,o),
(124,358,o),
(124,417,c),
(124,492,o),
(137,549,o),
(164,587,c),
(190,625,o),
(227,644,o),
(274,644,c),
(313,644,o),
(343,633,o),
(365,610,c),
(386,587,o),
(402,554,o),
(411,510,c),
(420,467,o),
(426,418,o),
(430,361,c),
(449,96,l),
(515,96,l),
(534,364,l),
(744,364,l),
(847,365,o),
(898,325,o),
(898,244,c),
(898,212,o),
(890,180,o),
(873,148,c),
(856,115,o),
(829,75,o),
(791,28,c),
(760,-13,o),
(736,-50,o),
(720,-83,c),
(704,-116,o),
(696,-151,o),
(696,-187,c),
(696,-217,o),
(702,-243,o),
(715,-264,c)
);
}
);
width = 1021;
}
);
},
{
export = 0;
glyphname = _GAa.fina;
layers = (
{
layerId = "E14AE757-7134-4DB9-897C-AD248BACE90D";
shapes = (
{
closed = 1;
nodes = (
(749,-264,l),
(735,-237,o),
(728,-212,o),
(728,-187,c),
(728,-158,o),
(733,-133,o),
(744,-110,c),
(754,-88,o),
(771,-62,o),
(795,-31,c),
(838,22,o),
(871,71,o),
(894,116,c),
(917,161,o),
(928,204,o),
(928,245,c),
(926,378,o),
(849,444,o),
(697,444,c),
(455,444,l),
(441,565,o),
(405,648,o),
(348,692,c),
(317,715,o),
(276,727,o),
(226,727,c),
(134,727,o),
(67,678,o),
(25,581,c),
(6,536,o),
(-3,481,o),
(-3,418,c),
(-3,299,o),
(40,174,o),
(126,42,c),
(197,85,l),
(156,144,o),
(125,200,o),
(106,251,c),
(86,302,o),
(76,358,o),
(76,417,c),
(76,492,o),
(89,549,o),
(116,587,c),
(142,625,o),
(179,644,o),
(226,644,c),
(265,644,o),
(295,633,o),
(317,610,c),
(338,587,o),
(354,554,o),
(363,510,c),
(372,467,o),
(378,418,o),
(382,361,c),
(401,96,l),
(467,96,l),
(486,364,l),
(696,364,l),
(799,365,o),
(850,325,o),
(850,244,c),
(850,212,o),
(842,180,o),
(825,148,c),
(808,115,o),
(781,75,o),
(743,28,c),
(712,-13,o),
(688,-50,o),
(672,-83,c),
(656,-116,o),
(648,-151,o),
(648,-187,c),
(648,-217,o),
(654,-243,o),
(667,-264,c)
);
}
);
width = 973;
}
);
},
{
export = 0;
glyphname = _GhA.init;
layers = (
{
anchors = (
{
name = baluda;
pos = (0,0);
},
{
name = dagalga;
pos = (0,0);
}
);
layerId = "E14AE757-7134-4DB9-897C-AD248BACE90D";
shapes = (
{
closed = 1;
nodes = (
(245,85,l),
(169,197,o),
(124,291,o),
(124,417,c),
(124,571,o),
(183,644,o),
(275,644,c),
(394,644,o),
(418,529,o),
(430,363,c),
(449,96,l),
(515,96,l),
(534,364,l),
(744,364,l),
(744,444,l),
(503,444,l),
(482,614,o),
(424,727,o),
(274,727,c),
(136,727,o),
(45,606,o),
(45,417,c),
(45,299,o),
(88,174,o),
(174,42,c)
);
},
{
closed = 1;
nodes = (
(282,822,o),
(328,860,o),
(388,903,c),
(327,972,l),
(288,933,o),
(248,885,o),
(206,826,c),
(249,787,l)
);
}
);
width = 714;
}
);
},
{
export = 0;
glyphname = _GhA.medi;
layers = (
{
anchors = (
{
name = baluda;
pos = (0,0);
},
{
name = dagalga;
pos = (0,0);
}
);
layerId = "E14AE757-7134-4DB9-897C-AD248BACE90D";
shapes = (
{
closed = 1;
nodes = (
(197,85,l),
(121,197,o),
(76,291,o),
(76,417,c),
(76,571,o),
(135,644,o),
(227,644,c),
(346,644,o),
(370,529,o),
(382,363,c),
(401,96,l),
(467,96,l),
(486,364,l),
(696,364,l),
(696,444,l),
(455,444,l),
(434,614,o),
(376,727,o),
(226,727,c),
(88,727,o),
(-3,606,o),
(-3,417,c),
(-3,299,o),
(40,174,o),
(126,42,c)
);
},
{
closed = 1;
nodes = (
(234,822,o),
(280,860,o),
(340,903,c),
(279,972,l),
(240,933,o),
(200,885,o),
(158,826,c),
(201,787,l)
);
}
);
width = 666;
}
);
},
{
export = 0;
glyphname = _GhAa.isol;
layers = (
{
anchors = (
{
name = baluda;
pos = (0,0);
},
{
name = dagalga;
pos = (0,0);
}
);
layerId = "E14AE757-7134-4DB9-897C-AD248BACE90D";
shapes = (
{
closed = 1;
nodes = (
(282,822,o),
(328,860,o),
(388,903,c),
(327,972,l),
(288,933,o),
(248,885,o),
(206,826,c),
(249,787,l)
);
},
{
closed = 1;
nodes = (
(797,-264,l),
(783,-238,o),
(776,-213,o),
(776,-187,c),
(776,-125,o),
(796,-92,o),
(843,-31,c),
(917,64,o),
(976,155,o),
(976,245,c),
(976,373,o),
(898,444,o),
(745,444,c),
(503,444,l),
(482,614,o),
(424,727,o),
(274,727,c),
(134,727,o),
(45,605,o),
(45,418,c),
(45,300,o),
(88,174,o),
(174,42,c),
(245,85,l),
(169,197,o),
(124,291,o),
(124,417,c),
(124,571,o),
(182,644,o),
(274,644,c),
(394,644,o),
(418,531,o),
(430,361,c),
(449,96,l),
(515,96,l),
(534,364,l),
(744,364,l),
(851,364,o),
(898,324,o),
(898,244,c),
(898,176,o),
(859,116,o),
(791,28,c),
(736,-44,o),
(696,-108,o),
(696,-187,c),
(696,-216,o),
(702,-242,o),
(715,-264,c)
);
}
);
width = 1021;
}
);
},
{
export = 0;
glyphname = _GhAa.fina;
layers = (
{
anchors = (
{
name = baluda;
pos = (0,0);
},
{
name = dagalga;
pos = (0,0);
}
);
layerId = "E14AE757-7134-4DB9-897C-AD248BACE90D";
shapes = (
{
closed = 1;
nodes = (
(234,822,o),
(280,860,o),
(340,903,c),
(279,972,l),
(240,933,o),
(200,885,o),
(158,826,c),
(201,787,l)
);
},
{
closed = 1;
nodes = (
(749,-264,l),
(735,-238,o),
(728,-213,o),
(728,-187,c),
(728,-125,o),
(748,-92,o),
(795,-31,c),
(869,64,o),
(928,155,o),
(928,245,c),
(928,373,o),
(850,444,o),
(697,444,c),
(455,444,l),
(434,614,o),
(376,727,o),
(226,727,c),
(86,727,o),
(-3,605,o),
(-3,418,c),
(-3,300,o),
(40,174,o),
(126,42,c),
(197,85,l),
(121,197,o),
(76,291,o),
(76,417,c),
(76,571,o),
(134,644,o),
(226,644,c),
(346,644,o),
(370,531,o),
(382,361,c),
(401,96,l),
(467,96,l),
(486,364,l),
(696,364,l),
(803,364,o),
(850,324,o),
(850,244,c),
(850,176,o),
(811,116,o),
(743,28,c),
(688,-44,o),
(648,-108,o),
(648,-187,c),
(648,-216,o),
(654,-242,o),
(667,-264,c)
);
}
);
width = 973;
}
);
},
{
export = 0;
glyphname = _GcA.init;
layers = (
{
anchors = (
{
name = baluda;
pos = (0,0);
},
{
name = dagalga;
pos = (0,0);
}
);
layerId = "E14AE757-7134-4DB9-897C-AD248BACE90D";
shapes = (
{
closed = 1;
nodes = (
(245,85,l),
(169,197,o),
(124,291,o),
(124,417,c),
(124,571,o),
(183,644,o),
(275,644,c),
(394,644,o),
(418,529,o),
(430,363,c),
(449,96,l),
(515,96,l),
(534,364,l),
(744,364,l),
(744,444,l),
(503,444,l),
(482,614,o),
(424,727,o),
(274,727,c),
(136,727,o),
(45,606,o),
(45,417,c),
(45,299,o),
(88,174,o),
(174,42,c)
);
},
{
closed = 1;
nodes = (
(355,779,o),
(407,833,o),
(407,898,c),
(407,965,o),
(353,1017,o),
(288,1017,c),
(221,1017,o),
(169,963,o),
(169,898,c),
(169,831,o),
(223,779,o),
(288,779,c)
);
},
{
closed = 1;
nodes = (
(252,829,o),
(220,855,o),
(220,898,c),
(220,938,o),
(249,966,o),
(288,966,c),
(328,966,o),
(357,936,o),
(357,898,c),
(357,859,o),
(327,829,o),
(288,829,c)
);
}
);
width = 714;
}
);
},
{
export = 0;
glyphname = _GcA.medi;
layers = (
{
anchors = (
{
name = baluda;
pos = (0,0);
},
{
name = dagalga;
pos = (0,0);
}
);
layerId = "E14AE757-7134-4DB9-897C-AD248BACE90D";
shapes = (
{
closed = 1;
nodes = (
(197,85,l),
(121,197,o),
(76,291,o),
(76,417,c),
(76,571,o),
(135,644,o),
(227,644,c),
(346,644,o),
(370,529,o),
(382,363,c),
(401,96,l),
(467,96,l),
(486,364,l),
(696,364,l),
(696,444,l),
(455,444,l),
(434,614,o),
(376,727,o),
(226,727,c),
(88,727,o),
(-3,606,o),
(-3,417,c),
(-3,299,o),
(40,174,o),
(126,42,c)
);
},
{
closed = 1;
nodes = (
(307,779,o),
(359,833,o),
(359,898,c),
(359,965,o),
(305,1017,o),
(240,1017,c),
(173,1017,o),
(121,963,o),
(121,898,c),
(121,831,o),
(175,779,o),
(240,779,c)
);
},
{
closed = 1;
nodes = (
(204,829,o),
(172,855,o),
(172,898,c),
(172,938,o),
(201,966,o),
(240,966,c),
(280,966,o),
(309,936,o),
(309,898,c),
(309,859,o),
(279,829,o),
(240,829,c)
);
}
);
width = 666;
}
);
},
{
export = 0;
glyphname = _GcAa.isol;
layers = (
{
anchors = (
{
name = baluda;
pos = (0,0);
},
{
name = dagalga;
pos = (0,0);
}
);
layerId = "E14AE757-7134-4DB9-897C-AD248BACE90D";
shapes = (
{
closed = 1;
nodes = (
(355,779,o),
(407,833,o),
(407,898,c),
(407,965,o),
(353,1017,o),
(288,1017,c),
(221,1017,o),
(169,963,o),
(169,898,c),
(169,831,o),
(223,779,o),
(288,779,c)
);
},
{
closed = 1;
nodes = (
(252,829,o),
(220,855,o),
(220,898,c),
(220,938,o),
(249,966,o),
(288,966,c),
(328,966,o),
(357,936,o),
(357,898,c),
(357,859,o),
(327,829,o),
(288,829,c)
);
},
{
closed = 1;
nodes = (
(797,-264,l),
(783,-238,o),
(776,-213,o),
(776,-187,c),
(776,-125,o),
(796,-92,o),
(843,-31,c),
(917,64,o),
(976,155,o),
(976,245,c),
(976,373,o),
(898,444,o),
(745,444,c),
(503,444,l),
(482,614,o),
(424,727,o),
(274,727,c),
(134,727,o),
(45,605,o),
(45,418,c),
(45,300,o),
(88,174,o),
(174,42,c),
(245,85,l),
(169,197,o),
(124,291,o),
(124,417,c),
(124,571,o),
(182,644,o),
(274,644,c),
(394,644,o),
(418,531,o),
(430,361,c),
(449,96,l),
(515,96,l),
(534,364,l),
(744,364,l),
(851,364,o),
(898,324,o),
(898,244,c),
(898,176,o),
(859,116,o),
(791,28,c),
(736,-44,o),
(696,-108,o),
(696,-187,c),
(696,-216,o),
(702,-242,o),
(715,-264,c)
);
}
);
width = 1021;
}
);
},
{
export = 0;
glyphname = _GcAa.fina;
layers = (
{
anchors = (
{
name = baluda;
pos = (0,0);
},
{
name = dagalga;
pos = (0,0);
}
);
layerId = "E14AE757-7134-4DB9-897C-AD248BACE90D";
shapes = (
{
closed = 1;
nodes = (
(307,779,o),
(359,833,o),
(359,898,c),
(359,965,o),
(305,1017,o),
(240,1017,c),
(173,1017,o),
(121,963,o),
(121,898,c),
(121,831,o),
(175,779,o),
(240,779,c)
);
},
{
closed = 1;
nodes = (
(204,829,o),
(172,855,o),
(172,898,c),
(172,938,o),
(201,966,o),
(240,966,c),
(280,966,o),
(309,936,o),
(309,898,c),
(309,859,o),
(279,829,o),
(240,829,c)
);
},
{
closed = 1;
nodes = (
(749,-264,l),
(735,-238,o),
(728,-213,o),
(728,-187,c),
(728,-125,o),
(748,-92,o),
(795,-31,c),
(869,64,o),
(928,155,o),
(928,245,c),
(928,373,o),
(850,444,o),
(697,444,c),
(455,444,l),
(434,614,o),
(376,727,o),
(226,727,c),
(86,727,o),
(-3,605,o),
(-3,418,c),
(-3,300,o),
(40,174,o),
(126,42,c),
(197,85,l),
(121,197,o),
(76,291,o),
(76,417,c),
(76,571,o),
(134,644,o),
(226,644,c),
(346,644,o),
(370,531,o),
(382,361,c),
(401,96,l),
(467,96,l),
(486,364,l),
(696,364,l),
(803,364,o),
(850,324,o),
(850,244,c),
(850,176,o),
(811,116,o),
(743,28,c),
(688,-44,o),
(648,-108,o),
(648,-187,c),
(648,-216,o),
(654,-242,o),
(667,-264,c)
);
}
);
width = 973;
}
);
},
{
export = 0;
glyphname = _GI.init;
layers = (
{
layerId = "E14AE757-7134-4DB9-897C-AD248BACE90D";
shapes = (
{
closed = 1;
nodes = (
(695,-31,l),
(613,98,o),
(559,230,o),
(533,364,c),
(840,364,l),
(840,444,l),
(523,444,l),
(509,575,o),
(472,667,o),
(413,720,c),
(381,747,o),
(339,760,o),
(287,760,c),
(235,760,o),
(191,745,o),
(155,716,c),
(118,686,o),
(91,644,o),
(72,590,c),
(54,538,o),
(45,480,o),
(45,417,c),
(45,299,o),
(88,174,o),
(174,42,c),
(245,85,l),
(204,144,o),
(173,200,o),
(154,251,c),
(134,302,o),
(124,358,o),
(124,417,c),
(124,466,o),
(130,509,o),
(141,548,c),
(152,586,o),
(170,617,o),
(193,641,c),
(217,665,o),
(248,677,o),
(287,677,c),
(320,677,o),
(347,669,o),
(368,652,c),
(388,635,o),
(404,608,o),
(416,572,c),
(427,542,o),
(437,491,o),
(447,418,c),
(459,333,o),
(478,252,o),
(505,176,c),
(533,96,o),
(572,15,o),
(622,-67,c)
);
}
);
width = 810;
}
);
},
{
export = 0;
glyphname = _GI.medi;
layers = (
{
layerId = "E14AE757-7134-4DB9-897C-AD248BACE90D";
shapes = (
{
closed = 1;
nodes = (
(647,-31,l),
(565,98,o),
(511,230,o),
(485,364,c),
(792,364,l),
(792,444,l),
(475,444,l),
(461,575,o),
(424,667,o),
(365,720,c),
(333,747,o),
(291,760,o),
(239,760,c),
(187,760,o),
(143,745,o),
(107,716,c),
(70,686,o),
(43,644,o),
(24,590,c),
(6,538,o),
(-3,480,o),
(-3,417,c),
(-3,299,o),
(40,174,o),
(126,42,c),
(197,85,l),
(156,144,o),
(125,200,o),
(106,251,c),
(86,302,o),
(76,358,o),
(76,417,c),
(76,466,o),
(82,509,o),
(93,548,c),
(104,586,o),
(122,617,o),
(145,641,c),
(169,665,o),
(200,677,o),
(239,677,c),
(272,677,o),
(299,669,o),
(320,652,c),
(340,635,o),
(356,608,o),
(368,572,c),
(379,542,o),
(389,491,o),
(399,418,c),
(411,333,o),
(430,252,o),
(457,176,c),
(485,96,o),
(524,15,o),
(574,-67,c)
);
}
);
width = 762;
}
);
},
{
export = 0;
glyphname = _GI.isol;
layers = (
{
layerId = "E14AE757-7134-4DB9-897C-AD248BACE90D";
shapes = (
{
closed = 1;
nodes = (
(695,-31,l),
(613,98,o),
(559,230,o),
(533,364,c),
(840,364,l),
(875,364,o),
(900,357,o),
(915,343,c),
(930,328,o),
(938,307,o),
(938,279,c),
(938,235,o),
(931,196,o),
(916,162,c),
(990,162,l),
(1007,198,o),
(1015,237,o),
(1015,279,c),
(1016,389,o),
(957,444,o),
(840,444,c),
(523,444,l),
(509,575,o),
(472,667,o),
(413,720,c),
(381,747,o),
(339,760,o),
(287,760,c),
(235,760,o),
(191,745,o),
(155,716,c),
(118,686,o),
(91,644,o),
(72,591,c),
(54,539,o),
(45,481,o),
(45,417,c),
(45,299,o),
(88,174,o),
(174,42,c),
(245,85,l),
(204,144,o),
(173,200,o),
(154,251,c),
(134,302,o),
(124,358,o),
(124,417,c),
(124,466,o),
(130,509,o),
(141,548,c),
(152,586,o),
(170,617,o),
(193,641,c),
(217,665,o),
(248,677,o),
(287,677,c),
(324,677,o),
(352,667,o),
(373,647,c),
(394,627,o),
(410,597,o),
(421,556,c),
(432,517,o),
(440,471,o),
(447,418,c),
(471,246,o),
(529,84,o),
(622,-67,c)
);
}
);
width = 1060;
}
);
},
{
export = 0;
glyphname = _GI.fina;
layers = (
{
layerId = "E14AE757-7134-4DB9-897C-AD248BACE90D";
shapes = (
{
closed = 1;
nodes = (
(647,-31,l),
(565,98,o),
(511,230,o),
(485,364,c),
(792,364,l),
(827,364,o),
(852,357,o),
(867,343,c),
(882,328,o),
(890,307,o),
(890,279,c),
(890,235,o),
(883,196,o),
(868,162,c),
(942,162,l),
(959,198,o),
(967,237,o),
(967,279,c),
(968,389,o),
(909,444,o),
(792,444,c),
(475,444,l),
(461,575,o),
(424,667,o),
(365,720,c),
(333,747,o),
(291,760,o),
(239,760,c),
(187,760,o),
(143,745,o),
(107,716,c),
(70,686,o),
(43,644,o),
(24,591,c),
(6,539,o),
(-3,481,o),
(-3,417,c),
(-3,299,o),
(40,174,o),
(126,42,c),
(197,85,l),
(156,144,o),
(125,200,o),
(106,251,c),
(86,302,o),
(76,358,o),
(76,417,c),
(76,466,o),
(82,509,o),
(93,548,c),
(104,586,o),
(122,617,o),
(145,641,c),
(169,665,o),
(200,677,o),
(239,677,c),
(276,677,o),
(304,667,o),
(325,647,c),
(346,627,o),
(362,597,o),
(373,556,c),
(384,517,o),
(392,471,o),
(399,418,c),
(423,246,o),
(481,84,o),
(574,-67,c)
);
}
);
width = 1012;
}
);
},
{
export = 0;
glyphname = _GhI.init;
layers = (
{
anchors = (
{
name = baluda;
pos = (0,0);
},
{
name = dagalga;
pos = (0,0);
}
);
layerId = "E14AE757-7134-4DB9-897C-AD248BACE90D";
shapes = (
{
closed = 1;
nodes = (
(695,-31,l),
(611,101,o),
(558,232,o),
(533,364,c),
(840,364,l),
(840,444,l),
(523,444,l),
(501,628,o),
(443,760,o),
(287,760,c),
(126,760,o),
(45,606,o),
(45,417,c),
(45,299,o),
(88,174,o),
(174,42,c),
(245,85,l),
(169,197,o),
(124,291,o),
(124,417,c),
(124,557,o),
(170,677,o),
(287,677,c),
(354,677,o),
(390,645,o),
(416,572,c),
(429,536,o),
(438,485,o),
(447,418,c),
(457,340,o),
(476,259,o),
(505,176,c),
(534,92,o),
(574,12,o),
(622,-67,c)
);
},
{
closed = 1;
nodes = (
(282,852,o),
(328,890,o),
(388,933,c),
(327,1002,l),
(288,963,o),
(248,915,o),
(206,856,c),
(249,817,l)
);
}
);
width = 810;
}
);
},
{
export = 0;
glyphname = _GhI.medi;
layers = (
{
anchors = (
{
name = baluda;
pos = (0,0);
},
{
name = dagalga;
pos = (0,0);
}
);
layerId = "E14AE757-7134-4DB9-897C-AD248BACE90D";
shapes = (
{
closed = 1;
nodes = (
(647,-31,l),
(563,101,o),
(510,232,o),
(485,364,c),
(792,364,l),
(792,444,l),
(475,444,l),
(453,628,o),
(395,760,o),
(239,760,c),
(78,760,o),
(-3,606,o),
(-3,417,c),
(-3,299,o),
(40,174,o),
(126,42,c),
(197,85,l),
(121,197,o),
(76,291,o),
(76,417,c),
(76,557,o),
(122,677,o),
(239,677,c),
(306,677,o),
(342,645,o),
(368,572,c),
(381,536,o),
(390,485,o),
(399,418,c),
(409,340,o),
(428,259,o),
(457,176,c),
(486,92,o),
(526,12,o),
(574,-67,c)
);
},
{
closed = 1;
nodes = (
(234,852,o),
(280,890,o),
(340,933,c),
(279,1002,l),
(240,963,o),
(200,915,o),
(158,856,c),
(201,817,l)
);
}
);
width = 762;
}
);
},
{
export = 0;
glyphname = _GhI.isol;
layers = (
{
anchors = (
{
name = baluda;
pos = (0,0);
},
{
name = dagalga;
pos = (0,0);
}
);
layerId = "E14AE757-7134-4DB9-897C-AD248BACE90D";
shapes = (
{
closed = 1;
nodes = (
(282,852,o),
(328,890,o),
(388,933,c),
(327,1002,l),
(288,963,o),
(248,915,o),
(206,856,c),
(249,817,l)
);
},
{
closed = 1;
nodes = (
(695,-31,l),
(611,101,o),
(558,232,o),
(533,364,c),
(840,364,l),
(911,364,o),
(938,333,o),
(938,279,c),
(938,236,o),
(931,197,o),
(916,162,c),
(990,162,l),
(1007,199,o),
(1015,238,o),
(1015,279,c),
(1015,389,o),
(957,444,o),
(840,444,c),
(523,444,l),
(501,628,o),
(443,760,o),
(287,760,c),
(127,760,o),
(45,608,o),
(45,417,c),
(45,299,o),
(88,174,o),
(174,42,c),
(245,85,l),
(169,197,o),
(124,291,o),
(124,417,c),
(124,557,o),
(170,677,o),
(287,677,c),
(400,677,o),
(426,577,o),
(447,418,c),
(469,253,o),
(529,82,o),
(622,-67,c)
);
}
);
width = 1060;
}
);
},
{
export = 0;
glyphname = _GhI.fina;
layers = (
{
anchors = (
{
name = baluda;
pos = (0,0);
},
{
name = dagalga;
pos = (0,0);
}
);
layerId = "E14AE757-7134-4DB9-897C-AD248BACE90D";
shapes = (
{
closed = 1;
nodes = (
(234,852,o),
(280,890,o),
(340,933,c),
(279,1002,l),
(240,963,o),
(200,915,o),
(158,856,c),
(201,817,l)
);
},
{
closed = 1;
nodes = (
(647,-31,l),
(563,101,o),
(510,232,o),
(485,364,c),
(792,364,l),
(863,364,o),
(890,333,o),
(890,279,c),
(890,236,o),
(883,197,o),
(868,162,c),
(942,162,l),
(959,199,o),
(967,238,o),
(967,279,c),
(967,389,o),
(909,444,o),
(792,444,c),
(475,444,l),
(453,628,o),
(395,760,o),
(239,760,c),
(79,760,o),
(-3,608,o),
(-3,417,c),
(-3,299,o),
(40,174,o),
(126,42,c),
(197,85,l),
(121,197,o),
(76,291,o),
(76,417,c),
(76,557,o),
(122,677,o),
(239,677,c),
(352,677,o),
(378,577,o),
(399,418,c),
(421,253,o),
(481,82,o),
(574,-67,c)
);
}
);
width = 1012;
}
);
},
{
export = 0;
glyphname = _GcI.init;
layers = (
{
anchors = (
{
name = baluda;
pos = (0,0);
},
{
name = dagalga;
pos = (0,0);
}
);
layerId = "E14AE757-7134-4DB9-897C-AD248BACE90D";
shapes = (
{
closed = 1;
nodes = (
(695,-31,l),
(611,101,o),
(558,232,o),
(533,364,c),
(840,364,l),
(840,444,l),
(523,444,l),
(501,628,o),
(443,760,o),
(287,760,c),
(126,760,o),
(45,606,o),
(45,417,c),
(45,299,o),
(88,174,o),
(174,42,c),
(245,85,l),
(169,197,o),
(124,291,o),
(124,417,c),
(124,557,o),
(170,677,o),
(287,677,c),
(354,677,o),
(390,645,o),
(416,572,c),
(429,536,o),
(438,485,o),
(447,418,c),
(457,340,o),
(476,259,o),
(505,176,c),
(534,92,o),
(574,12,o),
(622,-67,c)
);
},
{
closed = 1;
nodes = (
(375,809,o),
(427,863,o),
(427,928,c),
(427,995,o),
(373,1047,o),
(308,1047,c),
(241,1047,o),
(189,993,o),
(189,928,c),
(189,861,o),
(243,809,o),
(308,809,c)
);
},
{
closed = 1;
nodes = (
(272,859,o),
(240,885,o),
(240,928,c),
(240,968,o),
(269,996,o),
(308,996,c),
(348,996,o),
(377,966,o),
(377,928,c),
(377,889,o),
(347,859,o),
(308,859,c)
);
}
);
width = 810;
}
);
},
{
export = 0;
glyphname = _GcI.medi;
layers = (
{
anchors = (
{
name = baluda;
pos = (0,0);
},
{
name = dagalga;
pos = (0,0);
}
);
layerId = "E14AE757-7134-4DB9-897C-AD248BACE90D";
shapes = (
{
closed = 1;
nodes = (
(647,-31,l),
(563,101,o),
(510,232,o),
(485,364,c),
(792,364,l),
(792,444,l),
(475,444,l),
(453,628,o),
(395,760,o),
(239,760,c),
(78,760,o),
(-3,606,o),
(-3,417,c),
(-3,299,o),
(40,174,o),
(126,42,c),
(197,85,l),
(121,197,o),
(76,291,o),
(76,417,c),
(76,557,o),
(122,677,o),
(239,677,c),
(306,677,o),
(342,645,o),
(368,572,c),
(381,536,o),
(390,485,o),
(399,418,c),
(409,340,o),
(428,259,o),
(457,176,c),
(486,92,o),
(526,12,o),
(574,-67,c)
);
},
{
closed = 1;
nodes = (
(327,809,o),
(379,863,o),
(379,928,c),
(379,995,o),
(325,1047,o),
(260,1047,c),
(193,1047,o),
(141,993,o),
(141,928,c),
(141,861,o),
(195,809,o),
(260,809,c)
);
},
{
closed = 1;
nodes = (
(224,859,o),
(192,885,o),
(192,928,c),
(192,968,o),
(221,996,o),
(260,996,c),
(300,996,o),
(329,966,o),
(329,928,c),
(329,889,o),
(299,859,o),
(260,859,c)
);
}
);
width = 762;
}
);
},
{
export = 0;
glyphname = _GcI.isol;
layers = (
{
anchors = (
{
name = baluda;
pos = (0,0);
},
{
name = dagalga;
pos = (0,0);
}
);
layerId = "E14AE757-7134-4DB9-897C-AD248BACE90D";
shapes = (
{
closed = 1;
nodes = (
(375,809,o),
(427,863,o),
(427,928,c),
(427,995,o),
(373,1047,o),
(308,1047,c),
(241,1047,o),
(189,993,o),
(189,928,c),
(189,861,o),
(243,809,o),
(308,809,c)
);
},
{
closed = 1;
nodes = (
(272,859,o),
(240,885,o),
(240,928,c),
(240,968,o),
(269,996,o),
(308,996,c),
(348,996,o),
(377,966,o),
(377,928,c),
(377,889,o),
(347,859,o),
(308,859,c)
);
},
{
closed = 1;
nodes = (
(695,-31,l),
(611,101,o),
(558,232,o),
(533,364,c),
(840,364,l),
(911,364,o),
(938,333,o),
(938,279,c),
(938,236,o),
(931,197,o),
(916,162,c),
(990,162,l),
(1007,199,o),
(1015,238,o),
(1015,279,c),
(1015,389,o),
(957,444,o),
(840,444,c),
(523,444,l),
(501,628,o),
(443,760,o),
(287,760,c),
(127,760,o),
(45,608,o),
(45,417,c),
(45,299,o),
(88,174,o),
(174,42,c),
(245,85,l),
(169,197,o),
(124,291,o),
(124,417,c),
(124,557,o),
(170,677,o),
(287,677,c),
(400,677,o),
(426,577,o),
(447,418,c),
(469,253,o),
(529,82,o),
(622,-67,c)
);
}
);
width = 1060;
}
);
},
{
export = 0;
glyphname = _GcI.fina;
layers = (
{
anchors = (
{
name = baluda;
pos = (0,0);
},
{
name = dagalga;
pos = (0,0);
}
);
layerId = "E14AE757-7134-4DB9-897C-AD248BACE90D";
shapes = (
{
closed = 1;
nodes = (
(327,809,o),
(379,863,o),
(379,928,c),
(379,995,o),
(325,1047,o),
(260,1047,c),
(193,1047,o),
(141,993,o),
(141,928,c),
(141,861,o),
(195,809,o),
(260,809,c)
);
},
{
closed = 1;
nodes = (
(224,859,o),
(192,885,o),
(192,928,c),
(192,968,o),
(221,996,o),
(260,996,c),
(300,996,o),
(329,966,o),
(329,928,c),
(329,889,o),
(299,859,o),
(260,859,c)
);
},
{
closed = 1;
nodes = (
(647,-31,l),
(563,101,o),
(510,232,o),
(485,364,c),
(792,364,l),
(863,364,o),
(890,333,o),
(890,279,c),
(890,236,o),
(883,197,o),
(868,162,c),
(942,162,l),
(959,199,o),
(967,238,o),
(967,279,c),
(967,389,o),
(909,444,o),
(792,444,c),
(475,444,l),
(453,628,o),
(395,760,o),
(239,760,c),
(79,760,o),
(-3,608,o),
(-3,417,c),
(-3,299,o),
(40,174,o),
(126,42,c),
(197,85,l),
(121,197,o),
(76,291,o),
(76,417,c),
(76,557,o),
(122,677,o),
(239,677,c),
(352,677,o),
(378,577,o),
(399,418,c),
(421,253,o),
(481,82,o),
(574,-67,c)
);
}
);
width = 1012;
}
);
},
{
export = 0;
glyphname = _GO.init;
layers = (
{
layerId = "E14AE757-7134-4DB9-897C-AD248BACE90D";
shapes = (
{
closed = 1;
nodes = (
(426,124,o),
(388,174,o),
(388,275,c),
(388,308,o),
(393,338,o),
(404,364,c),
(623,364,l),
(624,354,o),
(625,344,o),
(625,334,c),
(625,303,l),
(625,236,o),
(607,185,o),
(571,148,c),
(553,131,o),
(530,123,o),
(502,123,c)
);
},
{
closed = 1;
nodes = (
(585,40,o),
(642,82,o),
(679,165,c),
(696,204,o),
(704,250,o),
(704,302,c),
(704,334,l),
(704,344,o),
(703,354,o),
(702,364,c),
(915,364,l),
(915,444,l),
(693,444,l),
(654,655,o),
(545,760,o),
(365,760,c),
(237,760,o),
(144,704,o),
(85,592,c),
(58,539,o),
(45,477,o),
(45,408,c),
(45,293,o),
(79,171,o),
(146,42,c),
(219,73,l),
(156,198,o),
(124,309,o),
(124,405,c),
(124,459,o),
(133,507,o),
(152,548,c),
(171,589,o),
(198,620,o),
(234,643,c),
(271,666,o),
(314,677,o),
(365,677,c),
(503,677,o),
(586,599,o),
(614,444,c),
(347,444,l),
(335,421,o),
(326,394,o),
(319,363,c),
(312,332,o),
(309,303,o),
(309,275,c),
(309,202,o),
(326,144,o),
(360,103,c),
(394,61,o),
(444,40,o),
(509,40,c)
);
}
);
width = 885;
}
);
},
{
export = 0;
glyphname = _GO.medi;
layers = (
{
layerId = "E14AE757-7134-4DB9-897C-AD248BACE90D";
shapes = (
{
closed = 1;
nodes = (
(379,124,o),
(341,174,o),
(341,275,c),
(341,308,o),
(346,338,o),
(357,364,c),
(576,364,l),
(577,354,o),
(578,344,o),
(578,334,c),
(578,303,l),
(578,236,o),
(560,185,o),
(524,148,c),
(506,131,o),
(483,123,o),
(455,123,c)
);
},
{
closed = 1;
nodes = (
(538,40,o),
(595,82,o),
(632,165,c),
(649,204,o),
(657,250,o),
(657,302,c),
(657,334,l),
(657,344,o),
(656,354,o),
(655,364,c),
(868,364,l),
(868,444,l),
(646,444,l),
(607,655,o),
(498,760,o),
(318,760,c),
(190,760,o),
(97,704,o),
(38,592,c),
(11,539,o),
(-2,477,o),
(-2,408,c),
(-2,293,o),
(32,171,o),
(99,42,c),
(172,73,l),
(109,198,o),
(77,309,o),
(77,405,c),
(77,459,o),
(86,507,o),
(105,548,c),
(124,589,o),
(151,620,o),
(187,643,c),
(224,666,o),
(267,677,o),
(318,677,c),
(456,677,o),
(539,599,o),
(567,444,c),
(300,444,l),
(288,421,o),
(279,394,o),
(272,363,c),
(265,332,o),
(262,303,o),
(262,275,c),
(262,202,o),
(279,144,o),
(313,103,c),
(347,61,o),
(397,40,o),
(462,40,c)
);
}
);
width = 838;
}
);
},
{
export = 0;
glyphname = _GO.isol;
layers = (
{
layerId = "E14AE757-7134-4DB9-897C-AD248BACE90D";
shapes = (
{
closed = 1;
nodes = (
(426,124,o),
(388,174,o),
(388,275,c),
(388,308,o),
(393,338,o),
(404,364,c),
(623,364,l),
(624,355,o),
(625,344,o),
(625,333,c),
(625,301,l),
(625,234,o),
(607,183,o),
(571,147,c),
(553,131,o),
(530,123,o),
(502,123,c)
);
},
{
closed = 1;
nodes = (
(585,40,o),
(642,82,o),
(679,165,c),
(696,204,o),
(704,250,o),
(704,302,c),
(704,437,o),
(678,546,o),
(626,627,c),
(569,716,o),
(482,760,o),
(365,760,c),
(237,760,o),
(144,704,o),
(85,592,c),
(58,539,o),
(45,477,o),
(45,408,c),
(45,293,o),
(79,171,o),
(146,42,c),
(219,73,l),
(156,198,o),
(124,309,o),
(124,405,c),
(124,459,o),
(133,507,o),
(152,548,c),
(171,589,o),
(198,620,o),
(234,643,c),
(271,666,o),
(314,677,o),
(365,677,c),
(503,677,o),
(586,599,o),
(614,444,c),
(347,444,l),
(335,421,o),
(326,394,o),
(319,363,c),
(312,332,o),
(309,303,o),
(309,275,c),
(309,202,o),
(326,144,o),
(360,103,c),
(394,61,o),
(444,40,o),
(509,40,c)
);
}
);
width = 749;
}
);
},
{
export = 0;
glyphname = _GO.fina;
layers = (
{
layerId = "E14AE757-7134-4DB9-897C-AD248BACE90D";
shapes = (
{
closed = 1;
nodes = (
(379,124,o),
(341,174,o),
(341,275,c),
(341,308,o),
(346,338,o),
(357,364,c),
(576,364,l),
(577,355,o),
(578,344,o),
(578,333,c),
(578,301,l),
(578,234,o),
(560,183,o),
(524,147,c),
(506,131,o),
(483,123,o),
(455,123,c)
);
},
{
closed = 1;
nodes = (
(538,40,o),
(595,82,o),
(632,165,c),
(649,204,o),
(657,250,o),
(657,302,c),
(657,437,o),
(631,546,o),
(579,627,c),
(522,716,o),
(435,760,o),
(318,760,c),
(190,760,o),
(97,704,o),
(38,592,c),
(11,539,o),
(-2,477,o),
(-2,408,c),
(-2,293,o),
(32,171,o),
(99,42,c),
(172,73,l),
(109,198,o),
(77,309,o),
(77,405,c),
(77,459,o),
(86,507,o),
(105,548,c),
(124,589,o),
(151,620,o),
(187,643,c),
(224,666,o),
(267,677,o),
(318,677,c),
(456,677,o),
(539,599,o),
(567,444,c),
(300,444,l),
(288,421,o),
(279,394,o),
(272,363,c),
(265,332,o),
(262,303,o),
(262,275,c),
(262,202,o),
(279,144,o),
(313,103,c),
(347,61,o),
(397,40,o),
(462,40,c)
);
}
);
width = 702;
}
);
},
{
export = 0;
glyphname = _GOI.init;
layers = (
{
anchors = (
{
name = baluda;
pos = (0,0);
},
{
name = dagalga;
pos = (0,0);
}
);
layerId = "E14AE757-7134-4DB9-897C-AD248BACE90D";
shapes = (
{
closed = 1;
nodes = (
(1065,-31,l),
(992,100,o),
(936,231,o),
(898,364,c),
(1210,364,l),
(1210,444,l),
(693,444,l),
(658,649,o),
(545,760,o),
(365,760,c),
(170,760,o),
(45,616,o),
(45,408,c),
(45,290,o),
(86,152,o),
(146,42,c),
(219,73,l),
(152,198,o),
(124,313,o),
(124,405,c),
(124,567,o),
(211,677,o),
(365,677,c),
(503,677,o),
(586,599,o),
(614,444,c),
(347,444,l),
(323,397,o),
(309,330,o),
(309,275,c),
(309,132,o),
(376,40,o),
(509,40,c),
(619,40,o),
(704,141,o),
(704,298,c),
(704,319,o),
(704,344,o),
(702,364,c),
(819,364,l),
(857,220,o),
(915,77,o),
(992,-67,c)
);
},
{
closed = 1;
nodes = (
(426,123,o),
(388,174,o),
(388,275,c),
(388,311,o),
(394,341,o),
(404,364,c),
(623,364,l),
(625,344,o),
(625,324,o),
(625,303,c),
(625,204,o),
(586,123,o),
(502,123,c)
);
}
);
width = 1180;
}
);
},
{
export = 0;
glyphname = _GOI.medi;
layers = (
{
anchors = (
{
name = baluda;
pos = (0,0);
},
{
name = dagalga;
pos = (0,0);
}
);
layerId = "E14AE757-7134-4DB9-897C-AD248BACE90D";
shapes = (
{
closed = 1;
nodes = (
(1018,-31,l),
(945,100,o),
(889,231,o),
(851,364,c),
(1163,364,l),
(1163,444,l),
(646,444,l),
(611,649,o),
(498,760,o),
(318,760,c),
(123,760,o),
(-2,616,o),
(-2,408,c),
(-2,290,o),
(39,152,o),
(99,42,c),
(172,73,l),
(105,198,o),
(77,313,o),
(77,405,c),
(77,567,o),
(164,677,o),
(318,677,c),
(456,677,o),
(539,599,o),
(567,444,c),
(300,444,l),
(276,397,o),
(262,330,o),
(262,275,c),
(262,132,o),
(329,40,o),
(462,40,c),
(572,40,o),
(657,141,o),
(657,298,c),
(657,319,o),
(657,344,o),
(655,364,c),
(772,364,l),
(810,220,o),
(868,77,o),
(945,-67,c)
);
},
{
closed = 1;
nodes = (
(379,123,o),
(341,174,o),
(341,275,c),
(341,311,o),
(347,341,o),
(357,364,c),
(576,364,l),
(578,344,o),
(578,324,o),
(578,303,c),
(578,204,o),
(539,123,o),
(455,123,c)
);
}
);
width = 1133;
}
);
},
{
export = 0;
glyphname = _GUe.isol;
layers = (
{
anchors = (
{
name = baluda;
pos = (0,0);
},
{
name = dagalga;
pos = (0,0);
}
);
layerId = "E14AE757-7134-4DB9-897C-AD248BACE90D";
shapes = (
{
closed = 1;
nodes = (
(621,40,o),
(704,144,o),
(704,303,c),
(704,324,o),
(704,344,o),
(702,364,c),
(915,364,l),
(985,364,o),
(1013,333,o),
(1013,279,c),
(1013,236,o),
(1006,197,o),
(991,162,c),
(1065,162,l),
(1082,197,o),
(1090,236,o),
(1090,279,c),
(1090,389,o),
(1032,444,o),
(915,444,c),
(693,444,l),
(658,649,o),
(545,760,o),
(365,760,c),
(170,760,o),
(45,616,o),
(45,408,c),
(45,290,o),
(86,152,o),
(146,42,c),
(219,73,l),
(152,198,o),
(124,313,o),
(124,405,c),
(124,567,o),
(211,677,o),
(365,677,c),
(503,677,o),
(586,599,o),
(614,444,c),
(347,444,l),
(323,397,o),
(309,330,o),
(309,275,c),
(309,131,o),
(377,40,o),
(510,40,c)
);
},
{
closed = 1;
nodes = (
(426,123,o),
(388,174,o),
(388,275,c),
(388,311,o),
(394,341,o),
(404,364,c),
(623,364,l),
(625,344,o),
(625,324,o),
(625,303,c),
(625,204,o),
(586,123,o),
(502,123,c)
);
}
);
width = 1135;
}
);
},
{
export = 0;
glyphname = _GUe.fina;
layers = (
{
anchors = (
{
name = baluda;
pos = (0,0);
},
{
name = dagalga;
pos = (0,0);
}
);
layerId = "E14AE757-7134-4DB9-897C-AD248BACE90D";
shapes = (
{
closed = 1;
nodes = (
(574,40,o),
(657,144,o),
(657,303,c),
(657,324,o),
(657,344,o),
(655,364,c),
(868,364,l),
(938,364,o),
(966,333,o),
(966,279,c),
(966,236,o),
(959,197,o),
(944,162,c),
(1018,162,l),
(1035,197,o),
(1043,236,o),
(1043,279,c),
(1043,389,o),
(985,444,o),
(868,444,c),
(646,444,l),
(611,649,o),
(498,760,o),
(318,760,c),
(123,760,o),
(-2,616,o),
(-2,408,c),
(-2,290,o),
(39,152,o),
(99,42,c),
(172,73,l),
(105,198,o),
(77,313,o),
(77,405,c),
(77,567,o),
(164,677,o),
(318,677,c),
(456,677,o),
(539,599,o),
(567,444,c),
(300,444,l),
(276,397,o),
(262,330,o),
(262,275,c),
(262,131,o),
(330,40,o),
(463,40,c)
);
},
{
closed = 1;
nodes = (
(379,123,o),
(341,174,o),
(341,275,c),
(341,311,o),
(347,341,o),
(357,364,c),
(576,364,l),
(578,344,o),
(578,324,o),
(578,303,c),
(578,204,o),
(539,123,o),
(455,123,c)
);
}
);
width = 1088;
}
);
},
{
export = 0;
glyphname = _GhOI.init;
layers = (
{
anchors = (
{
name = baluda;
pos = (0,0);
},
{
name = dagalga;
pos = (0,0);
}
);
layerId = "E14AE757-7134-4DB9-897C-AD248BACE90D";
shapes = (
{
closed = 1;
nodes = (
(625,243,o),
(614,198,o),
(591,168,c),
(568,138,o),
(538,123,o),
(502,123,c),
(426,124,o),
(388,174,o),
(388,275,c),
(388,311,o),
(393,341,o),
(404,364,c),
(623,364,l),
(624,345,o),
(625,324,o),
(625,303,c)
);
},
{
closed = 1;
nodes = (
(407,1002,l),
(368,964,o),
(328,915,o),
(286,856,c),
(329,817,l),
(362,851,o),
(408,890,o),
(468,933,c)
);
},
{
closed = 1;
nodes = (
(1210,364,l),
(1210,444,l),
(693,444,l),
(675,547,o),
(639,625,o),
(584,679,c),
(528,733,o),
(455,760,o),
(365,760,c),
(302,760,o),
(247,745,o),
(198,716,c),
(149,687,o),
(112,646,o),
(85,593,c),
(58,540,o),
(45,478,o),
(45,408,c),
(45,352,o),
(54,292,o),
(71,229,c),
(89,165,o),
(114,103,o),
(146,42,c),
(219,73,l),
(186,136,o),
(162,195,o),
(147,251,c),
(132,308,o),
(124,359,o),
(124,405,c),
(124,489,o),
(146,555,o),
(189,604,c),
(232,653,o),
(291,677,o),
(365,677,c),
(503,677,o),
(586,599,o),
(614,444,c),
(347,444,l),
(336,423,o),
(327,397,o),
(320,366,c),
(313,335,o),
(309,305,o),
(309,275,c),
(309,197,o),
(327,138,o),
(363,99,c),
(399,60,o),
(447,40,o),
(508,40,c),
(545,40,o),
(579,51,o),
(609,72,c),
(639,94,o),
(662,125,o),
(679,165,c),
(696,205,o),
(704,251,o),
(704,303,c),
(704,324,o),
(703,345,o),
(702,364,c),
(819,364,l),
(857,221,o),
(915,77,o),
(992,-67,c),
(1065,-31,l),
(992,99,o),
(936,231,o),
(898,364,c)
);
}
);
width = 1180;
}
);
},
{
export = 0;
glyphname = _GhOI.medi;
layers = (
{
anchors = (
{
name = baluda;
pos = (0,0);
},
{
name = dagalga;
pos = (0,0);
}
);
layerId = "E14AE757-7134-4DB9-897C-AD248BACE90D";
shapes = (
{
closed = 1;
nodes = (
(578,243,o),
(567,198,o),
(544,168,c),
(521,138,o),
(491,123,o),
(455,123,c),
(379,124,o),
(341,174,o),
(341,275,c),
(341,311,o),
(346,341,o),
(357,364,c),
(576,364,l),
(577,345,o),
(578,324,o),
(578,303,c)
);
},
{
closed = 1;
nodes = (
(360,1002,l),
(321,964,o),
(281,915,o),
(239,856,c),
(282,817,l),
(315,851,o),
(361,890,o),
(421,933,c)
);
},
{
closed = 1;
nodes = (
(1163,364,l),
(1163,444,l),
(646,444,l),
(628,547,o),
(592,625,o),
(537,679,c),
(481,733,o),
(408,760,o),
(318,760,c),
(255,760,o),
(200,745,o),
(151,716,c),
(102,687,o),
(65,646,o),
(38,593,c),
(11,540,o),
(-2,478,o),
(-2,408,c),
(-2,352,o),
(7,292,o),
(24,229,c),
(42,165,o),
(67,103,o),
(99,42,c),
(172,73,l),
(139,136,o),
(115,195,o),
(100,251,c),
(85,308,o),
(77,359,o),
(77,405,c),
(77,489,o),
(99,555,o),
(142,604,c),
(185,653,o),
(244,677,o),
(318,677,c),
(456,677,o),
(539,599,o),
(567,444,c),
(300,444,l),
(289,423,o),
(280,397,o),
(273,366,c),
(266,335,o),
(262,305,o),
(262,275,c),
(262,197,o),
(280,138,o),
(316,99,c),
(352,60,o),
(400,40,o),
(461,40,c),
(498,40,o),
(532,51,o),
(562,72,c),
(592,94,o),
(615,125,o),
(632,165,c),
(649,205,o),
(657,251,o),
(657,303,c),
(657,324,o),
(656,345,o),
(655,364,c),
(772,364,l),
(810,221,o),
(868,77,o),
(945,-67,c),
(1018,-31,l),
(945,99,o),
(889,231,o),
(851,364,c)
);
}
);
width = 1133;
}
);
},
{
export = 0;
glyphname = _GhUe.isol;
layers = (
{
anchors = (
{
name = baluda;
pos = (0,0);
},
{
name = dagalga;
pos = (0,0);
}
);
layerId = "E14AE757-7134-4DB9-897C-AD248BACE90D";
shapes = (
{
closed = 1;
nodes = (
(625,243,o),
(614,198,o),
(591,168,c),
(568,138,o),
(538,123,o),
(502,123,c),
(426,124,o),
(388,174,o),
(388,275,c),
(388,311,o),
(393,341,o),
(404,364,c),
(623,364,l),
(624,345,o),
(625,324,o),
(625,303,c)
);
},
{
closed = 1;
nodes = (
(407,1002,l),
(368,964,o),
(328,915,o),
(286,856,c),
(329,817,l),
(362,851,o),
(408,890,o),
(468,933,c)
);
},
{
closed = 1;
nodes = (
(347,444,l),
(336,423,o),
(327,397,o),
(320,366,c),
(313,335,o),
(309,305,o),
(309,275,c),
(309,197,o),
(327,138,o),
(363,99,c),
(399,60,o),
(447,40,o),
(508,40,c),
(545,40,o),
(579,51,o),
(609,72,c),
(639,94,o),
(662,125,o),
(679,165,c),
(696,205,o),
(704,251,o),
(704,303,c),
(704,324,o),
(703,345,o),
(702,364,c),
(915,364,l),
(950,364,o),
(976,357,o),
(991,342,c),
(1006,327,o),
(1013,306,o),
(1013,279,c),
(1013,236,o),
(1006,197,o),
(991,162,c),
(1065,162,l),
(1082,197,o),
(1090,236,o),
(1090,279,c),
(1091,389,o),
(1032,444,o),
(915,444,c),
(693,444,l),
(675,547,o),
(639,625,o),
(584,679,c),
(528,733,o),
(455,760,o),
(365,760,c),
(302,760,o),
(247,745,o),
(198,716,c),
(149,687,o),
(112,646,o),
(85,593,c),
(58,540,o),
(45,478,o),
(45,408,c),
(45,352,o),
(54,292,o),
(71,229,c),
(89,165,o),
(114,103,o),
(146,42,c),
(219,73,l),
(186,136,o),
(162,195,o),
(147,251,c),
(132,308,o),
(124,359,o),
(124,405,c),
(124,489,o),
(146,555,o),
(189,604,c),
(232,653,o),
(291,677,o),
(365,677,c),
(503,677,o),
(586,599,o),
(614,444,c)
);
}
);
width = 1135;
}
);
},
{
export = 0;
glyphname = _GhUe.fina;
layers = (
{
anchors = (
{
name = baluda;
pos = (0,0);
},
{
name = dagalga;
pos = (0,0);
}
);
layerId = "E14AE757-7134-4DB9-897C-AD248BACE90D";
shapes = (
{
closed = 1;
nodes = (
(578,243,o),
(567,198,o),
(544,168,c),
(521,138,o),
(491,123,o),
(455,123,c),
(379,124,o),
(341,174,o),
(341,275,c),
(341,311,o),
(346,341,o),
(357,364,c),
(576,364,l),
(577,345,o),
(578,324,o),
(578,303,c)
);
},
{
closed = 1;
nodes = (
(360,1002,l),
(321,964,o),
(281,915,o),
(239,856,c),
(282,817,l),
(315,851,o),
(361,890,o),
(421,933,c)
);
},
{
closed = 1;
nodes = (
(300,444,l),
(289,423,o),
(280,397,o),
(273,366,c),
(266,335,o),
(262,305,o),
(262,275,c),
(262,197,o),
(280,138,o),
(316,99,c),
(352,60,o),
(400,40,o),
(461,40,c),
(498,40,o),
(532,51,o),
(562,72,c),
(592,94,o),
(615,125,o),
(632,165,c),
(649,205,o),
(657,251,o),
(657,303,c),
(657,324,o),
(656,345,o),
(655,364,c),
(868,364,l),
(903,364,o),
(929,357,o),
(944,342,c),
(959,327,o),
(966,306,o),
(966,279,c),
(966,236,o),
(959,197,o),
(944,162,c),
(1018,162,l),
(1035,197,o),
(1043,236,o),
(1043,279,c),
(1044,389,o),
(985,444,o),
(868,444,c),
(646,444,l),
(628,547,o),
(592,625,o),
(537,679,c),
(481,733,o),
(408,760,o),
(318,760,c),
(255,760,o),
(200,745,o),
(151,716,c),
(102,687,o),
(65,646,o),
(38,593,c),
(11,540,o),
(-2,478,o),
(-2,408,c),
(-2,352,o),
(7,292,o),
(24,229,c),
(42,165,o),
(67,103,o),
(99,42,c),
(172,73,l),
(139,136,o),
(115,195,o),
(100,251,c),
(85,308,o),
(77,359,o),
(77,405,c),
(77,489,o),
(99,555,o),
(142,604,c),
(185,653,o),
(244,677,o),
(318,677,c),
(456,677,o),
(539,599,o),
(567,444,c)
);
}
);
width = 1088;
}
);
},
{
export = 0;
glyphname = _GcOI.init;
layers = (
{
anchors = (
{
name = baluda;
pos = (0,0);
},
{
name = dagalga;
pos = (0,0);
}
);
layerId = "E14AE757-7134-4DB9-897C-AD248BACE90D";
shapes = (
{
closed = 1;
nodes = (
(310,947,o),
(317,964,o),
(330,977,c),
(343,990,o),
(359,996,o),
(378,996,c),
(398,996,o),
(414,990,o),
(427,977,c),
(440,964,o),
(447,947,o),
(447,928,c),
(447,909,o),
(440,893,o),
(427,879,c),
(414,866,o),
(398,859,o),
(378,859,c),
(359,859,o),
(343,866,o),
(330,879,c),
(317,893,o),
(310,909,o),
(310,928,c)
);
},
{
closed = 1;
nodes = (
(625,243,o),
(614,198,o),
(591,168,c),
(568,138,o),
(538,123,o),
(502,123,c),
(426,124,o),
(388,174,o),
(388,275,c),
(388,311,o),
(393,341,o),
(404,364,c),
(623,364,l),
(624,345,o),
(625,324,o),
(625,303,c)
);
},
{
closed = 1;
nodes = (
(259,895,o),
(271,867,o),
(294,844,c),
(318,821,o),
(346,809,o),
(378,809,c),
(411,809,o),
(439,821,o),
(462,844,c),
(485,867,o),
(497,895,o),
(497,928,c),
(497,961,o),
(485,989,o),
(462,1012,c),
(439,1035,o),
(411,1047,o),
(378,1047,c),
(345,1047,o),
(317,1035,o),
(294,1012,c),
(271,989,o),
(259,961,o),
(259,928,c)
);
},
{
closed = 1;
nodes = (
(1210,364,l),
(1210,444,l),
(693,444,l),
(675,547,o),
(639,625,o),
(584,679,c),
(528,733,o),
(455,760,o),
(365,760,c),
(302,760,o),
(247,745,o),
(198,716,c),
(149,687,o),
(112,646,o),
(85,593,c),
(58,540,o),
(45,478,o),
(45,408,c),
(45,352,o),
(54,292,o),
(71,229,c),
(89,165,o),
(114,103,o),
(146,42,c),
(219,73,l),
(186,136,o),
(162,195,o),
(147,251,c),
(132,308,o),
(124,359,o),
(124,405,c),
(124,489,o),
(146,555,o),
(189,604,c),
(232,653,o),
(291,677,o),
(365,677,c),
(503,677,o),
(586,599,o),
(614,444,c),
(347,444,l),
(336,423,o),
(327,397,o),
(320,366,c),
(313,335,o),
(309,305,o),
(309,275,c),
(309,197,o),
(327,138,o),
(363,99,c),
(399,60,o),
(447,40,o),
(508,40,c),
(545,40,o),
(579,51,o),
(609,72,c),
(639,94,o),
(662,125,o),
(679,165,c),
(696,205,o),
(704,251,o),
(704,303,c),
(704,324,o),
(703,345,o),
(702,364,c),
(819,364,l),
(857,221,o),
(915,77,o),
(992,-67,c),
(1065,-31,l),
(992,99,o),
(936,231,o),
(898,364,c)
);
}
);
width = 1180;
}
);
},
{
export = 0;
glyphname = _GcOI.medi;
layers = (
{
anchors = (
{
name = baluda;
pos = (0,0);
},
{
name = dagalga;
pos = (0,0);
}
);
layerId = "E14AE757-7134-4DB9-897C-AD248BACE90D";
shapes = (
{
closed = 1;
nodes = (
(263,947,o),
(269,964,o),
(282,977,c),
(295,990,o),
(311,996,o),
(331,996,c),
(350,996,o),
(367,990,o),
(380,977,c),
(393,964,o),
(400,947,o),
(400,928,c),
(400,909,o),
(393,893,o),
(380,879,c),
(367,866,o),
(350,859,o),
(331,859,c),
(311,859,o),
(295,866,o),
(282,879,c),
(269,893,o),
(263,909,o),
(263,928,c)
);
},
{
closed = 1;
nodes = (
(578,243,o),
(567,198,o),
(544,168,c),
(521,138,o),
(491,123,o),
(455,123,c),
(379,124,o),
(341,174,o),
(341,275,c),
(341,311,o),
(346,341,o),
(357,364,c),
(576,364,l),
(577,345,o),
(578,324,o),
(578,303,c)
);
},
{
closed = 1;
nodes = (
(212,895,o),
(224,867,o),
(247,844,c),
(270,821,o),
(298,809,o),
(331,809,c),
(364,809,o),
(392,821,o),
(415,844,c),
(438,867,o),
(450,895,o),
(450,928,c),
(450,961,o),
(438,989,o),
(415,1012,c),
(392,1035,o),
(364,1047,o),
(331,1047,c),
(298,1047,o),
(270,1035,o),
(247,1012,c),
(224,989,o),
(212,961,o),
(212,928,c)
);
},
{
closed = 1;
nodes = (
(1163,364,l),
(1163,444,l),
(646,444,l),
(628,547,o),
(592,625,o),
(537,679,c),
(481,733,o),
(408,760,o),
(318,760,c),
(255,760,o),
(200,745,o),
(151,716,c),
(102,687,o),
(65,646,o),
(38,593,c),
(11,540,o),
(-2,478,o),
(-2,408,c),
(-2,352,o),
(7,292,o),
(24,229,c),
(42,165,o),
(67,103,o),
(99,42,c),
(172,73,l),
(139,136,o),
(115,195,o),
(100,251,c),
(85,308,o),
(77,359,o),
(77,405,c),
(77,489,o),
(99,555,o),
(142,604,c),
(185,653,o),
(244,677,o),
(318,677,c),
(456,677,o),
(539,599,o),
(567,444,c),
(300,444,l),
(289,423,o),
(280,397,o),
(273,366,c),
(266,335,o),
(262,305,o),
(262,275,c),
(262,197,o),
(280,138,o),
(316,99,c),
(352,60,o),
(400,40,o),
(461,40,c),
(498,40,o),
(532,51,o),
(562,72,c),
(592,94,o),
(615,125,o),
(632,165,c),
(649,205,o),
(657,251,o),
(657,303,c),
(657,324,o),
(656,345,o),
(655,364,c),
(772,364,l),
(810,221,o),
(868,77,o),
(945,-67,c),
(1018,-31,l),
(945,99,o),
(889,231,o),
(851,364,c)
);
}
);
width = 1133;
}
);
},
{
export = 0;
glyphname = _GcUe.isol;
layers = (
{
anchors = (
{
name = baluda;
pos = (0,0);
},
{
name = dagalga;
pos = (0,0);
}
);
layerId = "E14AE757-7134-4DB9-897C-AD248BACE90D";
shapes = (
{
closed = 1;
nodes = (
(310,947,o),
(317,964,o),
(330,977,c),
(343,990,o),
(359,996,o),
(378,996,c),
(398,996,o),
(414,990,o),
(427,977,c),
(440,964,o),
(447,947,o),
(447,928,c),
(447,909,o),
(440,893,o),
(427,879,c),
(414,866,o),
(398,859,o),
(378,859,c),
(359,859,o),
(343,866,o),
(330,879,c),
(317,893,o),
(310,909,o),
(310,928,c)
);
},
{
closed = 1;
nodes = (
(625,243,o),
(614,198,o),
(591,168,c),
(568,138,o),
(538,123,o),
(502,123,c),
(426,124,o),
(388,174,o),
(388,275,c),
(388,311,o),
(393,341,o),
(404,364,c),
(623,364,l),
(624,345,o),
(625,324,o),
(625,303,c)
);
},
{
closed = 1;
nodes = (
(259,895,o),
(271,867,o),
(294,844,c),
(318,821,o),
(346,809,o),
(378,809,c),
(411,809,o),
(439,821,o),
(462,844,c),
(485,867,o),
(497,895,o),
(497,928,c),
(497,961,o),
(485,989,o),
(462,1012,c),
(439,1035,o),
(411,1047,o),
(378,1047,c),
(345,1047,o),
(317,1035,o),
(294,1012,c),
(271,989,o),
(259,961,o),
(259,928,c)
);
},
{
closed = 1;
nodes = (
(347,444,l),
(336,423,o),
(327,397,o),
(320,366,c),
(313,335,o),
(309,305,o),
(309,275,c),
(309,197,o),
(327,138,o),
(363,99,c),
(399,60,o),
(447,40,o),
(508,40,c),
(545,40,o),
(579,51,o),
(609,72,c),
(639,94,o),
(662,125,o),
(679,165,c),
(696,205,o),
(704,251,o),
(704,303,c),
(704,324,o),
(703,345,o),
(702,364,c),
(915,364,l),
(950,364,o),
(976,357,o),
(991,342,c),
(1006,327,o),
(1013,306,o),
(1013,279,c),
(1013,236,o),
(1006,197,o),
(991,162,c),
(1065,162,l),
(1082,197,o),
(1090,236,o),
(1090,279,c),
(1091,389,o),
(1032,444,o),
(915,444,c),
(693,444,l),
(675,547,o),
(639,625,o),
(584,679,c),
(528,733,o),
(455,760,o),
(365,760,c),
(302,760,o),
(247,745,o),
(198,716,c),
(149,687,o),
(112,646,o),
(85,593,c),
(58,540,o),
(45,478,o),
(45,408,c),
(45,352,o),
(54,292,o),
(71,229,c),
(89,165,o),
(114,103,o),
(146,42,c),
(219,73,l),
(186,136,o),
(162,195,o),
(147,251,c),
(132,308,o),
(124,359,o),
(124,405,c),
(124,489,o),
(146,555,o),
(189,604,c),
(232,653,o),
(291,677,o),
(365,677,c),
(503,677,o),
(586,599,o),
(614,444,c)
);
}
);
width = 1135;
}
);
},
{
export = 0;
glyphname = _GcUe.fina;
layers = (
{
anchors = (
{
name = baluda;
pos = (0,0);
},
{
name = dagalga;
pos = (0,0);
}
);
layerId = "E14AE757-7134-4DB9-897C-AD248BACE90D";
shapes = (
{
closed = 1;
nodes = (
(263,947,o),
(269,964,o),
(282,977,c),
(295,990,o),
(311,996,o),
(331,996,c),
(350,996,o),
(367,990,o),
(380,977,c),
(393,964,o),
(400,947,o),
(400,928,c),
(400,909,o),
(393,893,o),
(380,879,c),
(367,866,o),
(350,859,o),
(331,859,c),
(311,859,o),
(295,866,o),
(282,879,c),
(269,893,o),
(263,909,o),
(263,928,c)
);
},
{
closed = 1;
nodes = (
(578,243,o),
(567,198,o),
(544,168,c),
(521,138,o),
(491,123,o),
(455,123,c),
(379,124,o),
(341,174,o),
(341,275,c),
(341,311,o),
(346,341,o),
(357,364,c),
(576,364,l),
(577,345,o),
(578,324,o),
(578,303,c)
);
},
{
closed = 1;
nodes = (
(212,895,o),
(224,867,o),
(247,844,c),
(270,821,o),
(298,809,o),
(331,809,c),
(364,809,o),
(392,821,o),
(415,844,c),
(438,867,o),
(450,895,o),
(450,928,c),
(450,961,o),
(438,989,o),
(415,1012,c),
(392,1035,o),
(364,1047,o),
(331,1047,c),
(298,1047,o),
(270,1035,o),
(247,1012,c),
(224,989,o),
(212,961,o),
(212,928,c)
);
},
{
closed = 1;
nodes = (
(300,444,l),
(289,423,o),
(280,397,o),
(273,366,c),
(266,335,o),
(262,305,o),
(262,275,c),
(262,197,o),
(280,138,o),
(316,99,c),
(352,60,o),
(400,40,o),
(461,40,c),
(498,40,o),
(532,51,o),
(562,72,c),
(592,94,o),
(615,125,o),
(632,165,c),
(649,205,o),
(657,251,o),
(657,303,c),
(657,324,o),
(656,345,o),
(655,364,c),
(868,364,l),
(903,364,o),
(929,357,o),
(944,342,c),
(959,327,o),
(966,306,o),
(966,279,c),
(966,236,o),
(959,197,o),
(944,162,c),
(1018,162,l),
(1035,197,o),
(1043,236,o),
(1043,279,c),
(1044,389,o),
(985,444,o),
(868,444,c),
(646,444,l),
(628,547,o),
(592,625,o),
(537,679,c),
(481,733,o),
(408,760,o),
(318,760,c),
(255,760,o),
(200,745,o),
(151,716,c),
(102,687,o),
(65,646,o),
(38,593,c),
(11,540,o),
(-2,478,o),
(-2,408,c),
(-2,352,o),
(7,292,o),
(24,229,c),
(42,165,o),
(67,103,o),
(99,42,c),
(172,73,l),
(139,136,o),
(115,195,o),
(100,251,c),
(85,308,o),
(77,359,o),
(77,405,c),
(77,489,o),
(99,555,o),
(142,604,c),
(185,653,o),
(244,677,o),
(318,677,c),
(456,677,o),
(539,599,o),
(567,444,c)
);
}
);
width = 1088;
}
);
},
{
export = 0;
glyphname = _GhO.init;
layers = (
{
anchors = (
{
name = baluda;
pos = (0,0);
},
{
name = dagalga;
pos = (0,0);
}
);
layerId = "E14AE757-7134-4DB9-897C-AD248BACE90D";
shapes = (
{
closed = 1;
nodes = (
(622,40,o),
(704,145,o),
(704,302,c),
(704,323,o),
(704,344,o),
(702,364,c),
(915,364,l),
(915,444,l),
(693,444,l),
(658,649,o),
(545,760,o),
(365,760,c),
(170,760,o),
(45,616,o),
(45,408,c),
(45,290,o),
(86,152,o),
(146,42,c),
(219,73,l),
(152,198,o),
(124,313,o),
(124,405,c),
(124,567,o),
(211,677,o),
(365,677,c),
(503,677,o),
(586,599,o),
(614,444,c),
(347,444,l),
(323,397,o),
(309,330,o),
(309,275,c),
(309,132,o),
(376,40,o),
(509,40,c)
);
},
{
closed = 1;
nodes = (
(426,123,o),
(388,174,o),
(388,275,c),
(388,311,o),
(394,341,o),
(404,364,c),
(623,364,l),
(625,344,o),
(625,324,o),
(625,303,c),
(625,204,o),
(586,123,o),
(502,123,c)
);
},
{
closed = 1;
nodes = (
(362,852,o),
(408,890,o),
(468,933,c),
(407,1002,l),
(368,963,o),
(328,915,o),
(286,856,c),
(329,817,l)
);
}
);
width = 885;
}
);
},
{
export = 0;
glyphname = _GhO.medi;
layers = (
{
anchors = (
{
name = baluda;
pos = (0,0);
},
{
name = dagalga;
pos = (0,0);
}
);
layerId = "E14AE757-7134-4DB9-897C-AD248BACE90D";
shapes = (
{
closed = 1;
nodes = (
(575,40,o),
(657,145,o),
(657,302,c),
(657,323,o),
(657,344,o),
(655,364,c),
(868,364,l),
(868,444,l),
(646,444,l),
(611,649,o),
(498,760,o),
(318,760,c),
(123,760,o),
(-2,616,o),
(-2,408,c),
(-2,290,o),
(39,152,o),
(99,42,c),
(172,73,l),
(105,198,o),
(77,313,o),
(77,405,c),
(77,567,o),
(164,677,o),
(318,677,c),
(456,677,o),
(539,599,o),
(567,444,c),
(300,444,l),
(276,397,o),
(262,330,o),
(262,275,c),
(262,132,o),
(329,40,o),
(462,40,c)
);
},
{
closed = 1;
nodes = (
(379,123,o),
(341,174,o),
(341,275,c),
(341,311,o),
(347,341,o),
(357,364,c),
(576,364,l),
(578,344,o),
(578,324,o),
(578,303,c),
(578,204,o),
(539,123,o),
(455,123,c)
);
},
{
closed = 1;
nodes = (
(315,852,o),
(361,890,o),
(421,933,c),
(360,1002,l),
(321,963,o),
(281,915,o),
(239,856,c),
(282,817,l)
);
}
);
width = 838;
}
);
},
{
export = 0;
glyphname = _GhO.isol;
layers = (
{
anchors = (
{
name = baluda;
pos = (0,0);
},
{
name = dagalga;
pos = (0,0);
}
);
layerId = "E14AE757-7134-4DB9-897C-AD248BACE90D";
shapes = (
{
closed = 1;
nodes = (
(623,40,o),
(704,145,o),
(704,302,c),
(704,558,o),
(607,760,o),
(365,760,c),
(170,760,o),
(45,616,o),
(45,408,c),
(45,290,o),
(86,152,o),
(146,42,c),
(219,73,l),
(152,198,o),
(124,313,o),
(124,405,c),
(124,567,o),
(211,677,o),
(365,677,c),
(503,677,o),
(586,599,o),
(614,444,c),
(347,444,l),
(323,397,o),
(309,330,o),
(309,275,c),
(309,132,o),
(376,40,o),
(509,40,c)
);
},
{
closed = 1;
nodes = (
(426,123,o),
(388,174,o),
(388,275,c),
(388,311,o),
(394,341,o),
(404,364,c),
(623,364,l),
(625,344,o),
(625,322,o),
(625,301,c),
(625,203,o),
(585,123,o),
(502,123,c)
);
},
{
closed = 1;
nodes = (
(362,852,o),
(408,890,o),
(468,933,c),
(407,1002,l),
(368,963,o),
(328,915,o),
(286,856,c),
(329,817,l)
);
}
);
width = 749;
}
);
},
{
export = 0;
glyphname = _GhO.fina;
layers = (
{
anchors = (
{
name = baluda;
pos = (0,0);
},
{
name = dagalga;
pos = (0,0);
}
);
layerId = "E14AE757-7134-4DB9-897C-AD248BACE90D";
shapes = (
{
closed = 1;
nodes = (
(576,40,o),
(657,145,o),
(657,302,c),
(657,558,o),
(560,760,o),
(318,760,c),
(123,760,o),
(-2,616,o),
(-2,408,c),
(-2,290,o),
(39,152,o),
(99,42,c),
(172,73,l),
(105,198,o),
(77,313,o),
(77,405,c),
(77,567,o),
(164,677,o),
(318,677,c),
(456,677,o),
(539,599,o),
(567,444,c),
(300,444,l),
(276,397,o),
(262,330,o),
(262,275,c),
(262,132,o),
(329,40,o),
(462,40,c)
);
},
{
closed = 1;
nodes = (
(379,123,o),
(341,174,o),
(341,275,c),
(341,311,o),
(347,341,o),
(357,364,c),
(576,364,l),
(578,344,o),
(578,322,o),
(578,301,c),
(578,203,o),
(538,123,o),
(455,123,c)
);
},
{
closed = 1;
nodes = (
(315,852,o),
(361,890,o),
(421,933,c),
(360,1002,l),
(321,963,o),
(281,915,o),
(239,856,c),
(282,817,l)
);
}
);
width = 702;
}
);
},
{
export = 0;
glyphname = _GcO.init;
layers = (
{
anchors = (
{
name = baluda;
pos = (0,0);
},
{
name = dagalga;
pos = (0,0);
}
);
layerId = "E14AE757-7134-4DB9-897C-AD248BACE90D";
shapes = (
{
closed = 1;
nodes = (
(622,40,o),
(704,145,o),
(704,302,c),
(704,323,o),
(704,344,o),
(702,364,c),
(915,364,l),
(915,444,l),
(693,444,l),
(658,649,o),
(545,760,o),
(365,760,c),
(170,760,o),
(45,616,o),
(45,408,c),
(45,290,o),
(86,152,o),
(146,42,c),
(219,73,l),
(152,198,o),
(124,313,o),
(124,405,c),
(124,567,o),
(211,677,o),
(365,677,c),
(503,677,o),
(586,599,o),
(614,444,c),
(347,444,l),
(323,397,o),
(309,330,o),
(309,275,c),
(309,132,o),
(376,40,o),
(509,40,c)
);
},
{
closed = 1;
nodes = (
(426,123,o),
(388,174,o),
(388,275,c),
(388,311,o),
(394,341,o),
(404,364,c),
(623,364,l),
(625,344,o),
(625,324,o),
(625,303,c),
(625,204,o),
(586,123,o),
(502,123,c)
);
},
{
closed = 1;
nodes = (
(445,809,o),
(497,863,o),
(497,928,c),
(497,995,o),
(443,1047,o),
(378,1047,c),
(311,1047,o),
(259,993,o),
(259,928,c),
(259,861,o),
(313,809,o),
(378,809,c)
);
},
{
closed = 1;
nodes = (
(342,859,o),
(310,885,o),
(310,928,c),
(310,968,o),
(339,996,o),
(378,996,c),
(418,996,o),
(447,966,o),
(447,928,c),
(447,889,o),
(417,859,o),
(378,859,c)
);
}
);
width = 885;
}
);
},
{
export = 0;
glyphname = _GcO.medi;
layers = (
{
anchors = (
{
name = baluda;
pos = (0,0);
},
{
name = dagalga;
pos = (0,0);
}
);
layerId = "E14AE757-7134-4DB9-897C-AD248BACE90D";
shapes = (
{
closed = 1;
nodes = (
(575,40,o),
(657,145,o),
(657,302,c),
(657,323,o),
(657,344,o),
(655,364,c),
(868,364,l),
(868,444,l),
(646,444,l),
(611,649,o),
(498,760,o),
(318,760,c),
(123,760,o),
(-2,616,o),
(-2,408,c),
(-2,290,o),
(39,152,o),
(99,42,c),
(172,73,l),
(105,198,o),
(77,313,o),
(77,405,c),
(77,567,o),
(164,677,o),
(318,677,c),
(456,677,o),
(539,599,o),
(567,444,c),
(300,444,l),
(276,397,o),
(262,330,o),
(262,275,c),
(262,132,o),
(329,40,o),
(462,40,c)
);
},
{
closed = 1;
nodes = (
(379,123,o),
(341,174,o),
(341,275,c),
(341,311,o),
(347,341,o),
(357,364,c),
(576,364,l),
(578,344,o),
(578,324,o),
(578,303,c),
(578,204,o),
(539,123,o),
(455,123,c)
);
},
{
closed = 1;
nodes = (
(398,809,o),
(450,863,o),
(450,928,c),
(450,995,o),
(396,1047,o),
(331,1047,c),
(264,1047,o),
(212,993,o),
(212,928,c),
(212,861,o),
(266,809,o),
(331,809,c)
);
},
{
closed = 1;
nodes = (
(295,859,o),
(263,885,o),
(263,928,c),
(263,968,o),
(292,996,o),
(331,996,c),
(371,996,o),
(400,966,o),
(400,928,c),
(400,889,o),
(370,859,o),
(331,859,c)
);
}
);
width = 838;
}
);
},
{
export = 0;
glyphname = _GcO.isol;
layers = (
{
anchors = (
{
name = baluda;
pos = (0,0);
},
{
name = dagalga;
pos = (0,0);
}
);
layerId = "E14AE757-7134-4DB9-897C-AD248BACE90D";
shapes = (
{
closed = 1;
nodes = (
(623,40,o),
(704,145,o),
(704,302,c),
(704,558,o),
(607,760,o),
(365,760,c),
(170,760,o),
(45,616,o),
(45,408,c),
(45,290,o),
(86,152,o),
(146,42,c),
(219,73,l),
(152,198,o),
(124,313,o),
(124,405,c),
(124,567,o),
(211,677,o),
(365,677,c),
(503,677,o),
(586,599,o),
(614,444,c),
(347,444,l),
(323,397,o),
(309,330,o),
(309,275,c),
(309,132,o),
(376,40,o),
(509,40,c)
);
},
{
closed = 1;
nodes = (
(426,123,o),
(388,174,o),
(388,275,c),
(388,311,o),
(394,341,o),
(404,364,c),
(623,364,l),
(625,344,o),
(625,322,o),
(625,301,c),
(625,203,o),
(585,123,o),
(502,123,c)
);
},
{
closed = 1;
nodes = (
(445,809,o),
(497,863,o),
(497,928,c),
(497,995,o),
(443,1047,o),
(378,1047,c),
(311,1047,o),
(259,993,o),
(259,928,c),
(259,861,o),
(313,809,o),
(378,809,c)
);
},
{
closed = 1;
nodes = (
(342,859,o),
(310,885,o),
(310,928,c),
(310,968,o),
(339,996,o),
(378,996,c),
(418,996,o),
(447,966,o),
(447,928,c),
(447,889,o),
(417,859,o),
(378,859,c)
);
}
);
width = 749;
}
);
},
{
export = 0;
glyphname = _GcO.fina;
layers = (
{
anchors = (
{
name = baluda;
pos = (0,0);
},
{
name = dagalga;
pos = (0,0);
}
);
layerId = "E14AE757-7134-4DB9-897C-AD248BACE90D";
shapes = (
{
closed = 1;
nodes = (
(576,40,o),
(657,145,o),
(657,302,c),
(657,558,o),
(560,760,o),
(318,760,c),
(123,760,o),
(-2,616,o),
(-2,408,c),
(-2,290,o),
(39,152,o),
(99,42,c),
(172,73,l),
(105,198,o),
(77,313,o),
(77,405,c),
(77,567,o),
(164,677,o),
(318,677,c),
(456,677,o),
(539,599,o),
(567,444,c),
(300,444,l),
(276,397,o),
(262,330,o),
(262,275,c),
(262,132,o),
(329,40,o),
(462,40,c)
);
},
{
closed = 1;
nodes = (
(379,123,o),
(341,174,o),
(341,275,c),
(341,311,o),
(347,341,o),
(357,364,c),
(576,364,l),
(578,344,o),
(578,322,o),
(578,301,c),
(578,203,o),
(538,123,o),
(455,123,c)
);
},
{
closed = 1;
nodes = (
(398,809,o),
(450,863,o),
(450,928,c),
(450,995,o),
(396,1047,o),
(331,1047,c),
(264,1047,o),
(212,993,o),
(212,928,c),
(212,861,o),
(266,809,o),
(331,809,c)
);
},
{
closed = 1;
nodes = (
(295,859,o),
(263,885,o),
(263,928,c),
(263,968,o),
(292,996,o),
(331,996,c),
(371,996,o),
(400,966,o),
(400,928,c),
(400,889,o),
(370,859,o),
(331,859,c)
);
}
);
width = 702;
}
);
},
{
export = 0;
glyphname = _BA.init;
layers = (
{
layerId = "E14AE757-7134-4DB9-897C-AD248BACE90D";
shapes = (
{
closed = 1;
nodes = (
(173,123,o),
(127,203,o),
(124,364,c),
(362,364,l),
(369,346,o),
(372,316,o),
(372,275,c),
(372,230,o),
(363,194,o),
(345,166,c),
(326,137,o),
(299,123,o),
(264,123,c)
);
},
{
closed = 1;
nodes = (
(340,40,o),
(393,77,o),
(428,152,c),
(443,187,o),
(451,228,o),
(451,275,c),
(451,295,o),
(449,324,o),
(444,361,c),
(439,398,o),
(434,425,o),
(428,444,c),
(124,444,l),
(126,546,o),
(161,620,o),
(228,666,c),
(262,688,o),
(303,699,o),
(352,699,c),
(422,699,o),
(475,671,o),
(512,616,c),
(549,561,o),
(571,477,o),
(579,364,c),
(598,96,l),
(664,96,l),
(683,364,l),
(893,364,l),
(893,444,l),
(652,444,l),
(635,579,o),
(586,677,o),
(506,738,c),
(465,767,o),
(413,782,o),
(352,782,c),
(220,782,o),
(129,722,o),
(80,603,c),
(57,547,o),
(45,482,o),
(45,408,c),
(45,163,o),
(120,40,o),
(271,40,c)
);
}
);
width = 863;
}
);
},
{
export = 0;
glyphname = _BA.medi;
layers = (
{
layerId = "E14AE757-7134-4DB9-897C-AD248BACE90D";
shapes = (
{
closed = 1;
nodes = (
(127,123,o),
(81,203,o),
(78,364,c),
(316,364,l),
(323,346,o),
(326,316,o),
(326,275,c),
(326,230,o),
(317,194,o),
(299,166,c),
(280,137,o),
(253,123,o),
(218,123,c)
);
},
{
closed = 1;
nodes = (
(294,40,o),
(347,77,o),
(382,152,c),
(397,187,o),
(405,228,o),
(405,275,c),
(405,295,o),
(403,324,o),
(398,361,c),
(393,398,o),
(388,425,o),
(382,444,c),
(78,444,l),
(80,546,o),
(115,620,o),
(182,666,c),
(216,688,o),
(257,699,o),
(306,699,c),
(376,699,o),
(429,671,o),
(466,616,c),
(503,561,o),
(525,477,o),
(533,364,c),
(552,96,l),
(618,96,l),
(637,364,l),
(847,364,l),
(847,444,l),
(606,444,l),
(589,579,o),
(540,677,o),
(460,738,c),
(419,767,o),
(367,782,o),
(306,782,c),
(174,782,o),
(83,722,o),
(34,603,c),
(11,547,o),
(-1,482,o),
(-1,408,c),
(-1,163,o),
(74,40,o),
(225,40,c)
);
}
);
width = 817;
}
);
},
{
export = 0;
glyphname = _BAa.isol;
layers = (
{
layerId = "E14AE757-7134-4DB9-897C-AD248BACE90D";
shapes = (
{
closed = 1;
nodes = (
(173,123,o),
(127,203,o),
(124,364,c),
(362,364,l),
(369,346,o),
(372,316,o),
(372,275,c),
(372,230,o),
(363,194,o),
(345,166,c),
(326,137,o),
(299,123,o),
(264,123,c)
);
},
{
closed = 1;
nodes = (
(946,-264,l),
(932,-237,o),
(925,-212,o),
(925,-187,c),
(925,-157,o),
(930,-132,o),
(940,-111,c),
(949,-90,o),
(967,-64,o),
(992,-31,c),
(1035,25,o),
(1068,75,o),
(1091,119,c),
(1114,162,o),
(1125,204,o),
(1125,245,c),
(1123,378,o),
(1046,444,o),
(894,444,c),
(652,444,l),
(635,579,o),
(586,677,o),
(506,738,c),
(465,767,o),
(413,782,o),
(352,782,c),
(220,782,o),
(129,722,o),
(80,603,c),
(57,547,o),
(45,482,o),
(45,408,c),
(45,163,o),
(120,40,o),
(270,40,c),
(341,40,o),
(394,78,o),
(428,153,c),
(443,188,o),
(451,229,o),
(451,275,c),
(451,295,o),
(449,324,o),
(444,361,c),
(439,398,o),
(434,425,o),
(428,444,c),
(124,444,l),
(126,546,o),
(161,620,o),
(228,666,c),
(262,688,o),
(303,699,o),
(352,699,c),
(422,699,o),
(475,671,o),
(512,616,c),
(549,561,o),
(571,477,o),
(579,364,c),
(598,96,l),
(664,96,l),
(683,364,l),
(893,364,l),
(996,365,o),
(1047,325,o),
(1047,245,c),
(1047,213,o),
(1039,181,o),
(1022,148,c),
(1005,115,o),
(977,75,o),
(940,28,c),
(909,-13,o),
(885,-50,o),
(869,-83,c),
(853,-116,o),
(845,-151,o),
(845,-187,c),
(845,-214,o),
(851,-239,o),
(864,-264,c)
);
}
);
width = 1170;
}
);
},
{
export = 0;
glyphname = _BAa.fina;
layers = (
{
layerId = "E14AE757-7134-4DB9-897C-AD248BACE90D";
shapes = (
{
closed = 1;
nodes = (
(127,123,o),
(81,203,o),
(78,364,c),
(316,364,l),
(323,346,o),
(326,316,o),
(326,275,c),
(326,230,o),
(317,194,o),
(299,166,c),
(280,137,o),
(253,123,o),
(218,123,c)
);
},
{
closed = 1;
nodes = (
(900,-264,l),
(886,-237,o),
(879,-212,o),
(879,-187,c),
(879,-157,o),
(884,-132,o),
(894,-111,c),
(903,-90,o),
(921,-64,o),
(946,-31,c),
(989,25,o),
(1022,75,o),
(1045,119,c),
(1068,162,o),
(1079,204,o),
(1079,245,c),
(1077,378,o),
(1000,444,o),
(848,444,c),
(606,444,l),
(589,579,o),
(540,677,o),
(460,738,c),
(419,767,o),
(367,782,o),
(306,782,c),
(174,782,o),
(83,722,o),
(34,603,c),
(11,547,o),
(-1,482,o),
(-1,408,c),
(-1,163,o),
(74,40,o),
(224,40,c),
(295,40,o),
(348,78,o),
(382,153,c),
(397,188,o),
(405,229,o),
(405,275,c),
(405,295,o),
(403,324,o),
(398,361,c),
(393,398,o),
(388,425,o),
(382,444,c),
(78,444,l),
(80,546,o),
(115,620,o),
(182,666,c),
(216,688,o),
(257,699,o),
(306,699,c),
(376,699,o),
(429,671,o),
(466,616,c),
(503,561,o),
(525,477,o),
(533,364,c),
(552,96,l),
(618,96,l),
(637,364,l),
(847,364,l),
(950,365,o),
(1001,325,o),
(1001,245,c),
(1001,213,o),
(993,181,o),
(976,148,c),
(959,115,o),
(931,75,o),
(894,28,c),
(863,-13,o),
(839,-50,o),
(823,-83,c),
(807,-116,o),
(799,-151,o),
(799,-187,c),
(799,-214,o),
(805,-239,o),
(818,-264,c)
);
}
);
width = 1124;
}
);
},
{
export = 0;
glyphname = _BAh.init;
layers = (
{
anchors = (
{
name = baluda;
pos = (0,0);
},
{
name = dagalga;
pos = (0,0);
}
);
layerId = "E14AE757-7134-4DB9-897C-AD248BACE90D";
shapes = (
{
closed = 1;
nodes = (
(375,40,o),
(451,134,o),
(451,275,c),
(451,312,o),
(440,410,o),
(428,444,c),
(124,444,l),
(126,592,o),
(204,699,o),
(352,699,c),
(493,699,o),
(563,586,o),
(579,364,c),
(598,96,l),
(664,96,l),
(683,364,l),
(893,364,l),
(893,444,l),
(652,444,l),
(625,637,o),
(535,782,o),
(352,782,c),
(150,782,o),
(45,630,o),
(45,408,c),
(45,161,o),
(119,40,o),
(271,40,c)
);
},
{
closed = 1;
nodes = (
(173,123,o),
(126,203,o),
(124,364,c),
(362,364,l),
(369,345,o),
(372,315,o),
(372,275,c),
(372,190,o),
(337,123,o),
(264,123,c)
);
},
{
closed = 1;
nodes = (
(329,842,l),
(362,877,o),
(408,915,o),
(468,958,c),
(407,1027,l),
(368,988,o),
(328,940,o),
(286,881,c)
);
}
);
width = 863;
}
);
},
{
export = 0;
glyphname = _BAh.medi;
layers = (
{
anchors = (
{
name = baluda;
pos = (0,0);
},
{
name = dagalga;
pos = (0,0);
}
);
layerId = "E14AE757-7134-4DB9-897C-AD248BACE90D";
shapes = (
{
closed = 1;
nodes = (
(329,40,o),
(405,134,o),
(405,275,c),
(405,312,o),
(394,410,o),
(382,444,c),
(78,444,l),
(80,592,o),
(158,699,o),
(306,699,c),
(447,699,o),
(517,586,o),
(533,364,c),
(552,96,l),
(618,96,l),
(637,364,l),
(847,364,l),
(847,444,l),
(606,444,l),
(579,637,o),
(489,782,o),
(306,782,c),
(104,782,o),
(-1,630,o),
(-1,408,c),
(-1,161,o),
(73,40,o),
(225,40,c)
);
},
{
closed = 1;
nodes = (
(127,123,o),
(80,203,o),
(78,364,c),
(316,364,l),
(323,345,o),
(326,315,o),
(326,275,c),
(326,190,o),
(291,123,o),
(218,123,c)
);
},
{
closed = 1;
nodes = (
(283,842,l),
(316,877,o),
(362,915,o),
(422,958,c),
(361,1027,l),
(322,988,o),
(282,940,o),
(240,881,c)
);
}
);
width = 817;
}
);
},
{
export = 0;
glyphname = _BAt.isol;
layers = (
{
anchors = (
{
name = baluda;
pos = (0,0);
},
{
name = dagalga;
pos = (0,0);
}
);
layerId = "E14AE757-7134-4DB9-897C-AD248BACE90D";
shapes = (
{
closed = 1;
nodes = (
(946,-264,l),
(932,-238,o),
(925,-213,o),
(925,-187,c),
(925,-124,o),
(943,-95,o),
(992,-31,c),
(1066,66,o),
(1125,155,o),
(1125,245,c),
(1125,373,o),
(1047,444,o),
(894,444,c),
(652,444,l),
(625,637,o),
(535,782,o),
(352,782,c),
(150,782,o),
(45,630,o),
(45,408,c),
(45,161,o),
(119,40,o),
(270,40,c),
(376,40,o),
(451,137,o),
(451,275,c),
(451,312,o),
(440,410,o),
(428,444,c),
(124,444,l),
(126,592,o),
(204,699,o),
(352,699,c),
(493,699,o),
(563,586,o),
(579,364,c),
(598,96,l),
(664,96,l),
(683,364,l),
(893,364,l),
(1000,364,o),
(1047,325,o),
(1047,245,c),
(1047,177,o),
(1008,116,o),
(940,28,c),
(885,-44,o),
(845,-110,o),
(845,-187,c),
(845,-217,o),
(852,-242,o),
(864,-264,c)
);
},
{
closed = 1;
nodes = (
(173,123,o),
(126,203,o),
(124,364,c),
(362,364,l),
(369,345,o),
(372,315,o),
(372,275,c),
(372,190,o),
(337,123,o),
(264,123,c)
);
},
{
closed = 1;
nodes = (
(329,842,l),
(362,877,o),
(408,915,o),
(468,958,c),
(407,1027,l),
(368,988,o),
(328,940,o),
(286,881,c)
);
}
);
width = 1170;
}
);
},
{
export = 0;
glyphname = _BAt.fina;
layers = (
{
anchors = (
{
name = baluda;
pos = (0,0);
},
{
name = dagalga;
pos = (0,0);
}
);
layerId = "E14AE757-7134-4DB9-897C-AD248BACE90D";
shapes = (
{
closed = 1;
nodes = (
(900,-264,l),
(886,-238,o),
(879,-213,o),
(879,-187,c),
(879,-124,o),
(897,-95,o),
(946,-31,c),
(1020,66,o),
(1079,155,o),
(1079,245,c),
(1079,373,o),
(1001,444,o),
(848,444,c),
(606,444,l),
(579,637,o),
(489,782,o),
(306,782,c),
(104,782,o),
(-1,630,o),
(-1,408,c),
(-1,161,o),
(73,40,o),
(224,40,c),
(330,40,o),
(405,137,o),
(405,275,c),
(405,312,o),
(394,410,o),
(382,444,c),
(78,444,l),
(80,592,o),
(158,699,o),
(306,699,c),
(447,699,o),
(517,586,o),
(533,364,c),
(552,96,l),
(618,96,l),
(637,364,l),
(847,364,l),
(954,364,o),
(1001,325,o),
(1001,245,c),
(1001,177,o),
(962,116,o),
(894,28,c),
(839,-44,o),
(799,-110,o),
(799,-187,c),
(799,-217,o),
(806,-242,o),
(818,-264,c)
);
},
{
closed = 1;
nodes = (
(127,123,o),
(80,203,o),
(78,364,c),
(316,364,l),
(323,345,o),
(326,315,o),
(326,275,c),
(326,190,o),
(291,123,o),
(218,123,c)
);
},
{
closed = 1;
nodes = (
(283,842,l),
(316,877,o),
(362,915,o),
(422,958,c),
(361,1027,l),
(322,988,o),
(282,940,o),
(240,881,c)
);
}
);
width = 1124;
}
);
},
{
export = 0;
glyphname = _BI.init;
layers = (
{
layerId = "E14AE757-7134-4DB9-897C-AD248BACE90D";
shapes = (
{
closed = 1;
nodes = (
(173,123,o),
(127,203,o),
(124,364,c),
(362,364,l),
(369,345,o),
(372,314,o),
(372,271,c),
(372,227,o),
(363,191,o),
(344,164,c),
(325,137,o),
(298,123,o),
(264,123,c)
);
},
{
closed = 1;
nodes = (
(802,-31,l),
(721,113,o),
(667,245,o),
(642,364,c),
(947,364,l),
(947,444,l),
(627,444,l),
(602,589,o),
(554,688,o),
(481,741,c),
(442,768,o),
(391,782,o),
(330,782,c),
(242,782,o),
(172,749,o),
(121,683,c),
(70,618,o),
(45,526,o),
(45,408,c),
(44,163,o),
(119,40,o),
(272,40,c),
(343,40,o),
(396,78,o),
(429,154,c),
(444,190,o),
(451,230,o),
(451,275,c),
(451,295,o),
(449,324,o),
(444,361,c),
(439,398,o),
(434,425,o),
(428,444,c),
(124,444,l),
(125,545,o),
(156,619,o),
(217,666,c),
(248,688,o),
(285,699,o),
(330,699,c),
(375,699,o),
(413,688,o),
(442,666,c),
(471,643,o),
(495,610,o),
(513,567,c),
(530,525,o),
(543,475,o),
(552,418,c),
(569,324,o),
(588,249,o),
(609,192,c),
(634,126,o),
(674,40,o),
(729,-67,c)
);
}
);
width = 917;
}
);
},
{
export = 0;
glyphname = _BI.medi;
layers = (
{
layerId = "E14AE757-7134-4DB9-897C-AD248BACE90D";
shapes = (
{
closed = 1;
nodes = (
(127,123,o),
(81,203,o),
(78,364,c),
(316,364,l),
(323,345,o),
(326,314,o),
(326,271,c),
(326,227,o),
(317,191,o),
(298,164,c),
(279,137,o),
(252,123,o),
(218,123,c)
);
},
{
closed = 1;
nodes = (
(756,-31,l),
(675,113,o),
(621,245,o),
(596,364,c),
(901,364,l),
(901,444,l),
(581,444,l),
(556,589,o),
(508,688,o),
(435,741,c),
(396,768,o),
(345,782,o),
(284,782,c),
(196,782,o),
(126,749,o),
(75,683,c),
(24,618,o),
(-1,526,o),
(-1,408,c),
(-2,163,o),
(73,40,o),
(226,40,c),
(297,40,o),
(350,78,o),
(383,154,c),
(398,190,o),
(405,230,o),
(405,275,c),
(405,295,o),
(403,324,o),
(398,361,c),
(393,398,o),
(388,425,o),
(382,444,c),
(78,444,l),
(79,545,o),
(110,619,o),
(171,666,c),
(202,688,o),
(239,699,o),
(284,699,c),
(329,699,o),
(367,688,o),
(396,666,c),
(425,643,o),
(449,610,o),
(467,567,c),
(484,525,o),
(497,475,o),
(506,418,c),
(523,324,o),
(542,249,o),
(563,192,c),
(588,126,o),
(628,40,o),
(683,-67,c)
);
}
);
width = 871;
}
);
},
{
export = 0;
glyphname = _BI.isol;
layers = (
{
layerId = "E14AE757-7134-4DB9-897C-AD248BACE90D";
shapes = (
{
closed = 1;
nodes = (
(173,123,o),
(127,203,o),
(124,364,c),
(362,364,l),
(369,346,o),
(372,316,o),
(372,275,c),
(372,230,o),
(363,194,o),
(345,166,c),
(326,137,o),
(299,123,o),
(264,123,c)
);
},
{
closed = 1;
nodes = (
(802,-31,l),
(721,113,o),
(667,245,o),
(642,364,c),
(947,364,l),
(982,364,o),
(1007,357,o),
(1022,343,c),
(1037,328,o),
(1045,307,o),
(1045,279,c),
(1045,234,o),
(1038,195,o),
(1023,162,c),
(1097,162,l),
(1114,198,o),
(1122,237,o),
(1122,279,c),
(1123,389,o),
(1064,444,o),
(947,444,c),
(627,444,l),
(602,589,o),
(554,688,o),
(481,741,c),
(442,768,o),
(391,782,o),
(330,782,c),
(267,782,o),
(215,766,o),
(172,735,c),
(129,704,o),
(97,659,o),
(76,601,c),
(55,544,o),
(45,480,o),
(45,408,c),
(45,163,o),
(120,40,o),
(270,40,c),
(339,40,o),
(392,78,o),
(428,153,c),
(443,188,o),
(451,229,o),
(451,275,c),
(451,295,o),
(449,324,o),
(444,361,c),
(439,398,o),
(434,425,o),
(428,444,c),
(124,444,l),
(125,545,o),
(156,619,o),
(217,666,c),
(248,688,o),
(285,699,o),
(330,699,c),
(375,699,o),
(413,688,o),
(442,666,c),
(471,643,o),
(495,610,o),
(513,567,c),
(530,525,o),
(543,475,o),
(552,418,c),
(566,335,o),
(585,259,o),
(609,192,c),
(629,136,o),
(669,50,o),
(729,-67,c)
);
}
);
width = 1167;
}
);
},
{
export = 0;
glyphname = _BI.fina;
layers = (
{
layerId = "E14AE757-7134-4DB9-897C-AD248BACE90D";
shapes = (
{
closed = 1;
nodes = (
(127,123,o),
(81,203,o),
(78,364,c),
(316,364,l),
(323,346,o),
(326,316,o),
(326,275,c),
(326,230,o),
(317,194,o),
(299,166,c),
(280,137,o),
(253,123,o),
(218,123,c)
);
},
{
closed = 1;
nodes = (
(756,-31,l),
(675,113,o),
(621,245,o),
(596,364,c),
(901,364,l),
(936,364,o),
(961,357,o),
(976,343,c),
(991,328,o),
(999,307,o),
(999,279,c),
(999,234,o),
(992,195,o),
(977,162,c),
(1051,162,l),
(1068,198,o),
(1076,237,o),
(1076,279,c),
(1077,389,o),
(1018,444,o),
(901,444,c),
(581,444,l),
(556,589,o),
(508,688,o),
(435,741,c),
(396,768,o),
(345,782,o),
(284,782,c),
(221,782,o),
(169,766,o),
(126,735,c),
(83,704,o),
(51,659,o),
(30,601,c),
(9,544,o),
(-1,480,o),
(-1,408,c),
(-1,163,o),
(74,40,o),
(224,40,c),
(293,40,o),
(346,78,o),
(382,153,c),
(397,188,o),
(405,229,o),
(405,275,c),
(405,295,o),
(403,324,o),
(398,361,c),
(393,398,o),
(388,425,o),
(382,444,c),
(78,444,l),
(79,545,o),
(110,619,o),
(171,666,c),
(202,688,o),
(239,699,o),
(284,699,c),
(329,699,o),
(367,688,o),
(396,666,c),
(425,643,o),
(449,610,o),
(467,567,c),
(484,525,o),
(497,475,o),
(506,418,c),
(520,335,o),
(539,259,o),
(563,192,c),
(583,136,o),
(623,50,o),
(683,-67,c)
);
}
);
width = 1121;
}
);
},
{
export = 0;
glyphname = _BO.init;
layers = (
{
layerId = "E14AE757-7134-4DB9-897C-AD248BACE90D";
shapes = (
{
closed = 1;
nodes = (
(127,444,l),
(136,527,o),
(164,590,o),
(211,634,c),
(257,677,o),
(322,699,o),
(405,699,c),
(505,699,o),
(578,659,o),
(625,578,c),
(647,539,o),
(661,495,o),
(668,444,c)
);
},
{
closed = 1;
nodes = (
(216,123,o),
(190,133,o),
(171,153,c),
(152,172,o),
(140,201,o),
(134,239,c),
(127,276,o),
(124,317,o),
(124,364,c),
(359,364,l),
(359,286,l),
(359,238,o),
(350,199,o),
(331,169,c),
(312,138,o),
(285,123,o),
(249,123,c)
);
},
{
closed = 1;
nodes = (
(471,123,o),
(438,177,o),
(438,286,c),
(438,364,l),
(673,364,l),
(672,247,o),
(653,175,o),
(617,147,c),
(598,131,o),
(571,123,o),
(538,123,c)
);
},
{
closed = 1;
nodes = (
(282,40,o),
(311,48,o),
(338,65,c),
(364,81,o),
(383,104,o),
(396,135,c),
(426,72,o),
(473,40,o),
(538,40,c),
(681,40,o),
(753,148,o),
(752,364,c),
(963,364,l),
(963,444,l),
(748,444,l),
(731,585,o),
(673,684,o),
(574,741,c),
(525,768,o),
(469,782,o),
(405,782,c),
(330,782,o),
(266,765,o),
(213,732,c),
(159,698,o),
(117,650,o),
(88,588,c),
(59,527,o),
(45,456,o),
(45,375,c),
(45,264,o),
(62,180,o),
(95,124,c),
(128,68,o),
(179,40,o),
(249,40,c)
);
}
);
width = 933;
}
);
},
{
export = 0;
glyphname = _BO.medi;
layers = (
{
layerId = "E14AE757-7134-4DB9-897C-AD248BACE90D";
shapes = (
{
closed = 1;
nodes = (
(81,444,l),
(90,527,o),
(118,590,o),
(165,634,c),
(211,677,o),
(276,699,o),
(359,699,c),
(459,699,o),
(532,659,o),
(579,578,c),
(601,539,o),
(615,495,o),
(622,444,c)
);
},
{
closed = 1;
nodes = (
(170,123,o),
(144,133,o),
(125,153,c),
(106,172,o),
(94,201,o),
(88,239,c),
(81,276,o),
(78,317,o),
(78,364,c),
(313,364,l),
(313,286,l),
(313,238,o),
(304,199,o),
(285,169,c),
(266,138,o),
(239,123,o),
(203,123,c)
);
},
{
closed = 1;
nodes = (
(425,123,o),
(392,177,o),
(392,286,c),
(392,364,l),
(627,364,l),
(626,247,o),
(607,175,o),
(571,147,c),
(552,131,o),
(525,123,o),
(492,123,c)
);
},
{
closed = 1;
nodes = (
(236,40,o),
(265,48,o),
(292,65,c),
(318,81,o),
(337,104,o),
(350,135,c),
(380,72,o),
(427,40,o),
(492,40,c),
(635,40,o),
(707,148,o),
(706,364,c),
(917,364,l),
(917,444,l),
(702,444,l),
(685,585,o),
(627,684,o),
(528,741,c),
(479,768,o),
(423,782,o),
(359,782,c),
(284,782,o),
(220,765,o),
(167,732,c),
(113,698,o),
(71,650,o),
(42,588,c),
(13,527,o),
(-1,456,o),
(-1,375,c),
(-1,264,o),
(16,180,o),
(49,124,c),
(82,68,o),
(133,40,o),
(203,40,c)
);
}
);
width = 883;
}
);
},
{
export = 0;
glyphname = _BO.isol;
layers = (
{
layerId = "E14AE757-7134-4DB9-897C-AD248BACE90D";
shapes = (
{
closed = 1;
nodes = (
(127,444,l),
(136,527,o),
(164,590,o),
(211,634,c),
(257,677,o),
(322,699,o),
(405,699,c),
(505,699,o),
(578,659,o),
(625,578,c),
(647,539,o),
(661,495,o),
(668,444,c)
);
},
{
closed = 1;
nodes = (
(216,123,o),
(190,133,o),
(171,153,c),
(152,172,o),
(140,201,o),
(134,239,c),
(127,276,o),
(124,317,o),
(124,364,c),
(359,364,l),
(359,286,l),
(359,238,o),
(350,199,o),
(331,169,c),
(312,138,o),
(285,123,o),
(249,123,c)
);
},
{
closed = 1;
nodes = (
(471,123,o),
(438,177,o),
(438,286,c),
(438,364,l),
(673,364,l),
(672,247,o),
(653,175,o),
(617,147,c),
(598,131,o),
(571,123,o),
(538,123,c)
);
},
{
closed = 1;
nodes = (
(282,40,o),
(311,48,o),
(338,65,c),
(364,81,o),
(383,104,o),
(396,135,c),
(426,72,o),
(473,40,o),
(538,40,c),
(611,40,o),
(665,67,o),
(700,122,c),
(735,176,o),
(752,260,o),
(752,375,c),
(752,453,o),
(739,523,o),
(712,584,c),
(685,645,o),
(647,694,o),
(596,729,c),
(545,764,o),
(481,782,o),
(405,782,c),
(330,782,o),
(266,765,o),
(213,732,c),
(159,698,o),
(117,650,o),
(88,588,c),
(59,527,o),
(45,456,o),
(45,375,c),
(45,264,o),
(62,180,o),
(95,124,c),
(128,68,o),
(179,40,o),
(249,40,c)
);
}
);
width = 797;
}
);
},
{
export = 0;
glyphname = _BO.fina;
layers = (
{
layerId = "E14AE757-7134-4DB9-897C-AD248BACE90D";
shapes = (
{
closed = 1;
nodes = (
(81,444,l),
(90,527,o),
(118,590,o),
(165,634,c),
(211,677,o),
(276,699,o),
(359,699,c),
(459,699,o),
(532,659,o),
(579,578,c),
(601,539,o),
(615,495,o),
(622,444,c)
);
},
{
closed = 1;
nodes = (
(170,123,o),
(144,133,o),
(125,153,c),
(106,172,o),
(94,201,o),
(88,239,c),
(81,276,o),
(78,317,o),
(78,364,c),
(313,364,l),
(313,286,l),
(313,238,o),
(304,199,o),
(285,169,c),
(266,138,o),
(239,123,o),
(203,123,c)
);
},
{
closed = 1;
nodes = (
(425,123,o),
(392,177,o),
(392,286,c),
(392,364,l),
(627,364,l),
(626,247,o),
(607,175,o),
(571,147,c),
(552,131,o),
(525,123,o),
(492,123,c)
);
},
{
closed = 1;
nodes = (
(236,40,o),
(265,48,o),
(292,65,c),
(318,81,o),
(337,104,o),
(350,135,c),
(380,72,o),
(427,40,o),
(492,40,c),
(565,40,o),
(619,67,o),
(654,122,c),
(689,176,o),
(706,260,o),
(706,375,c),
(706,453,o),
(693,523,o),
(666,584,c),
(639,645,o),
(601,694,o),
(550,729,c),
(499,764,o),
(435,782,o),
(359,782,c),
(284,782,o),
(220,765,o),
(167,732,c),
(113,698,o),
(71,650,o),
(42,588,c),
(13,527,o),
(-1,456,o),
(-1,375,c),
(-1,264,o),
(16,180,o),
(49,124,c),
(82,68,o),
(133,40,o),
(203,40,c)
);
}
);
width = 751;
}
);
},
{
export = 0;
glyphname = _BOh.init;
layers = (
{
anchors = (
{
name = baluda;
pos = (0,0);
},
{
name = dagalga;
pos = (0,0);
}
);
layerId = "E14AE757-7134-4DB9-897C-AD248BACE90D";
shapes = (
{
closed = 1;
nodes = (
(311,40,o),
(370,72,o),
(396,135,c),
(424,71,o),
(474,40,o),
(538,40,c),
(681,40,o),
(750,146,o),
(752,364,c),
(963,364,l),
(963,444,l),
(748,444,l),
(726,652,o),
(597,782,o),
(405,782,c),
(178,782,o),
(45,617,o),
(45,375,c),
(45,155,o),
(107,40,o),
(249,40,c)
);
},
{
closed = 1;
nodes = (
(145,123,o),
(124,222,o),
(124,364,c),
(359,364,l),
(359,286,l),
(359,195,o),
(325,123,o),
(249,123,c)
);
},
{
closed = 1;
nodes = (
(471,123,o),
(438,177,o),
(438,286,c),
(438,364,l),
(673,364,l),
(668,188,o),
(638,123,o),
(538,123,c)
);
},
{
closed = 1;
nodes = (
(127,444,l),
(145,605,o),
(236,699,o),
(405,699,c),
(556,699,o),
(647,596,o),
(668,444,c)
);
},
{
closed = 1;
nodes = (
(384,839,l),
(417,874,o),
(463,912,o),
(523,955,c),
(462,1024,l),
(423,985,o),
(383,937,o),
(341,878,c)
);
}
);
width = 933;
}
);
},
{
export = 0;
glyphname = _BOh.medi;
layers = (
{
anchors = (
{
name = baluda;
pos = (0,0);
},
{
name = dagalga;
pos = (0,0);
}
);
layerId = "E14AE757-7134-4DB9-897C-AD248BACE90D";
shapes = (
{
closed = 1;
nodes = (
(265,40,o),
(324,72,o),
(350,135,c),
(378,71,o),
(428,40,o),
(492,40,c),
(635,40,o),
(704,146,o),
(706,364,c),
(917,364,l),
(917,444,l),
(702,444,l),
(680,652,o),
(551,782,o),
(359,782,c),
(132,782,o),
(-1,617,o),
(-1,375,c),
(-1,155,o),
(61,40,o),
(203,40,c)
);
},
{
closed = 1;
nodes = (
(99,123,o),
(78,222,o),
(78,364,c),
(313,364,l),
(313,286,l),
(313,195,o),
(279,123,o),
(203,123,c)
);
},
{
closed = 1;
nodes = (
(425,123,o),
(392,177,o),
(392,286,c),
(392,364,l),
(627,364,l),
(622,188,o),
(592,123,o),
(492,123,c)
);
},
{
closed = 1;
nodes = (
(81,444,l),
(99,605,o),
(190,699,o),
(359,699,c),
(510,699,o),
(601,596,o),
(622,444,c)
);
},
{
closed = 1;
nodes = (
(339,839,l),
(372,874,o),
(418,912,o),
(478,955,c),
(417,1024,l),
(378,985,o),
(338,937,o),
(296,878,c)
);
}
);
width = 887;
}
);
},
{
export = 0;
glyphname = _BOh.isol;
layers = (
{
anchors = (
{
name = baluda;
pos = (0,0);
},
{
name = dagalga;
pos = (0,0);
}
);
layerId = "E14AE757-7134-4DB9-897C-AD248BACE90D";
shapes = (
{
closed = 1;
nodes = (
(311,40,o),
(370,72,o),
(396,135,c),
(424,71,o),
(474,40,o),
(538,40,c),
(683,40,o),
(752,146,o),
(752,375,c),
(752,607,o),
(632,782,o),
(405,782,c),
(178,782,o),
(45,617,o),
(45,375,c),
(45,155,o),
(107,40,o),
(249,40,c)
);
},
{
closed = 1;
nodes = (
(145,123,o),
(124,222,o),
(124,364,c),
(359,364,l),
(359,286,l),
(359,195,o),
(325,123,o),
(249,123,c)
);
},
{
closed = 1;
nodes = (
(471,123,o),
(438,177,o),
(438,286,c),
(438,364,l),
(673,364,l),
(668,188,o),
(638,123,o),
(538,123,c)
);
},
{
closed = 1;
nodes = (
(127,444,l),
(145,605,o),
(236,699,o),
(405,699,c),
(556,699,o),
(647,596,o),
(668,444,c)
);
},
{
closed = 1;
nodes = (
(384,839,l),
(417,874,o),
(463,912,o),
(523,955,c),
(462,1024,l),
(423,985,o),
(383,937,o),
(341,878,c)
);
}
);
width = 797;
}
);
},
{
export = 0;
glyphname = _BOh.fina;
layers = (
{
anchors = (
{
name = baluda;
pos = (0,0);
},
{
name = dagalga;
pos = (0,0);
}
);
layerId = "E14AE757-7134-4DB9-897C-AD248BACE90D";
shapes = (
{
closed = 1;
nodes = (
(265,40,o),
(324,72,o),
(350,135,c),
(378,71,o),
(428,40,o),
(492,40,c),
(637,40,o),
(706,146,o),
(706,375,c),
(706,607,o),
(586,782,o),
(359,782,c),
(132,782,o),
(-1,617,o),
(-1,375,c),
(-1,155,o),
(61,40,o),
(203,40,c)
);
},
{
closed = 1;
nodes = (
(99,123,o),
(78,222,o),
(78,364,c),
(313,364,l),
(313,286,l),
(313,195,o),
(279,123,o),
(203,123,c)
);
},
{
closed = 1;
nodes = (
(425,123,o),
(392,177,o),
(392,286,c),
(392,364,l),
(627,364,l),
(622,188,o),
(592,123,o),
(492,123,c)
);
},
{
closed = 1;
nodes = (
(81,444,l),
(99,605,o),
(190,699,o),
(359,699,c),
(510,699,o),
(601,596,o),
(622,444,c)
);
},
{
closed = 1;
nodes = (
(339,839,l),
(372,874,o),
(418,912,o),
(478,955,c),
(417,1024,l),
(378,985,o),
(338,937,o),
(296,878,c)
);
}
);
width = 751;
}
);
},
{
export = 0;
glyphname = _BOI.init;
layers = (
{
layerId = "E14AE757-7134-4DB9-897C-AD248BACE90D";
shapes = (
{
closed = 1;
nodes = (
(127,444,l),
(150,614,o),
(242,699,o),
(405,699,c),
(505,699,o),
(578,659,o),
(625,578,c),
(647,539,o),
(661,495,o),
(668,444,c)
);
},
{
closed = 1;
nodes = (
(214,123,o),
(188,133,o),
(170,153,c),
(151,173,o),
(139,202,o),
(133,241,c),
(127,278,o),
(124,319,o),
(124,364,c),
(359,364,l),
(359,281,l),
(359,234,o),
(349,196,o),
(330,167,c),
(310,138,o),
(283,123,o),
(248,123,c)
);
},
{
closed = 1;
nodes = (
(471,123,o),
(438,177,o),
(438,286,c),
(438,364,l),
(673,364,l),
(672,247,o),
(653,175,o),
(617,147,c),
(598,131,o),
(571,123,o),
(538,123,c)
);
},
{
closed = 1;
nodes = (
(1109,-31,l),
(1036,98,o),
(981,229,o),
(942,364,c),
(1254,364,l),
(1254,444,l),
(748,444,l),
(731,585,o),
(674,684,o),
(575,741,c),
(527,768,o),
(470,782,o),
(405,782,c),
(331,782,o),
(267,765,o),
(213,731,c),
(159,697,o),
(117,649,o),
(88,587,c),
(59,526,o),
(45,455,o),
(45,375,c),
(45,264,o),
(62,180,o),
(95,124,c),
(128,68,o),
(179,40,o),
(249,40,c),
(282,40,o),
(311,48,o),
(338,65,c),
(364,81,o),
(383,104,o),
(396,135,c),
(426,72,o),
(473,40,o),
(538,40,c),
(681,40,o),
(753,148,o),
(752,364,c),
(863,364,l),
(902,219,o),
(959,75,o),
(1036,-67,c)
);
}
);
width = 1224;
}
);
},
{
export = 0;
glyphname = _BOI.medi;
layers = (
{
layerId = "E14AE757-7134-4DB9-897C-AD248BACE90D";
shapes = (
{
closed = 1;
nodes = (
(81,444,l),
(104,614,o),
(196,699,o),
(359,699,c),
(459,699,o),
(532,659,o),
(579,578,c),
(601,539,o),
(615,495,o),
(622,444,c)
);
},
{
closed = 1;
nodes = (
(168,123,o),
(142,133,o),
(124,153,c),
(105,173,o),
(93,202,o),
(87,241,c),
(81,278,o),
(78,319,o),
(78,364,c),
(313,364,l),
(313,281,l),
(313,234,o),
(303,196,o),
(284,167,c),
(264,138,o),
(237,123,o),
(202,123,c)
);
},
{
closed = 1;
nodes = (
(425,123,o),
(392,177,o),
(392,286,c),
(392,364,l),
(627,364,l),
(626,247,o),
(607,175,o),
(571,147,c),
(552,131,o),
(525,123,o),
(492,123,c)
);
},
{
closed = 1;
nodes = (
(1063,-31,l),
(990,98,o),
(935,229,o),
(896,364,c),
(1208,364,l),
(1208,444,l),
(702,444,l),
(685,585,o),
(628,684,o),
(529,741,c),
(481,768,o),
(424,782,o),
(359,782,c),
(285,782,o),
(221,765,o),
(167,731,c),
(113,697,o),
(71,649,o),
(42,587,c),
(13,526,o),
(-1,455,o),
(-1,375,c),
(-1,264,o),
(16,180,o),
(49,124,c),
(82,68,o),
(133,40,o),
(203,40,c),
(236,40,o),
(265,48,o),
(292,65,c),
(318,81,o),
(337,104,o),
(350,135,c),
(380,72,o),
(427,40,o),
(492,40,c),
(635,40,o),
(707,148,o),
(706,364,c),
(817,364,l),
(856,219,o),
(913,75,o),
(990,-67,c)
);
}
);
width = 1178;
}
);
},
{
export = 0;
glyphname = _BUe.isol;
layers = (
{
layerId = "E14AE757-7134-4DB9-897C-AD248BACE90D";
shapes = (
{
closed = 1;
nodes = (
(127,444,l),
(136,527,o),
(164,590,o),
(211,634,c),
(257,677,o),
(322,699,o),
(405,699,c),
(505,699,o),
(578,659,o),
(625,578,c),
(647,539,o),
(661,495,o),
(668,444,c)
);
},
{
closed = 1;
nodes = (
(215,123,o),
(189,133,o),
(171,153,c),
(152,172,o),
(140,201,o),
(134,239,c),
(127,276,o),
(124,317,o),
(124,364,c),
(359,364,l),
(359,282,l),
(359,235,o),
(350,196,o),
(331,167,c),
(312,138,o),
(284,123,o),
(248,123,c)
);
},
{
closed = 1;
nodes = (
(471,123,o),
(438,177,o),
(438,286,c),
(438,364,l),
(673,364,l),
(672,247,o),
(653,175,o),
(617,147,c),
(598,131,o),
(571,123,o),
(538,123,c)
);
},
{
closed = 1;
nodes = (
(282,40,o),
(311,48,o),
(338,65,c),
(364,81,o),
(383,104,o),
(396,135,c),
(426,72,o),
(473,40,o),
(538,40,c),
(681,40,o),
(753,148,o),
(752,364,c),
(963,364,l),
(998,364,o),
(1023,357,o),
(1038,343,c),
(1053,328,o),
(1061,307,o),
(1061,279,c),
(1061,235,o),
(1054,196,o),
(1039,162,c),
(1113,162,l),
(1130,197,o),
(1138,236,o),
(1138,279,c),
(1139,389,o),
(1080,444,o),
(963,444,c),
(748,444,l),
(731,585,o),
(674,684,o),
(575,741,c),
(527,768,o),
(470,782,o),
(405,782,c),
(330,782,o),
(266,765,o),
(213,732,c),
(159,698,o),
(117,650,o),
(88,588,c),
(59,527,o),
(45,456,o),
(45,375,c),
(45,264,o),
(62,180,o),
(95,124,c),
(128,68,o),
(179,40,o),
(249,40,c)
);
}
);
width = 1183;
}
);
},
{
export = 0;
glyphname = _BUe.fina;
layers = (
{
layerId = "E14AE757-7134-4DB9-897C-AD248BACE90D";
shapes = (
{
closed = 1;
nodes = (
(81,444,l),
(90,527,o),
(118,590,o),
(165,634,c),
(211,677,o),
(276,699,o),
(359,699,c),
(459,699,o),
(532,659,o),
(579,578,c),
(601,539,o),
(615,495,o),
(622,444,c)
);
},
{
closed = 1;
nodes = (
(169,123,o),
(143,133,o),
(125,153,c),
(106,172,o),
(94,201,o),
(88,239,c),
(81,276,o),
(78,317,o),
(78,364,c),
(313,364,l),
(313,282,l),
(313,235,o),
(304,196,o),
(285,167,c),
(266,138,o),
(238,123,o),
(202,123,c)
);
},
{
closed = 1;
nodes = (
(425,123,o),
(392,177,o),
(392,286,c),
(392,364,l),
(627,364,l),
(626,247,o),
(607,175,o),
(571,147,c),
(552,131,o),
(525,123,o),
(492,123,c)
);
},
{
closed = 1;
nodes = (
(236,40,o),
(265,48,o),
(292,65,c),
(318,81,o),
(337,104,o),
(350,135,c),
(380,72,o),
(427,40,o),
(492,40,c),
(635,40,o),
(707,148,o),
(706,364,c),
(917,364,l),
(952,364,o),
(977,357,o),
(992,343,c),
(1007,328,o),
(1015,307,o),
(1015,279,c),
(1015,235,o),
(1008,196,o),
(993,162,c),
(1067,162,l),
(1084,197,o),
(1092,236,o),
(1092,279,c),
(1093,389,o),
(1034,444,o),
(917,444,c),
(702,444,l),
(685,585,o),
(628,684,o),
(529,741,c),
(481,768,o),
(424,782,o),
(359,782,c),
(284,782,o),
(220,765,o),
(167,732,c),
(113,698,o),
(71,650,o),
(42,588,c),
(13,527,o),
(-1,456,o),
(-1,375,c),
(-1,264,o),
(16,180,o),
(49,124,c),
(82,68,o),
(133,40,o),
(203,40,c)
);
}
);
width = 1137;
}
);
},
{
export = 0;
glyphname = _PbA.init;
layers = (
{
anchors = (
{
name = baluda;
pos = (0,0);
},
{
name = dagalga;
pos = (0,0);
}
);
layerId = "E14AE757-7134-4DB9-897C-AD248BACE90D";
shapes = (
{
closed = 1;
nodes = (
(375,40,o),
(451,135,o),
(451,272,c),
(451,309,o),
(440,410,o),
(428,444,c),
(124,444,l),
(129,585,o),
(167,650,o),
(241,650,c),
(292,650,o),
(325,627,o),
(356,571,c),
(388,627,o),
(417,650,o),
(466,650,c),
(568,650,o),
(598,513,o),
(609,364,c),
(628,96,l),
(694,96,l),
(713,364,l),
(923,364,l),
(923,444,l),
(682,444,l),
(663,597,o),
(605,733,o),
(466,733,c),
(417,733,o),
(387,715,o),
(356,680,c),
(326,715,o),
(288,733,o),
(241,733,c),
(111,733,o),
(45,617,o),
(45,408,c),
(45,162,o),
(117,40,o),
(271,40,c)
);
},
{
closed = 1;
nodes = (
(173,123,o),
(126,203,o),
(124,364,c),
(362,364,l),
(369,345,o),
(372,315,o),
(372,275,c),
(372,190,o),
(337,123,o),
(264,123,c)
);
}
);
width = 893;
}
);
},
{
export = 0;
glyphname = _PbA.medi;
layers = (
{
anchors = (
{
name = baluda;
pos = (0,0);
},
{
name = dagalga;
pos = (0,0);
}
);
layerId = "E14AE757-7134-4DB9-897C-AD248BACE90D";
shapes = (
{
closed = 1;
nodes = (
(329,40,o),
(405,135,o),
(405,272,c),
(405,309,o),
(394,410,o),
(382,444,c),
(78,444,l),
(83,585,o),
(121,650,o),
(195,650,c),
(246,650,o),
(279,627,o),
(310,571,c),
(342,627,o),
(371,650,o),
(420,650,c),
(522,650,o),
(552,513,o),
(563,364,c),
(582,96,l),
(648,96,l),
(667,364,l),
(877,364,l),
(877,444,l),
(636,444,l),
(617,597,o),
(559,733,o),
(420,733,c),
(371,733,o),
(341,715,o),
(310,680,c),
(280,715,o),
(242,733,o),
(195,733,c),
(65,733,o),
(-1,617,o),
(-1,408,c),
(-1,162,o),
(71,40,o),
(225,40,c)
);
},
{
closed = 1;
nodes = (
(127,123,o),
(80,203,o),
(78,364,c),
(316,364,l),
(323,345,o),
(326,315,o),
(326,275,c),
(326,190,o),
(291,123,o),
(218,123,c)
);
}
);
width = 847;
}
);
},
{
export = 0;
glyphname = _PbAa.isol;
layers = (
{
anchors = (
{
name = baluda;
pos = (0,0);
},
{
name = dagalga;
pos = (0,0);
}
);
layerId = "E14AE757-7134-4DB9-897C-AD248BACE90D";
shapes = (
{
closed = 1;
nodes = (
(962,-240,o),
(955,-214,o),
(955,-187,c),
(955,-122,o),
(974,-94,o),
(1022,-31,c),
(1119,95,o),
(1155,167,o),
(1155,245,c),
(1155,373,o),
(1078,444,o),
(924,444,c),
(682,444,l),
(663,597,o),
(605,733,o),
(466,733,c),
(417,733,o),
(387,715,o),
(356,680,c),
(326,715,o),
(288,733,o),
(241,733,c),
(111,733,o),
(45,617,o),
(45,408,c),
(45,162,o),
(118,40,o),
(271,40,c),
(374,40,o),
(451,135,o),
(451,272,c),
(451,309,o),
(440,410,o),
(428,444,c),
(124,444,l),
(129,585,o),
(167,650,o),
(241,650,c),
(292,650,o),
(325,627,o),
(356,571,c),
(388,627,o),
(417,650,o),
(466,650,c),
(568,650,o),
(598,513,o),
(609,364,c),
(628,96,l),
(694,96,l),
(713,364,l),
(923,364,l),
(1030,364,o),
(1077,325,o),
(1077,245,c),
(1077,186,o),
(1048,127,o),
(970,28,c),
(913,-45,o),
(875,-111,o),
(875,-187,c),
(875,-217,o),
(881,-243,o),
(894,-264,c),
(976,-264,l)
);
},
{
closed = 1;
nodes = (
(173,123,o),
(126,203,o),
(124,364,c),
(362,364,l),
(369,345,o),
(372,315,o),
(372,275,c),
(372,190,o),
(337,123,o),
(264,123,c)
);
}
);
width = 1200;
}
);
},
{
export = 0;
glyphname = _PbAa.fina;
layers = (
{
anchors = (
{
name = baluda;
pos = (0,0);
},
{
name = dagalga;
pos = (0,0);
}
);
layerId = "E14AE757-7134-4DB9-897C-AD248BACE90D";
shapes = (
{
closed = 1;
nodes = (
(930,-264,l),
(916,-240,o),
(909,-214,o),
(909,-187,c),
(909,-122,o),
(928,-94,o),
(976,-31,c),
(1023,30,o),
(1058,82,o),
(1078,123,c),
(1099,165,o),
(1109,206,o),
(1109,245,c),
(1109,373,o),
(1032,444,o),
(878,444,c),
(636,444,l),
(617,597,o),
(559,733,o),
(420,733,c),
(371,733,o),
(341,715,o),
(310,680,c),
(280,715,o),
(242,733,o),
(195,733,c),
(65,733,o),
(-1,617,o),
(-1,408,c),
(-1,162,o),
(72,40,o),
(225,40,c),
(328,40,o),
(405,135,o),
(405,272,c),
(405,309,o),
(394,410,o),
(382,444,c),
(78,444,l),
(83,585,o),
(121,650,o),
(195,650,c),
(246,650,o),
(279,627,o),
(310,571,c),
(342,627,o),
(371,650,o),
(420,650,c),
(522,650,o),
(552,513,o),
(563,364,c),
(582,96,l),
(648,96,l),
(667,364,l),
(877,364,l),
(984,364,o),
(1031,325,o),
(1031,245,c),
(1031,214,o),
(1023,183,o),
(1007,152,c),
(991,121,o),
(965,80,o),
(924,28,c),
(867,-45,o),
(829,-111,o),
(829,-187,c),
(829,-217,o),
(835,-243,o),
(848,-264,c)
);
},
{
closed = 1;
nodes = (
(127,123,o),
(80,203,o),
(78,364,c),
(316,364,l),
(323,345,o),
(326,315,o),
(326,275,c),
(326,190,o),
(291,123,o),
(218,123,c)
);
}
);
width = 1154;
}
);
},
{
export = 0;
glyphname = _PbAh.init;
layers = (
{
anchors = (
{
name = baluda;
pos = (0,0);
},
{
name = dagalga;
pos = (0,0);
}
);
layerId = "E14AE757-7134-4DB9-897C-AD248BACE90D";
shapes = (
{
closed = 1;
nodes = (
(375,40,o),
(451,135,o),
(451,272,c),
(451,309,o),
(440,410,o),
(428,444,c),
(124,444,l),
(129,585,o),
(167,650,o),
(241,650,c),
(292,650,o),
(325,627,o),
(356,571,c),
(388,627,o),
(417,650,o),
(466,650,c),
(568,650,o),
(598,513,o),
(609,364,c),
(628,96,l),
(694,96,l),
(713,364,l),
(923,364,l),
(923,444,l),
(682,444,l),
(663,597,o),
(605,733,o),
(466,733,c),
(417,733,o),
(387,715,o),
(356,680,c),
(326,715,o),
(288,733,o),
(241,733,c),
(111,733,o),
(45,617,o),
(45,408,c),
(45,162,o),
(117,40,o),
(271,40,c)
);
},
{
closed = 1;
nodes = (
(173,123,o),
(126,203,o),
(124,364,c),
(362,364,l),
(369,345,o),
(372,315,o),
(372,275,c),
(372,190,o),
(337,123,o),
(264,123,c)
);
},
{
closed = 1;
nodes = (
(368,822,o),
(414,860,o),
(474,903,c),
(413,972,l),
(374,933,o),
(334,885,o),
(292,826,c),
(335,787,l)
);
}
);
width = 893;
}
);
},
{
export = 0;
glyphname = _PbAh.medi;
layers = (
{
anchors = (
{
name = baluda;
pos = (0,0);
},
{
name = dagalga;
pos = (0,0);
}
);
layerId = "E14AE757-7134-4DB9-897C-AD248BACE90D";
shapes = (
{
closed = 1;
nodes = (
(329,40,o),
(405,135,o),
(405,272,c),
(405,309,o),
(394,410,o),
(382,444,c),
(78,444,l),
(83,585,o),
(121,650,o),
(195,650,c),
(246,650,o),
(279,627,o),
(310,571,c),
(342,627,o),
(371,650,o),
(420,650,c),
(522,650,o),
(552,513,o),
(563,364,c),
(582,96,l),
(648,96,l),
(667,364,l),
(877,364,l),
(877,444,l),
(636,444,l),
(617,597,o),
(559,733,o),
(420,733,c),
(371,733,o),
(341,715,o),
(310,680,c),
(280,715,o),
(242,733,o),
(195,733,c),
(65,733,o),
(-1,617,o),
(-1,408,c),
(-1,162,o),
(71,40,o),
(225,40,c)
);
},
{
closed = 1;
nodes = (
(127,123,o),
(80,203,o),
(78,364,c),
(316,364,l),
(323,345,o),
(326,315,o),
(326,275,c),
(326,190,o),
(291,123,o),
(218,123,c)
);
},
{
closed = 1;
nodes = (
(322,822,o),
(368,860,o),
(428,903,c),
(367,972,l),
(328,933,o),
(288,885,o),
(246,826,c),
(289,787,l)
);
}
);
width = 847;
}
);
},
{
export = 0;
glyphname = _PbAt.isol;
layers = (
{
anchors = (
{
name = baluda;
pos = (0,0);
},
{
name = dagalga;
pos = (0,0);
}
);
layerId = "E14AE757-7134-4DB9-897C-AD248BACE90D";
shapes = (
{
closed = 1;
nodes = (
(976,-264,l),
(962,-240,o),
(955,-214,o),
(955,-187,c),
(955,-122,o),
(974,-94,o),
(1022,-31,c),
(1069,30,o),
(1104,82,o),
(1124,123,c),
(1145,165,o),
(1155,206,o),
(1155,245,c),
(1155,373,o),
(1078,444,o),
(924,444,c),
(682,444,l),
(663,597,o),
(605,733,o),
(466,733,c),
(417,733,o),
(387,715,o),
(356,680,c),
(326,715,o),
(288,733,o),
(241,733,c),
(111,733,o),
(45,617,o),
(45,408,c),
(45,162,o),
(118,40,o),
(271,40,c),
(374,40,o),
(451,135,o),
(451,272,c),
(451,309,o),
(440,410,o),
(428,444,c),
(124,444,l),
(129,585,o),
(167,650,o),
(241,650,c),
(292,650,o),
(325,627,o),
(356,571,c),
(388,627,o),
(417,650,o),
(466,650,c),
(568,650,o),
(598,513,o),
(609,364,c),
(628,96,l),
(694,96,l),
(713,364,l),
(923,364,l),
(1030,364,o),
(1077,325,o),
(1077,245,c),
(1077,214,o),
(1069,183,o),
(1053,152,c),
(1037,121,o),
(1011,80,o),
(970,28,c),
(913,-45,o),
(875,-111,o),
(875,-187,c),
(875,-217,o),
(881,-243,o),
(894,-264,c)
);
},
{
closed = 1;
nodes = (
(173,123,o),
(126,203,o),
(124,364,c),
(362,364,l),
(369,345,o),
(372,315,o),
(372,275,c),
(372,190,o),
(337,123,o),
(264,123,c)
);
},
{
closed = 1;
nodes = (
(368,822,o),
(414,860,o),
(474,903,c),
(413,972,l),
(374,933,o),
(334,885,o),
(292,826,c),
(335,787,l)
);
}
);
width = 1200;
}
);
},
{
export = 0;
glyphname = _PbAt.fina;
layers = (
{
anchors = (
{
name = baluda;
pos = (0,0);
},
{
name = dagalga;
pos = (0,0);
}
);
layerId = "E14AE757-7134-4DB9-897C-AD248BACE90D";
shapes = (
{
closed = 1;
nodes = (
(930,-264,l),
(916,-240,o),
(909,-214,o),
(909,-187,c),
(909,-122,o),
(928,-94,o),
(976,-31,c),
(1023,30,o),
(1058,82,o),
(1078,123,c),
(1099,165,o),
(1109,206,o),
(1109,245,c),
(1109,373,o),
(1032,444,o),
(878,444,c),
(636,444,l),
(617,597,o),
(559,733,o),
(420,733,c),
(371,733,o),
(341,715,o),
(310,680,c),
(280,715,o),
(242,733,o),
(195,733,c),
(65,733,o),
(-1,617,o),
(-1,408,c),
(-1,162,o),
(72,40,o),
(225,40,c),
(328,40,o),
(405,135,o),
(405,272,c),
(405,309,o),
(394,410,o),
(382,444,c),
(78,444,l),
(83,585,o),
(121,650,o),
(195,650,c),
(246,650,o),
(279,627,o),
(310,571,c),
(342,627,o),
(371,650,o),
(420,650,c),
(522,650,o),
(552,513,o),
(563,364,c),
(582,96,l),
(648,96,l),
(667,364,l),
(877,364,l),
(984,364,o),
(1031,325,o),
(1031,245,c),
(1031,214,o),
(1023,183,o),
(1007,152,c),
(991,121,o),
(965,80,o),
(924,28,c),
(867,-45,o),
(829,-111,o),
(829,-187,c),
(829,-217,o),
(835,-243,o),
(848,-264,c)
);
},
{
closed = 1;
nodes = (
(127,123,o),
(80,203,o),
(78,364,c),
(316,364,l),
(323,345,o),
(326,315,o),
(326,275,c),
(326,190,o),
(291,123,o),
(218,123,c)
);
},
{
closed = 1;
nodes = (
(322,822,o),
(368,860,o),
(428,903,c),
(367,972,l),
(328,933,o),
(288,885,o),
(246,826,c),
(289,787,l)
);
}
);
width = 1154;
}
);
},
{
export = 0;
glyphname = _PbI.init;
layers = (
{
anchors = (
{
name = baluda;
pos = (0,0);
},
{
name = dagalga;
pos = (0,0);
}
);
layerId = "E14AE757-7134-4DB9-897C-AD248BACE90D";
shapes = (
{
closed = 1;
nodes = (
(860,-31,l),
(778,117,o),
(725,248,o),
(700,364,c),
(1005,364,l),
(1005,444,l),
(686,444,l),
(655,610,o),
(605,733,o),
(466,733,c),
(417,733,o),
(387,715,o),
(356,680,c),
(326,715,o),
(288,733,o),
(241,733,c),
(111,733,o),
(45,617,o),
(45,408,c),
(45,162,o),
(118,40,o),
(272,40,c),
(374,40,o),
(451,135,o),
(451,272,c),
(451,309,o),
(440,410,o),
(428,444,c),
(124,444,l),
(129,585,o),
(167,650,o),
(241,650,c),
(292,650,o),
(325,627,o),
(356,571,c),
(388,627,o),
(417,650,o),
(466,650,c),
(558,650,o),
(588,548,o),
(610,418,c),
(624,334,o),
(644,259,o),
(667,192,c),
(690,124,o),
(732,39,o),
(787,-67,c)
);
},
{
closed = 1;
nodes = (
(173,123,o),
(126,203,o),
(124,364,c),
(362,364,l),
(369,345,o),
(372,315,o),
(372,275,c),
(372,190,o),
(337,123,o),
(264,123,c)
);
}
);
width = 975;
}
);
},
{
export = 0;
glyphname = _PbI.medi;
layers = (
{
anchors = (
{
name = baluda;
pos = (0,0);
},
{
name = dagalga;
pos = (0,0);
}
);
layerId = "E14AE757-7134-4DB9-897C-AD248BACE90D";
shapes = (
{
closed = 1;
nodes = (
(814,-31,l),
(732,117,o),
(679,248,o),
(654,364,c),
(959,364,l),
(959,444,l),
(640,444,l),
(609,610,o),
(559,733,o),
(420,733,c),
(371,733,o),
(341,715,o),
(310,680,c),
(280,715,o),
(242,733,o),
(195,733,c),
(65,733,o),
(-1,617,o),
(-1,408,c),
(-1,162,o),
(72,40,o),
(226,40,c),
(328,40,o),
(405,135,o),
(405,272,c),
(405,309,o),
(394,410,o),
(382,444,c),
(78,444,l),
(83,585,o),
(121,650,o),
(195,650,c),
(246,650,o),
(279,627,o),
(310,571,c),
(342,627,o),
(371,650,o),
(420,650,c),
(512,650,o),
(542,548,o),
(564,418,c),
(578,334,o),
(598,259,o),
(621,192,c),
(644,124,o),
(686,39,o),
(741,-67,c)
);
},
{
closed = 1;
nodes = (
(127,123,o),
(80,203,o),
(78,364,c),
(316,364,l),
(323,345,o),
(326,315,o),
(326,275,c),
(326,190,o),
(291,123,o),
(218,123,c)
);
}
);
width = 929;
}
);
},
{
export = 0;
glyphname = _PbI.isol;
layers = (
{
anchors = (
{
name = baluda;
pos = (0,0);
},
{
name = dagalga;
pos = (0,0);
}
);
layerId = "E14AE757-7134-4DB9-897C-AD248BACE90D";
shapes = (
{
closed = 1;
nodes = (
(860,-31,l),
(786,101,o),
(727,231,o),
(700,364,c),
(1005,364,l),
(1076,364,o),
(1103,333,o),
(1103,279,c),
(1103,236,o),
(1096,197,o),
(1081,162,c),
(1155,162,l),
(1172,198,o),
(1180,237,o),
(1180,279,c),
(1180,389,o),
(1122,444,o),
(1005,444,c),
(686,444,l),
(656,610,o),
(604,733,o),
(466,733,c),
(417,733,o),
(387,715,o),
(356,680,c),
(326,715,o),
(288,733,o),
(241,733,c),
(111,733,o),
(45,617,o),
(45,408,c),
(45,162,o),
(118,40,o),
(272,40,c),
(375,40,o),
(451,136,o),
(451,273,c),
(451,310,o),
(440,410,o),
(428,444,c),
(124,444,l),
(129,585,o),
(167,650,o),
(241,650,c),
(292,650,o),
(325,627,o),
(356,571,c),
(388,627,o),
(417,650,o),
(466,650,c),
(558,650,o),
(588,548,o),
(610,418,c),
(624,334,o),
(644,259,o),
(667,192,c),
(690,124,o),
(732,39,o),
(787,-67,c)
);
},
{
closed = 1;
nodes = (
(173,123,o),
(126,203,o),
(124,364,c),
(362,364,l),
(369,345,o),
(372,315,o),
(372,275,c),
(372,190,o),
(337,123,o),
(264,123,c)
);
}
);
width = 1225;
}
);
},
{
export = 0;
glyphname = _PbI.fina;
layers = (
{
anchors = (
{
name = baluda;
pos = (0,0);
},
{
name = dagalga;
pos = (0,0);
}
);
layerId = "E14AE757-7134-4DB9-897C-AD248BACE90D";
shapes = (
{
closed = 1;
nodes = (
(814,-31,l),
(740,101,o),
(681,231,o),
(654,364,c),
(959,364,l),
(1030,364,o),
(1057,333,o),
(1057,279,c),
(1057,236,o),
(1050,197,o),
(1035,162,c),
(1109,162,l),
(1126,198,o),
(1134,237,o),
(1134,279,c),
(1134,389,o),
(1076,444,o),
(959,444,c),
(640,444,l),
(610,610,o),
(558,733,o),
(420,733,c),
(371,733,o),
(341,715,o),
(310,680,c),
(280,715,o),
(242,733,o),
(195,733,c),
(65,733,o),
(-1,617,o),
(-1,408,c),
(-1,162,o),
(72,40,o),
(226,40,c),
(329,40,o),
(405,136,o),
(405,273,c),
(405,310,o),
(394,410,o),
(382,444,c),
(78,444,l),
(83,585,o),
(121,650,o),
(195,650,c),
(246,650,o),
(279,627,o),
(310,571,c),
(342,627,o),
(371,650,o),
(420,650,c),
(512,650,o),
(542,548,o),
(564,418,c),
(578,334,o),
(598,259,o),
(621,192,c),
(644,124,o),
(686,39,o),
(741,-67,c)
);
},
{
closed = 1;
nodes = (
(127,123,o),
(80,203,o),
(78,364,c),
(316,364,l),
(323,345,o),
(326,315,o),
(326,275,c),
(326,190,o),
(291,123,o),
(218,123,c)
);
}
);
width = 1179;
}
);
},
{
export = 0;
glyphname = _PbO.init;
layers = (
{
anchors = (
{
name = baluda;
pos = (0,0);
},
{
name = dagalga;
pos = (0,0);
}
);
layerId = "E14AE757-7134-4DB9-897C-AD248BACE90D";
shapes = (
{
closed = 1;
nodes = (
(311,40,o),
(370,72,o),
(396,135,c),
(424,71,o),
(474,40,o),
(538,40,c),
(681,40,o),
(750,146,o),
(752,364,c),
(963,364,l),
(963,444,l),
(749,444,l),
(736,608,o),
(670,733,o),
(516,733,c),
(467,733,o),
(432,715,o),
(396,670,c),
(363,712,o),
(322,733,o),
(271,733,c),
(123,733,o),
(45,606,o),
(45,375,c),
(45,155,o),
(107,40,o),
(249,40,c)
);
},
{
closed = 1;
nodes = (
(145,123,o),
(124,222,o),
(124,364,c),
(359,364,l),
(359,286,l),
(359,195,o),
(325,123,o),
(249,123,c)
);
},
{
closed = 1;
nodes = (
(471,123,o),
(438,177,o),
(438,286,c),
(438,364,l),
(673,364,l),
(668,188,o),
(638,123,o),
(538,123,c)
);
},
{
closed = 1;
nodes = (
(136,585,o),
(183,650,o),
(271,650,c),
(326,650,o),
(363,627,o),
(396,571,c),
(427,623,o),
(461,650,o),
(516,650,c),
(610,650,o),
(658,584,o),
(670,444,c),
(126,444,l)
);
}
);
width = 933;
}
);
},
{
export = 0;
glyphname = _PbO.medi;
layers = (
{
anchors = (
{
name = baluda;
pos = (0,0);
},
{
name = dagalga;
pos = (0,0);
}
);
layerId = "E14AE757-7134-4DB9-897C-AD248BACE90D";
shapes = (
{
closed = 1;
nodes = (
(265,40,o),
(324,72,o),
(350,135,c),
(378,71,o),
(428,40,o),
(492,40,c),
(635,40,o),
(704,146,o),
(706,364,c),
(917,364,l),
(917,444,l),
(703,444,l),
(690,608,o),
(624,733,o),
(470,733,c),
(421,733,o),
(386,715,o),
(350,670,c),
(317,712,o),
(276,733,o),
(225,733,c),
(77,733,o),
(-1,606,o),
(-1,375,c),
(-1,155,o),
(61,40,o),
(203,40,c)
);
},
{
closed = 1;
nodes = (
(99,123,o),
(78,222,o),
(78,364,c),
(313,364,l),
(313,286,l),
(313,195,o),
(279,123,o),
(203,123,c)
);
},
{
closed = 1;
nodes = (
(425,123,o),
(392,177,o),
(392,286,c),
(392,364,l),
(627,364,l),
(622,188,o),
(592,123,o),
(492,123,c)
);
},
{
closed = 1;
nodes = (
(90,585,o),
(137,650,o),
(225,650,c),
(280,650,o),
(317,627,o),
(350,571,c),
(381,623,o),
(415,650,o),
(470,650,c),
(564,650,o),
(612,584,o),
(624,444,c),
(80,444,l)
);
}
);
width = 887;
}
);
},
{
export = 0;
glyphname = _PbO.isol;
layers = (
{
anchors = (
{
name = baluda;
pos = (0,0);
},
{
name = dagalga;
pos = (0,0);
}
);
layerId = "E14AE757-7134-4DB9-897C-AD248BACE90D";
shapes = (
{
closed = 1;
nodes = (
(311,40,o),
(370,72,o),
(396,135,c),
(424,71,o),
(474,40,o),
(538,40,c),
(683,40,o),
(752,146,o),
(752,375,c),
(752,569,o),
(693,733,o),
(516,733,c),
(467,733,o),
(432,715,o),
(396,670,c),
(363,712,o),
(322,733,o),
(271,733,c),
(123,733,o),
(45,606,o),
(45,375,c),
(45,155,o),
(107,40,o),
(249,40,c)
);
},
{
closed = 1;
nodes = (
(144,123,o),
(124,224,o),
(124,364,c),
(359,364,l),
(359,286,l),
(359,195,o),
(325,123,o),
(249,123,c)
);
},
{
closed = 1;
nodes = (
(471,123,o),
(438,177,o),
(438,286,c),
(438,364,l),
(673,364,l),
(668,188,o),
(638,123,o),
(538,123,c)
);
},
{
closed = 1;
nodes = (
(136,585,o),
(183,650,o),
(271,650,c),
(326,650,o),
(363,627,o),
(396,571,c),
(427,623,o),
(461,650,o),
(516,650,c),
(610,650,o),
(658,584,o),
(670,444,c),
(126,444,l)
);
}
);
width = 797;
}
);
},
{
export = 0;
glyphname = _PbO.fina;
layers = (
{
anchors = (
{
name = baluda;
pos = (0,0);
},
{
name = dagalga;
pos = (0,0);
}
);
layerId = "E14AE757-7134-4DB9-897C-AD248BACE90D";
shapes = (
{
closed = 1;
nodes = (
(265,40,o),
(324,72,o),
(350,135,c),
(378,71,o),
(428,40,o),
(492,40,c),
(637,40,o),
(706,146,o),
(706,375,c),
(706,569,o),
(647,733,o),
(470,733,c),
(421,733,o),
(386,715,o),
(350,670,c),
(317,712,o),
(276,733,o),
(225,733,c),
(77,733,o),
(-1,606,o),
(-1,375,c),
(-1,155,o),
(61,40,o),
(203,40,c)
);
},
{
closed = 1;
nodes = (
(98,123,o),
(78,224,o),
(78,364,c),
(313,364,l),
(313,286,l),
(313,195,o),
(279,123,o),
(203,123,c)
);
},
{
closed = 1;
nodes = (
(425,123,o),
(392,177,o),
(392,286,c),
(392,364,l),
(627,364,l),
(622,188,o),
(592,123,o),
(492,123,c)
);
},
{
closed = 1;
nodes = (
(90,585,o),
(137,650,o),
(225,650,c),
(280,650,o),
(317,627,o),
(350,571,c),
(381,623,o),
(415,650,o),
(470,650,c),
(564,650,o),
(612,584,o),
(624,444,c),
(80,444,l)
);
}
);
width = 751;
}
);
},
{
export = 0;
glyphname = _PbOh.init;
layers = (
{
anchors = (
{
name = baluda;
pos = (0,0);
},
{
name = dagalga;
pos = (0,0);
}
);
layerId = "E14AE757-7134-4DB9-897C-AD248BACE90D";
shapes = (
{
closed = 1;
nodes = (
(311,40,o),
(370,72,o),
(396,135,c),
(424,71,o),
(474,40,o),
(538,40,c),
(681,40,o),
(750,146,o),
(752,364,c),
(963,364,l),
(963,444,l),
(749,444,l),
(736,608,o),
(670,733,o),
(516,733,c),
(467,733,o),
(432,715,o),
(396,670,c),
(363,712,o),
(322,733,o),
(271,733,c),
(123,733,o),
(45,606,o),
(45,375,c),
(45,155,o),
(107,40,o),
(249,40,c)
);
},
{
closed = 1;
nodes = (
(145,123,o),
(124,222,o),
(124,364,c),
(359,364,l),
(359,286,l),
(359,195,o),
(325,123,o),
(249,123,c)
);
},
{
closed = 1;
nodes = (
(471,123,o),
(438,177,o),
(438,286,c),
(438,364,l),
(673,364,l),
(668,188,o),
(638,123,o),
(538,123,c)
);
},
{
closed = 1;
nodes = (
(136,585,o),
(183,650,o),
(271,650,c),
(326,650,o),
(363,627,o),
(396,571,c),
(427,623,o),
(461,650,o),
(516,650,c),
(610,650,o),
(658,584,o),
(670,444,c),
(126,444,l)
);
},
{
closed = 1;
nodes = (
(408,822,o),
(454,860,o),
(514,903,c),
(453,972,l),
(414,933,o),
(374,885,o),
(332,826,c),
(375,787,l)
);
}
);
width = 933;
}
);
},
{
export = 0;
glyphname = _PbOh.medi;
layers = (
{
anchors = (
{
name = baluda;
pos = (0,0);
},
{
name = dagalga;
pos = (0,0);
}
);
layerId = "E14AE757-7134-4DB9-897C-AD248BACE90D";
shapes = (
{
closed = 1;
nodes = (
(265,40,o),
(324,72,o),
(350,135,c),
(378,71,o),
(428,40,o),
(492,40,c),
(635,40,o),
(704,146,o),
(706,364,c),
(917,364,l),
(917,444,l),
(703,444,l),
(690,608,o),
(624,733,o),
(470,733,c),
(421,733,o),
(386,715,o),
(350,670,c),
(317,712,o),
(276,733,o),
(225,733,c),
(77,733,o),
(-1,606,o),
(-1,375,c),
(-1,155,o),
(61,40,o),
(203,40,c)
);
},
{
closed = 1;
nodes = (
(99,123,o),
(78,222,o),
(78,364,c),
(313,364,l),
(313,286,l),
(313,195,o),
(279,123,o),
(203,123,c)
);
},
{
closed = 1;
nodes = (
(425,123,o),
(392,177,o),
(392,286,c),
(392,364,l),
(627,364,l),
(622,188,o),
(592,123,o),
(492,123,c)
);
},
{
closed = 1;
nodes = (
(90,585,o),
(137,650,o),
(225,650,c),
(280,650,o),
(317,627,o),
(350,571,c),
(381,623,o),
(415,650,o),
(470,650,c),
(564,650,o),
(612,584,o),
(624,444,c),
(80,444,l)
);
},
{
closed = 1;
nodes = (
(362,822,o),
(408,860,o),
(468,903,c),
(407,972,l),
(368,933,o),
(328,885,o),
(286,826,c),
(329,787,l)
);
}
);
width = 887;
}
);
},
{
export = 0;
glyphname = _PbOh.isol;
layers = (
{
anchors = (
{
name = baluda;
pos = (0,0);
},
{
name = dagalga;
pos = (0,0);
}
);
layerId = "E14AE757-7134-4DB9-897C-AD248BACE90D";
shapes = (
{
closed = 1;
nodes = (
(311,40,o),
(370,72,o),
(396,135,c),
(424,71,o),
(474,40,o),
(538,40,c),
(683,40,o),
(752,146,o),
(752,375,c),
(752,569,o),
(693,733,o),
(516,733,c),
(467,733,o),
(432,715,o),
(396,670,c),
(363,712,o),
(322,733,o),
(271,733,c),
(123,733,o),
(45,606,o),
(45,375,c),
(45,155,o),
(107,40,o),
(249,40,c)
);
},
{
closed = 1;
nodes = (
(144,123,o),
(124,224,o),
(124,364,c),
(359,364,l),
(359,286,l),
(359,195,o),
(325,123,o),
(249,123,c)
);
},
{
closed = 1;
nodes = (
(471,123,o),
(438,177,o),
(438,286,c),
(438,364,l),
(673,364,l),
(668,188,o),
(638,123,o),
(538,123,c)
);
},
{
closed = 1;
nodes = (
(136,585,o),
(183,650,o),
(271,650,c),
(326,650,o),
(363,627,o),
(396,571,c),
(427,623,o),
(461,650,o),
(516,650,c),
(610,650,o),
(658,584,o),
(670,444,c),
(126,444,l)
);
},
{
closed = 1;
nodes = (
(408,822,o),
(454,860,o),
(514,903,c),
(453,972,l),
(414,933,o),
(374,885,o),
(332,826,c),
(375,787,l)
);
}
);
width = 797;
}
);
},
{
export = 0;
glyphname = _PbOh.fina;
layers = (
{
anchors = (
{
name = baluda;
pos = (0,0);
},
{
name = dagalga;
pos = (0,0);
}
);
layerId = "E14AE757-7134-4DB9-897C-AD248BACE90D";
shapes = (
{
closed = 1;
nodes = (
(265,40,o),
(324,72,o),
(350,135,c),
(378,71,o),
(428,40,o),
(492,40,c),
(637,40,o),
(706,146,o),
(706,375,c),
(706,569,o),
(647,733,o),
(470,733,c),
(421,733,o),
(386,715,o),
(350,670,c),
(317,712,o),
(276,733,o),
(225,733,c),
(77,733,o),
(-1,606,o),
(-1,375,c),
(-1,155,o),
(61,40,o),
(203,40,c)
);
},
{
closed = 1;
nodes = (
(98,123,o),
(78,224,o),
(78,364,c),
(313,364,l),
(313,286,l),
(313,195,o),
(279,123,o),
(203,123,c)
);
},
{
closed = 1;
nodes = (
(425,123,o),
(392,177,o),
(392,286,c),
(392,364,l),
(627,364,l),
(622,188,o),
(592,123,o),
(492,123,c)
);
},
{
closed = 1;
nodes = (
(90,585,o),
(137,650,o),
(225,650,c),
(280,650,o),
(317,627,o),
(350,571,c),
(381,623,o),
(415,650,o),
(470,650,c),
(564,650,o),
(612,584,o),
(624,444,c),
(80,444,l)
);
},
{
closed = 1;
nodes = (
(362,822,o),
(408,860,o),
(468,903,c),
(407,972,l),
(368,933,o),
(328,885,o),
(286,826,c),
(329,787,l)
);
}
);
width = 751;
}
);
},
{
export = 0;
glyphname = _PbOI.init;
layers = (
{
anchors = (
{
name = baluda;
pos = (0,0);
},
{
name = dagalga;
pos = (0,0);
}
);
layerId = "E14AE757-7134-4DB9-897C-AD248BACE90D";
shapes = (
{
closed = 1;
nodes = (
(1109,-31,l),
(1037,97,o),
(981,229,o),
(942,364,c),
(1254,364,l),
(1254,444,l),
(749,444,l),
(736,608,o),
(670,733,o),
(516,733,c),
(467,733,o),
(432,715,o),
(396,670,c),
(363,712,o),
(322,733,o),
(271,733,c),
(123,733,o),
(45,606,o),
(45,375,c),
(45,155,o),
(107,40,o),
(249,40,c),
(311,40,o),
(370,72,o),
(396,135,c),
(424,71,o),
(474,40,o),
(538,40,c),
(681,40,o),
(750,146,o),
(752,364,c),
(863,364,l),
(901,220,o),
(958,77,o),
(1036,-67,c)
);
},
{
closed = 1;
nodes = (
(145,123,o),
(124,222,o),
(124,364,c),
(359,364,l),
(359,285,l),
(359,194,o),
(324,123,o),
(249,123,c)
);
},
{
closed = 1;
nodes = (
(471,123,o),
(438,177,o),
(438,286,c),
(438,364,l),
(673,364,l),
(668,188,o),
(638,123,o),
(538,123,c)
);
},
{
closed = 1;
nodes = (
(136,585,o),
(183,650,o),
(271,650,c),
(326,650,o),
(363,627,o),
(396,571,c),
(427,623,o),
(461,650,o),
(516,650,c),
(610,650,o),
(658,584,o),
(670,444,c),
(126,444,l)
);
}
);
width = 1224;
}
);
},
{
export = 0;
glyphname = _PbOI.medi;
layers = (
{
anchors = (
{
name = baluda;
pos = (0,0);
},
{
name = dagalga;
pos = (0,0);
}
);
layerId = "E14AE757-7134-4DB9-897C-AD248BACE90D";
shapes = (
{
closed = 1;
nodes = (
(1063,-31,l),
(991,97,o),
(935,229,o),
(896,364,c),
(1208,364,l),
(1208,444,l),
(703,444,l),
(690,608,o),
(624,733,o),
(470,733,c),
(421,733,o),
(386,715,o),
(350,670,c),
(317,712,o),
(276,733,o),
(225,733,c),
(77,733,o),
(-1,606,o),
(-1,375,c),
(-1,155,o),
(61,40,o),
(203,40,c),
(265,40,o),
(324,72,o),
(350,135,c),
(378,71,o),
(428,40,o),
(492,40,c),
(635,40,o),
(704,146,o),
(706,364,c),
(817,364,l),
(855,220,o),
(912,77,o),
(990,-67,c)
);
},
{
closed = 1;
nodes = (
(99,123,o),
(78,222,o),
(78,364,c),
(313,364,l),
(313,285,l),
(313,194,o),
(278,123,o),
(203,123,c)
);
},
{
closed = 1;
nodes = (
(425,123,o),
(392,177,o),
(392,286,c),
(392,364,l),
(627,364,l),
(622,188,o),
(592,123,o),
(492,123,c)
);
},
{
closed = 1;
nodes = (
(90,585,o),
(137,650,o),
(225,650,c),
(280,650,o),
(317,627,o),
(350,571,c),
(381,623,o),
(415,650,o),
(470,650,c),
(564,650,o),
(612,584,o),
(624,444,c),
(80,444,l)
);
}
);
width = 1178;
}
);
},
{
export = 0;
glyphname = _PbUe.isol;
layers = (
{
anchors = (
{
name = baluda;
pos = (0,0);
},
{
name = dagalga;
pos = (0,0);
}
);
layerId = "E14AE757-7134-4DB9-897C-AD248BACE90D";
shapes = (
{
closed = 1;
nodes = (
(311,40,o),
(370,72,o),
(396,135,c),
(424,71,o),
(474,40,o),
(538,40,c),
(681,40,o),
(750,146,o),
(752,364,c),
(963,364,l),
(1034,364,o),
(1061,333,o),
(1061,279,c),
(1061,236,o),
(1054,197,o),
(1039,162,c),
(1113,162,l),
(1130,198,o),
(1138,237,o),
(1138,279,c),
(1138,389,o),
(1080,444,o),
(963,444,c),
(749,444,l),
(736,608,o),
(670,733,o),
(516,733,c),
(467,733,o),
(432,715,o),
(396,670,c),
(363,712,o),
(322,733,o),
(271,733,c),
(123,733,o),
(45,606,o),
(45,375,c),
(45,155,o),
(107,40,o),
(249,40,c)
);
},
{
closed = 1;
nodes = (
(144,123,o),
(124,222,o),
(124,364,c),
(359,364,l),
(359,285,l),
(359,194,o),
(324,123,o),
(248,123,c)
);
},
{
closed = 1;
nodes = (
(471,123,o),
(438,177,o),
(438,286,c),
(438,364,l),
(673,364,l),
(668,188,o),
(638,123,o),
(538,123,c)
);
},
{
closed = 1;
nodes = (
(136,585,o),
(183,650,o),
(271,650,c),
(326,650,o),
(363,627,o),
(396,571,c),
(427,623,o),
(461,650,o),
(516,650,c),
(610,650,o),
(658,584,o),
(670,444,c),
(126,444,l)
);
}
);
width = 1183;
}
);
},
{
export = 0;
glyphname = _PbUe.fina;
layers = (
{
anchors = (
{
name = baluda;
pos = (0,0);
},
{
name = dagalga;
pos = (0,0);
}
);
layerId = "E14AE757-7134-4DB9-897C-AD248BACE90D";
shapes = (
{
closed = 1;
nodes = (
(265,40,o),
(324,72,o),
(350,135,c),
(378,71,o),
(428,40,o),
(492,40,c),
(635,40,o),
(704,146,o),
(706,364,c),
(917,364,l),
(988,364,o),
(1015,333,o),
(1015,279,c),
(1015,236,o),
(1008,197,o),
(993,162,c),
(1067,162,l),
(1084,198,o),
(1092,237,o),
(1092,279,c),
(1092,389,o),
(1034,444,o),
(917,444,c),
(703,444,l),
(690,608,o),
(624,733,o),
(470,733,c),
(421,733,o),
(386,715,o),
(350,670,c),
(317,712,o),
(276,733,o),
(225,733,c),
(77,733,o),
(-1,606,o),
(-1,375,c),
(-1,155,o),
(61,40,o),
(203,40,c)
);
},
{
closed = 1;
nodes = (
(98,123,o),
(78,222,o),
(78,364,c),
(313,364,l),
(313,285,l),
(313,194,o),
(278,123,o),
(202,123,c)
);
},
{
closed = 1;
nodes = (
(425,123,o),
(392,177,o),
(392,286,c),
(392,364,l),
(627,364,l),
(622,188,o),
(592,123,o),
(492,123,c)
);
},
{
closed = 1;
nodes = (
(90,585,o),
(137,650,o),
(225,650,c),
(280,650,o),
(317,627,o),
(350,571,c),
(381,623,o),
(415,650,o),
(470,650,c),
(564,650,o),
(612,584,o),
(624,444,c),
(80,444,l)
);
}
);
width = 1137;
}
);
},
{
export = 0;
glyphname = _K2A.init;
layers = (
{
layerId = "E14AE757-7134-4DB9-897C-AD248BACE90D";
shapes = (
{
closed = 1;
nodes = (
(306,90,l),
(185,221,o),
(124,330,o),
(124,419,c),
(124,511,o),
(145,576,o),
(187,614,c),
(209,634,o),
(238,644,o),
(274,644,c),
(313,644,o),
(343,633,o),
(365,611,c),
(386,589,o),
(402,556,o),
(411,512,c),
(420,470,o),
(426,421,o),
(430,364,c),
(449,96,l),
(515,96,l),
(534,364,l),
(744,364,l),
(744,444,l),
(503,444,l),
(489,565,o),
(453,648,o),
(396,692,c),
(365,715,o),
(324,727,o),
(274,727,c),
(225,727,o),
(183,714,o),
(149,688,c),
(114,662,o),
(88,625,o),
(71,577,c),
(54,531,o),
(45,478,o),
(45,419,c),
(45,96,l),
(111,96,l),
(119,215,l),
(146,158,o),
(187,98,o),
(244,35,c)
);
}
);
width = 714;
}
);
},
{
export = 0;
glyphname = _K2A.medi;
layers = (
{
layerId = "E14AE757-7134-4DB9-897C-AD248BACE90D";
shapes = (
{
closed = 1;
nodes = (
(261,90,l),
(140,221,o),
(79,330,o),
(79,419,c),
(79,511,o),
(100,576,o),
(142,614,c),
(164,634,o),
(193,644,o),
(229,644,c),
(268,644,o),
(298,633,o),
(320,611,c),
(341,589,o),
(357,556,o),
(366,512,c),
(375,470,o),
(381,421,o),
(385,364,c),
(404,96,l),
(470,96,l),
(489,364,l),
(699,364,l),
(699,444,l),
(458,444,l),
(444,565,o),
(408,648,o),
(351,692,c),
(320,715,o),
(279,727,o),
(229,727,c),
(180,727,o),
(138,714,o),
(104,688,c),
(69,662,o),
(43,625,o),
(26,577,c),
(9,531,o),
(0,478,o),
(0,419,c),
(0,96,l),
(66,96,l),
(74,215,l),
(101,158,o),
(142,98,o),
(199,35,c)
);
}
);
width = 669;
}
);
},
{
export = 0;
glyphname = _K2Aa.isol;
layers = (
{
layerId = "E14AE757-7134-4DB9-897C-AD248BACE90D";
shapes = (
{
closed = 1;
nodes = (
(797,-264,l),
(783,-237,o),
(776,-212,o),
(776,-187,c),
(776,-158,o),
(781,-133,o),
(792,-110,c),
(802,-88,o),
(819,-62,o),
(843,-31,c),
(886,22,o),
(919,71,o),
(942,116,c),
(965,161,o),
(976,204,o),
(976,245,c),
(974,378,o),
(897,444,o),
(745,444,c),
(503,444,l),
(489,565,o),
(453,648,o),
(396,692,c),
(365,715,o),
(324,727,o),
(274,727,c),
(225,727,o),
(183,714,o),
(149,688,c),
(114,662,o),
(88,625,o),
(71,577,c),
(54,531,o),
(45,478,o),
(45,419,c),
(45,96,l),
(111,96,l),
(119,215,l),
(146,158,o),
(187,98,o),
(244,35,c),
(306,90,l),
(185,221,o),
(124,330,o),
(124,419,c),
(124,511,o),
(145,576,o),
(187,614,c),
(209,634,o),
(238,644,o),
(274,644,c),
(313,644,o),
(343,633,o),
(365,611,c),
(386,589,o),
(402,556,o),
(411,512,c),
(420,470,o),
(426,421,o),
(430,364,c),
(449,96,l),
(515,96,l),
(534,364,l),
(744,364,l),
(847,367,o),
(898,326,o),
(898,243,c),
(898,212,o),
(890,180,o),
(873,149,c),
(856,117,o),
(829,77,o),
(791,28,c),
(760,-13,o),
(736,-50,o),
(720,-83,c),
(704,-116,o),
(696,-151,o),
(696,-187,c),
(696,-217,o),
(702,-243,o),
(715,-264,c)
);
}
);
width = 1021;
}
);
},
{
export = 0;
glyphname = _K2Aa.fina;
layers = (
{
layerId = "E14AE757-7134-4DB9-897C-AD248BACE90D";
shapes = (
{
closed = 1;
nodes = (
(752,-264,l),
(738,-237,o),
(731,-212,o),
(731,-187,c),
(731,-158,o),
(736,-133,o),
(747,-110,c),
(757,-88,o),
(774,-62,o),
(798,-31,c),
(841,22,o),
(874,71,o),
(897,116,c),
(920,161,o),
(931,204,o),
(931,245,c),
(929,378,o),
(852,444,o),
(700,444,c),
(458,444,l),
(444,565,o),
(408,648,o),
(351,692,c),
(320,715,o),
(279,727,o),
(229,727,c),
(180,727,o),
(138,714,o),
(104,688,c),
(69,662,o),
(43,625,o),
(26,577,c),
(9,531,o),
(0,478,o),
(0,419,c),
(0,96,l),
(66,96,l),
(74,215,l),
(101,158,o),
(142,98,o),
(199,35,c),
(261,90,l),
(140,221,o),
(79,330,o),
(79,419,c),
(79,511,o),
(100,576,o),
(142,614,c),
(164,634,o),
(193,644,o),
(229,644,c),
(268,644,o),
(298,633,o),
(320,611,c),
(341,589,o),
(357,556,o),
(366,512,c),
(375,470,o),
(381,421,o),
(385,364,c),
(404,96,l),
(470,96,l),
(489,364,l),
(699,364,l),
(802,367,o),
(853,326,o),
(853,243,c),
(853,212,o),
(845,180,o),
(828,149,c),
(811,117,o),
(784,77,o),
(746,28,c),
(715,-13,o),
(691,-50,o),
(675,-83,c),
(659,-116,o),
(651,-151,o),
(651,-187,c),
(651,-217,o),
(657,-243,o),
(670,-264,c)
);
}
);
width = 976;
}
);
},
{
export = 0;
glyphname = _KhA.init;
layers = (
{
anchors = (
{
name = baluda;
pos = (0,0);
},
{
name = dagalga;
pos = (0,0);
}
);
layerId = "E14AE757-7134-4DB9-897C-AD248BACE90D";
shapes = (
{
closed = 1;
nodes = (
(306,90,l),
(181,225,o),
(124,329,o),
(124,419,c),
(124,546,o),
(166,644,o),
(274,644,c),
(394,644,o),
(418,534,o),
(430,364,c),
(449,96,l),
(515,96,l),
(534,364,l),
(744,364,l),
(744,444,l),
(503,444,l),
(482,614,o),
(424,727,o),
(274,727,c),
(121,727,o),
(45,594,o),
(45,419,c),
(45,96,l),
(111,96,l),
(119,215,l),
(146,157,o),
(188,97,o),
(244,35,c)
);
},
{
closed = 1;
nodes = (
(282,822,o),
(328,860,o),
(388,903,c),
(327,972,l),
(288,933,o),
(248,885,o),
(206,826,c),
(249,787,l)
);
}
);
width = 714;
}
);
},
{
export = 0;
glyphname = _KhA.medi;
layers = (
{
anchors = (
{
name = baluda;
pos = (0,0);
},
{
name = dagalga;
pos = (0,0);
}
);
layerId = "E14AE757-7134-4DB9-897C-AD248BACE90D";
shapes = (
{
closed = 1;
nodes = (
(261,90,l),
(136,225,o),
(79,329,o),
(79,419,c),
(79,546,o),
(121,644,o),
(229,644,c),
(349,644,o),
(373,534,o),
(385,364,c),
(404,96,l),
(470,96,l),
(489,364,l),
(699,364,l),
(699,444,l),
(458,444,l),
(437,614,o),
(379,727,o),
(229,727,c),
(76,727,o),
(0,594,o),
(0,419,c),
(0,96,l),
(66,96,l),
(74,215,l),
(101,157,o),
(143,97,o),
(199,35,c)
);
},
{
closed = 1;
nodes = (
(237,822,o),
(283,860,o),
(343,903,c),
(282,972,l),
(243,933,o),
(203,885,o),
(161,826,c),
(204,787,l)
);
}
);
width = 669;
}
);
},
{
export = 0;
glyphname = _KhAa.isol;
layers = (
{
anchors = (
{
name = baluda;
pos = (0,0);
},
{
name = dagalga;
pos = (0,0);
}
);
layerId = "E14AE757-7134-4DB9-897C-AD248BACE90D";
shapes = (
{
closed = 1;
nodes = (
(282,822,o),
(328,860,o),
(388,903,c),
(327,972,l),
(288,933,o),
(248,885,o),
(206,826,c),
(249,787,l)
);
},
{
closed = 1;
nodes = (
(797,-264,l),
(783,-238,o),
(776,-213,o),
(776,-187,c),
(776,-127,o),
(794,-93,o),
(843,-31,c),
(917,64,o),
(976,155,o),
(976,245,c),
(976,373,o),
(898,444,o),
(745,444,c),
(503,444,l),
(482,614,o),
(424,727,o),
(274,727,c),
(121,727,o),
(45,594,o),
(45,419,c),
(45,96,l),
(111,96,l),
(119,215,l),
(146,157,o),
(188,97,o),
(244,35,c),
(306,90,l),
(181,225,o),
(124,329,o),
(124,419,c),
(124,546,o),
(166,644,o),
(274,644,c),
(394,644,o),
(418,534,o),
(430,364,c),
(449,96,l),
(515,96,l),
(534,364,l),
(744,364,l),
(851,364,o),
(898,325,o),
(898,243,c),
(898,175,o),
(859,116,o),
(791,28,c),
(736,-44,o),
(696,-108,o),
(696,-187,c),
(696,-216,o),
(702,-242,o),
(715,-264,c)
);
}
);
width = 1021;
}
);
},
{
export = 0;
glyphname = _KhAa.fina;
layers = (
{
anchors = (
{
name = baluda;
pos = (0,0);
},
{
name = dagalga;
pos = (0,0);
}
);
layerId = "E14AE757-7134-4DB9-897C-AD248BACE90D";
shapes = (
{
closed = 1;
nodes = (
(237,822,o),
(283,860,o),
(343,903,c),
(282,972,l),
(243,933,o),
(203,885,o),
(161,826,c),
(204,787,l)
);
},
{
closed = 1;
nodes = (
(752,-264,l),
(738,-238,o),
(731,-213,o),
(731,-187,c),
(731,-127,o),
(749,-93,o),
(798,-31,c),
(872,64,o),
(931,155,o),
(931,245,c),
(931,373,o),
(853,444,o),
(700,444,c),
(458,444,l),
(437,614,o),
(379,727,o),
(229,727,c),
(76,727,o),
(0,594,o),
(0,419,c),
(0,96,l),
(66,96,l),
(74,215,l),
(101,157,o),
(143,97,o),
(199,35,c),
(261,90,l),
(136,225,o),
(79,329,o),
(79,419,c),
(79,546,o),
(121,644,o),
(229,644,c),
(349,644,o),
(373,534,o),
(385,364,c),
(404,96,l),
(470,96,l),
(489,364,l),
(699,364,l),
(806,364,o),
(853,325,o),
(853,243,c),
(853,175,o),
(814,116,o),
(746,28,c),
(691,-44,o),
(651,-108,o),
(651,-187,c),
(651,-216,o),
(657,-242,o),
(670,-264,c)
);
}
);
width = 976;
}
);
},
{
export = 0;
glyphname = _KcA.init;
layers = (
{
anchors = (
{
name = baluda;
pos = (0,0);
},
{
name = dagalga;
pos = (0,0);
}
);
layerId = "E14AE757-7134-4DB9-897C-AD248BACE90D";
shapes = (
{
closed = 1;
nodes = (
(306,90,l),
(181,225,o),
(124,329,o),
(124,419,c),
(124,546,o),
(166,644,o),
(274,644,c),
(394,644,o),
(418,534,o),
(430,364,c),
(449,96,l),
(515,96,l),
(534,364,l),
(744,364,l),
(744,444,l),
(503,444,l),
(482,614,o),
(424,727,o),
(274,727,c),
(121,727,o),
(45,594,o),
(45,419,c),
(45,96,l),
(111,96,l),
(119,215,l),
(146,157,o),
(188,97,o),
(244,35,c)
);
},
{
closed = 1;
nodes = (
(355,779,o),
(407,833,o),
(407,898,c),
(407,965,o),
(353,1017,o),
(288,1017,c),
(221,1017,o),
(169,963,o),
(169,898,c),
(169,831,o),
(223,779,o),
(288,779,c)
);
},
{
closed = 1;
nodes = (
(252,829,o),
(220,855,o),
(220,898,c),
(220,938,o),
(249,966,o),
(288,966,c),
(328,966,o),
(357,936,o),
(357,898,c),
(357,859,o),
(327,829,o),
(288,829,c)
);
}
);
width = 714;
}
);
},
{
export = 0;
glyphname = _KcA.medi;
layers = (
{
anchors = (
{
name = baluda;
pos = (0,0);
},
{
name = dagalga;
pos = (0,0);
}
);
layerId = "E14AE757-7134-4DB9-897C-AD248BACE90D";
shapes = (
{
closed = 1;
nodes = (
(261,90,l),
(136,225,o),
(79,329,o),
(79,419,c),
(79,546,o),
(121,644,o),
(229,644,c),
(349,644,o),
(373,534,o),
(385,364,c),
(404,96,l),
(470,96,l),
(489,364,l),
(699,364,l),
(699,444,l),
(458,444,l),
(437,614,o),
(379,727,o),
(229,727,c),
(76,727,o),
(0,594,o),
(0,419,c),
(0,96,l),
(66,96,l),
(74,215,l),
(101,157,o),
(143,97,o),
(199,35,c)
);
},
{
closed = 1;
nodes = (
(310,779,o),
(362,833,o),
(362,898,c),
(362,965,o),
(308,1017,o),
(243,1017,c),
(176,1017,o),
(124,963,o),
(124,898,c),
(124,831,o),
(178,779,o),
(243,779,c)
);
},
{
closed = 1;
nodes = (
(207,829,o),
(175,855,o),
(175,898,c),
(175,938,o),
(204,966,o),
(243,966,c),
(283,966,o),
(312,936,o),
(312,898,c),
(312,859,o),
(282,829,o),
(243,829,c)
);
}
);
width = 669;
}
);
},
{
export = 0;
glyphname = _KcAa.isol;
layers = (
{
anchors = (
{
name = baluda;
pos = (0,0);
},
{
name = dagalga;
pos = (0,0);
}
);
layerId = "E14AE757-7134-4DB9-897C-AD248BACE90D";
shapes = (
{
closed = 1;
nodes = (
(355,779,o),
(407,833,o),
(407,898,c),
(407,965,o),
(353,1017,o),
(288,1017,c),
(221,1017,o),
(169,963,o),
(169,898,c),
(169,831,o),
(223,779,o),
(288,779,c)
);
},
{
closed = 1;
nodes = (
(252,829,o),
(220,855,o),
(220,898,c),
(220,938,o),
(249,966,o),
(288,966,c),
(328,966,o),
(357,936,o),
(357,898,c),
(357,859,o),
(327,829,o),
(288,829,c)
);
},
{
closed = 1;
nodes = (
(797,-264,l),
(783,-238,o),
(776,-213,o),
(776,-187,c),
(776,-127,o),
(794,-93,o),
(843,-31,c),
(917,64,o),
(976,155,o),
(976,245,c),
(976,373,o),
(898,444,o),
(745,444,c),
(503,444,l),
(482,614,o),
(424,727,o),
(274,727,c),
(121,727,o),
(45,594,o),
(45,419,c),
(45,96,l),
(111,96,l),
(119,215,l),
(146,157,o),
(188,97,o),
(244,35,c),
(306,90,l),
(181,225,o),
(124,329,o),
(124,419,c),
(124,546,o),
(166,644,o),
(274,644,c),
(394,644,o),
(418,534,o),
(430,364,c),
(449,96,l),
(515,96,l),
(534,364,l),
(744,364,l),
(851,364,o),
(898,325,o),
(898,243,c),
(898,175,o),
(859,116,o),
(791,28,c),
(736,-44,o),
(696,-108,o),
(696,-187,c),
(696,-216,o),
(702,-242,o),
(715,-264,c)
);
}
);
width = 1021;
}
);
},
{
export = 0;
glyphname = _KcAa.fina;
layers = (
{
anchors = (
{
name = baluda;
pos = (0,0);
},
{
name = dagalga;
pos = (0,0);
}
);
layerId = "E14AE757-7134-4DB9-897C-AD248BACE90D";
shapes = (
{
closed = 1;
nodes = (
(310,779,o),
(362,833,o),
(362,898,c),
(362,965,o),
(308,1017,o),
(243,1017,c),
(176,1017,o),
(124,963,o),
(124,898,c),
(124,831,o),
(178,779,o),
(243,779,c)
);
},
{
closed = 1;
nodes = (
(207,829,o),
(175,855,o),
(175,898,c),
(175,938,o),
(204,966,o),
(243,966,c),
(283,966,o),
(312,936,o),
(312,898,c),
(312,859,o),
(282,829,o),
(243,829,c)
);
},
{
closed = 1;
nodes = (
(752,-264,l),
(738,-238,o),
(731,-213,o),
(731,-187,c),
(731,-127,o),
(749,-93,o),
(798,-31,c),
(872,64,o),
(931,155,o),
(931,245,c),
(931,373,o),
(853,444,o),
(700,444,c),
(458,444,l),
(437,614,o),
(379,727,o),
(229,727,c),
(76,727,o),
(0,594,o),
(0,419,c),
(0,96,l),
(66,96,l),
(74,215,l),
(101,157,o),
(143,97,o),
(199,35,c),
(261,90,l),
(136,225,o),
(79,329,o),
(79,419,c),
(79,546,o),
(121,644,o),
(229,644,c),
(349,644,o),
(373,534,o),
(385,364,c),
(404,96,l),
(470,96,l),
(489,364,l),
(699,364,l),
(806,364,o),
(853,325,o),
(853,243,c),
(853,175,o),
(814,116,o),
(746,28,c),
(691,-44,o),
(651,-108,o),
(651,-187,c),
(651,-216,o),
(657,-242,o),
(670,-264,c)
);
}
);
width = 976;
}
);
},
{
export = 0;
glyphname = _K2O.init;
layers = (
{
layerId = "E14AE757-7134-4DB9-897C-AD248BACE90D";
shapes = (
{
closed = 1;
nodes = (
(443,124,o),
(408,174,o),
(408,275,c),
(408,310,o),
(413,340,o),
(424,364,c),
(623,364,l),
(624,354,o),
(625,344,o),
(625,334,c),
(625,303,l),
(625,244,o),
(615,200,o),
(595,169,c),
(574,138,o),
(547,123,o),
(512,123,c)
);
},
{
closed = 1;
nodes = (
(286,80,l),
(221,161,o),
(174,236,o),
(147,304,c),
(132,342,o),
(124,380,o),
(124,419,c),
(124,498,o),
(146,561,o),
(189,608,c),
(232,654,o),
(290,677,o),
(365,677,c),
(503,677,o),
(586,599,o),
(614,444,c),
(367,444,l),
(342,389,o),
(329,332,o),
(329,275,c),
(329,202,o),
(345,145,o),
(377,103,c),
(409,61,o),
(456,40,o),
(519,40,c),
(590,40,o),
(644,82,o),
(680,166,c),
(696,205,o),
(704,251,o),
(704,303,c),
(704,334,l),
(704,344,o),
(703,354,o),
(702,364,c),
(915,364,l),
(915,444,l),
(693,444,l),
(654,655,o),
(545,760,o),
(365,760,c),
(300,760,o),
(244,746,o),
(196,718,c),
(148,690,o),
(111,649,o),
(84,595,c),
(58,542,o),
(45,480,o),
(45,408,c),
(45,76,l),
(111,76,l),
(119,192,l),
(142,148,o),
(177,96,o),
(224,35,c)
);
}
);
width = 885;
}
);
},
{
export = 0;
glyphname = _K2O.medi;
layers = (
{
layerId = "E14AE757-7134-4DB9-897C-AD248BACE90D";
shapes = (
{
closed = 1;
nodes = (
(398,124,o),
(363,174,o),
(363,275,c),
(363,310,o),
(368,340,o),
(379,364,c),
(578,364,l),
(579,354,o),
(580,344,o),
(580,334,c),
(580,303,l),
(580,244,o),
(570,200,o),
(550,169,c),
(529,138,o),
(502,123,o),
(467,123,c)
);
},
{
closed = 1;
nodes = (
(241,80,l),
(176,161,o),
(129,236,o),
(102,304,c),
(87,342,o),
(79,380,o),
(79,419,c),
(79,498,o),
(101,561,o),
(144,608,c),
(187,654,o),
(245,677,o),
(320,677,c),
(458,677,o),
(541,599,o),
(569,444,c),
(322,444,l),
(297,389,o),
(284,332,o),
(284,275,c),
(284,202,o),
(300,145,o),
(332,103,c),
(364,61,o),
(411,40,o),
(474,40,c),
(545,40,o),
(599,82,o),
(635,166,c),
(651,205,o),
(659,251,o),
(659,303,c),
(659,334,l),
(659,344,o),
(658,354,o),
(657,364,c),
(870,364,l),
(870,444,l),
(648,444,l),
(609,655,o),
(500,760,o),
(320,760,c),
(255,760,o),
(199,746,o),
(151,718,c),
(103,690,o),
(66,649,o),
(39,595,c),
(13,542,o),
(0,480,o),
(0,408,c),
(0,76,l),
(66,76,l),
(74,192,l),
(97,148,o),
(132,96,o),
(179,35,c)
);
}
);
width = 840;
}
);
},
{
export = 0;
glyphname = _K2O.isol;
layers = (
{
layerId = "E14AE757-7134-4DB9-897C-AD248BACE90D";
shapes = (
{
closed = 1;
nodes = (
(443,124,o),
(408,174,o),
(408,275,c),
(408,310,o),
(413,340,o),
(424,364,c),
(623,364,l),
(624,354,o),
(625,344,o),
(625,334,c),
(625,303,l),
(625,244,o),
(615,200,o),
(595,169,c),
(574,138,o),
(547,123,o),
(512,123,c)
);
},
{
closed = 1;
nodes = (
(286,80,l),
(219,164,o),
(172,239,o),
(146,306,c),
(131,343,o),
(124,381,o),
(124,419,c),
(124,498,o),
(146,561,o),
(189,608,c),
(232,654,o),
(290,677,o),
(365,677,c),
(503,677,o),
(586,599,o),
(614,444,c),
(367,444,l),
(355,421,o),
(346,394,o),
(339,363,c),
(332,332,o),
(329,303,o),
(329,275,c),
(329,202,o),
(345,145,o),
(377,103,c),
(409,61,o),
(456,40,o),
(519,40,c),
(591,40,o),
(645,82,o),
(681,167,c),
(696,207,o),
(704,252,o),
(704,303,c),
(704,440,o),
(678,549,o),
(625,628,c),
(567,716,o),
(480,760,o),
(365,760,c),
(237,760,o),
(144,705,o),
(85,595,c),
(58,542,o),
(45,480,o),
(45,408,c),
(45,76,l),
(111,76,l),
(119,192,l),
(142,148,o),
(177,96,o),
(224,35,c)
);
}
);
width = 749;
}
);
},
{
export = 0;
glyphname = _K2O.fina;
layers = (
{
layerId = "E14AE757-7134-4DB9-897C-AD248BACE90D";
shapes = (
{
closed = 1;
nodes = (
(398,124,o),
(363,174,o),
(363,275,c),
(363,310,o),
(368,340,o),
(379,364,c),
(578,364,l),
(579,354,o),
(580,344,o),
(580,334,c),
(580,303,l),
(580,244,o),
(570,200,o),
(550,169,c),
(529,138,o),
(502,123,o),
(467,123,c)
);
},
{
closed = 1;
nodes = (
(241,80,l),
(174,164,o),
(127,239,o),
(101,306,c),
(86,343,o),
(79,381,o),
(79,419,c),
(79,498,o),
(101,561,o),
(144,608,c),
(187,654,o),
(245,677,o),
(320,677,c),
(458,677,o),
(541,599,o),
(569,444,c),
(322,444,l),
(310,421,o),
(301,394,o),
(294,363,c),
(287,332,o),
(284,303,o),
(284,275,c),
(284,202,o),
(300,145,o),
(332,103,c),
(364,61,o),
(411,40,o),
(474,40,c),
(546,40,o),
(600,82,o),
(636,167,c),
(651,207,o),
(659,252,o),
(659,303,c),
(659,440,o),
(633,549,o),
(580,628,c),
(522,716,o),
(435,760,o),
(320,760,c),
(192,760,o),
(99,705,o),
(40,595,c),
(13,542,o),
(0,480,o),
(0,408,c),
(0,76,l),
(66,76,l),
(74,192,l),
(97,148,o),
(132,96,o),
(179,35,c)
);
}
);
width = 704;
}
);
},
{
export = 0;
glyphname = _KhO.init;
layers = (
{
anchors = (
{
name = baluda;
pos = (0,0);
},
{
name = dagalga;
pos = (0,0);
}
);
layerId = "E14AE757-7134-4DB9-897C-AD248BACE90D";
shapes = (
{
closed = 1;
nodes = (
(286,80,l),
(199,189,o),
(124,303,o),
(124,419,c),
(124,576,o),
(214,677,o),
(365,677,c),
(503,677,o),
(586,599,o),
(614,444,c),
(367,444,l),
(342,397,o),
(329,330,o),
(329,275,c),
(329,133,o),
(391,40,o),
(519,40,c),
(626,40,o),
(704,147,o),
(704,303,c),
(704,324,o),
(704,344,o),
(702,364,c),
(915,364,l),
(915,444,l),
(693,444,l),
(658,649,o),
(545,760,o),
(365,760,c),
(169,760,o),
(45,624,o),
(45,408,c),
(45,76,l),
(111,76,l),
(119,192,l),
(142,147,o),
(177,95,o),
(224,35,c)
);
},
{
closed = 1;
nodes = (
(443,123,o),
(408,174,o),
(408,275,c),
(408,312,o),
(414,342,o),
(424,364,c),
(623,364,l),
(625,344,o),
(625,324,o),
(625,303,c),
(625,183,o),
(579,123,o),
(512,123,c)
);
},
{
closed = 1;
nodes = (
(362,852,o),
(408,890,o),
(468,933,c),
(407,1002,l),
(368,963,o),
(328,915,o),
(286,856,c),
(329,817,l)
);
}
);
width = 885;
}
);
},
